<?xml version="1.0" encoding="UTF-8" standalone="no"?><svg xmlns="http://www.w3.org/2000/svg" xmlns:xlink="http://www.w3.org/1999/xlink" contentScriptType="application/ecmascript" contentStyleType="text/css" height="354px" preserveAspectRatio="none" style="width:991px;height:354px;" version="1.1" viewBox="0 0 991 354" width="991px" zoomAndPan="magnify"><defs><filter height="300%" id="f1vkwf3bnv6iqe" width="300%" x="-1" y="-1"><feGaussianBlur result="blurOut" stdDeviation="2.0"/><feColorMatrix in="blurOut" result="blurOut2" type="matrix" values="0 0 0 0 0 0 0 0 0 0 0 0 0 0 0 0 0 0 .4 0"/><feOffset dx="4.0" dy="4.0" in="blurOut2" result="blurOut3"/><feBlend in="SourceGraphic" in2="blurOut3" mode="normal"/></filter></defs><g><!--MD5=[23c90b7d003bd6e11d0cfcf1a0c4a1ed]
class OrdemProducaoRepository--><rect fill="#FEFECE" filter="url(#f1vkwf3bnv6iqe)" height="60.8047" id="OrdemProducaoRepository" style="stroke: #A80036; stroke-width: 1.5;" width="225" x="6" y="157"/><ellipse cx="35.85" cy="173" fill="#B4A7E5" rx="11" ry="11" style="stroke: #A80036; stroke-width: 1.0;"/><path d="M36.8031,169.7813 L38.5219,169.7813 C38.9125,169.7813 39.1,169.75 39.225,169.6719 C39.4906,169.5156 39.6313,169.2344 39.6313,168.9375 C39.6313,168.6719 39.5219,168.4063 39.2875,168.2344 C39.1156,168.125 38.975,168.0938 38.5219,168.0938 L33.3813,168.0938 C32.9438,168.0938 32.8188,168.1094 32.6625,168.2031 C32.4125,168.3594 32.2563,168.6563 32.2563,168.9375 C32.2563,169.2188 32.3969,169.4688 32.6156,169.6406 C32.7719,169.75 32.9594,169.7813 33.3813,169.7813 L35.1,169.7813 L35.1,176.2969 L33.3813,176.2969 C32.9438,176.2969 32.8188,176.3125 32.6625,176.4219 C32.4125,176.5781 32.2563,176.8594 32.2563,177.1563 C32.2563,177.4063 32.3969,177.6719 32.6156,177.8281 C32.7719,177.9531 32.975,178 33.3813,178 L38.5219,178 C39.2719,178 39.6313,177.7188 39.6313,177.1563 C39.6313,176.875 39.5219,176.625 39.2875,176.4531 C39.1156,176.3281 38.975,176.2969 38.5219,176.2969 L36.8031,176.2969 L36.8031,169.7813 Z "/><text fill="#000000" font-family="sans-serif" font-size="12" font-style="italic" lengthAdjust="spacingAndGlyphs" textLength="160" x="53.15" y="177.1543">OrdemProducaoRepository</text><line style="stroke: #A80036; stroke-width: 1.5;" x1="7" x2="230" y1="189" y2="189"/><line style="stroke: #A80036; stroke-width: 1.5;" x1="7" x2="230" y1="197" y2="197"/><text fill="#000000" font-family="sans-serif" font-size="11" lengthAdjust="spacingAndGlyphs" textLength="213" x="12" y="211.2104">findOrdensProducaoByEstado(estado)</text><!--MD5=[81fcead2afb67d85d5dba0a4d42cd404]
class ConsultarOrdensProducaoEstadoController--><rect fill="#FEFECE" filter="url(#f1vkwf3bnv6iqe)" height="73.6094" id="ConsultarOrdensProducaoEstadoController" style="stroke: #A80036; stroke-width: 1.5;" width="289" x="363" y="6"/><ellipse cx="378" cy="22" fill="#ADD1B2" rx="11" ry="11" style="stroke: #A80036; stroke-width: 1.0;"/><path d="M380.3438,17.6719 C379.4063,17.2344 378.8125,17.0938 377.9375,17.0938 C375.3125,17.0938 373.3125,19.1719 373.3125,21.8906 L373.3125,23.0156 C373.3125,25.5938 375.4219,27.4844 378.3125,27.4844 C379.5313,27.4844 380.6875,27.1875 381.4375,26.6406 C382.0156,26.2344 382.3438,25.7813 382.3438,25.3906 C382.3438,24.9375 381.9531,24.5469 381.4844,24.5469 C381.2656,24.5469 381.0625,24.625 380.875,24.8125 C380.4219,25.2969 380.4219,25.2969 380.2344,25.3906 C379.8125,25.6563 379.125,25.7813 378.3594,25.7813 C376.3125,25.7813 375.0156,24.6875 375.0156,22.9844 L375.0156,21.8906 C375.0156,20.1094 376.2656,18.7969 378,18.7969 C378.5781,18.7969 379.1875,18.9531 379.6563,19.2031 C380.1406,19.4844 380.3125,19.7031 380.4063,20.1094 C380.4688,20.5156 380.5,20.6406 380.6406,20.7656 C380.7813,20.9063 381.0156,21.0156 381.2344,21.0156 C381.5,21.0156 381.7656,20.875 381.9375,20.6563 C382.0469,20.5 382.0781,20.3125 382.0781,19.8906 L382.0781,18.4688 C382.0781,18.0313 382.0625,17.9063 381.9688,17.75 C381.8125,17.4844 381.5313,17.3438 381.2344,17.3438 C380.9375,17.3438 380.7344,17.4375 380.5156,17.75 L380.3438,17.6719 Z "/><text fill="#000000" font-family="sans-serif" font-size="12" lengthAdjust="spacingAndGlyphs" textLength="257" x="392" y="26.1543">ConsultarOrdensProducaoEstadoController</text><line style="stroke: #A80036; stroke-width: 1.5;" x1="364" x2="651" y1="38" y2="38"/><line style="stroke: #A80036; stroke-width: 1.5;" x1="364" x2="651" y1="46" y2="46"/><text fill="#000000" font-family="sans-serif" font-size="11" lengthAdjust="spacingAndGlyphs" textLength="185" x="369" y="60.2104">mostrarEstadosOrdemProducao()</text><text fill="#000000" font-family="sans-serif" font-size="11" lengthAdjust="spacingAndGlyphs" textLength="204" x="369" y="73.0151">listarOrdensProducaoEstado(estado)</text><!--MD5=[e9fd5b0bc5f087935178fc17186ea5ce]
class ConsultarOrdensProducaoEstadoUI--><rect fill="#FEFECE" filter="url(#f1vkwf3bnv6iqe)" height="48" id="ConsultarOrdensProducaoEstadoUI" style="stroke: #A80036; stroke-width: 1.5;" width="242" x="266.5" y="163.5"/><ellipse cx="281.5" cy="179.5" fill="#ADD1B2" rx="11" ry="11" style="stroke: #A80036; stroke-width: 1.0;"/><path d="M283.8438,175.1719 C282.9063,174.7344 282.3125,174.5938 281.4375,174.5938 C278.8125,174.5938 276.8125,176.6719 276.8125,179.3906 L276.8125,180.5156 C276.8125,183.0938 278.9219,184.9844 281.8125,184.9844 C283.0313,184.9844 284.1875,184.6875 284.9375,184.1406 C285.5156,183.7344 285.8438,183.2813 285.8438,182.8906 C285.8438,182.4375 285.4531,182.0469 284.9844,182.0469 C284.7656,182.0469 284.5625,182.125 284.375,182.3125 C283.9219,182.7969 283.9219,182.7969 283.7344,182.8906 C283.3125,183.1563 282.625,183.2813 281.8594,183.2813 C279.8125,183.2813 278.5156,182.1875 278.5156,180.4844 L278.5156,179.3906 C278.5156,177.6094 279.7656,176.2969 281.5,176.2969 C282.0781,176.2969 282.6875,176.4531 283.1563,176.7031 C283.6406,176.9844 283.8125,177.2031 283.9063,177.6094 C283.9688,178.0156 284,178.1406 284.1406,178.2656 C284.2813,178.4063 284.5156,178.5156 284.7344,178.5156 C285,178.5156 285.2656,178.375 285.4375,178.1563 C285.5469,178 285.5781,177.8125 285.5781,177.3906 L285.5781,175.9688 C285.5781,175.5313 285.5625,175.4063 285.4688,175.25 C285.3125,174.9844 285.0313,174.8438 284.7344,174.8438 C284.4375,174.8438 284.2344,174.9375 284.0156,175.25 L283.8438,175.1719 Z "/><text fill="#000000" font-family="sans-serif" font-size="12" lengthAdjust="spacingAndGlyphs" textLength="210" x="295.5" y="183.6543">ConsultarOrdensProducaoEstadoUI</text><line style="stroke: #A80036; stroke-width: 1.5;" x1="267.5" x2="507.5" y1="195.5" y2="195.5"/><line style="stroke: #A80036; stroke-width: 1.5;" x1="267.5" x2="507.5" y1="203.5" y2="203.5"/><!--MD5=[17dffd8d91fc54b590f4ffed616cb6aa]
class OrdemProducaoStatus--><rect fill="#FEFECE" filter="url(#f1vkwf3bnv6iqe)" height="60.8047" id="OrdemProducaoStatus" style="stroke: #A80036; stroke-width: 1.5;" width="167" x="544" y="157"/><ellipse cx="559" cy="173" fill="#ADD1B2" rx="11" ry="11" style="stroke: #A80036; stroke-width: 1.0;"/><path d="M561.3438,168.6719 C560.4063,168.2344 559.8125,168.0938 558.9375,168.0938 C556.3125,168.0938 554.3125,170.1719 554.3125,172.8906 L554.3125,174.0156 C554.3125,176.5938 556.4219,178.4844 559.3125,178.4844 C560.5313,178.4844 561.6875,178.1875 562.4375,177.6406 C563.0156,177.2344 563.3438,176.7813 563.3438,176.3906 C563.3438,175.9375 562.9531,175.5469 562.4844,175.5469 C562.2656,175.5469 562.0625,175.625 561.875,175.8125 C561.4219,176.2969 561.4219,176.2969 561.2344,176.3906 C560.8125,176.6563 560.125,176.7813 559.3594,176.7813 C557.3125,176.7813 556.0156,175.6875 556.0156,173.9844 L556.0156,172.8906 C556.0156,171.1094 557.2656,169.7969 559,169.7969 C559.5781,169.7969 560.1875,169.9531 560.6563,170.2031 C561.1406,170.4844 561.3125,170.7031 561.4063,171.1094 C561.4688,171.5156 561.5,171.6406 561.6406,171.7656 C561.7813,171.9063 562.0156,172.0156 562.2344,172.0156 C562.5,172.0156 562.7656,171.875 562.9375,171.6563 C563.0469,171.5 563.0781,171.3125 563.0781,170.8906 L563.0781,169.4688 C563.0781,169.0313 563.0625,168.9063 562.9688,168.75 C562.8125,168.4844 562.5313,168.3438 562.2344,168.3438 C561.9375,168.3438 561.7344,168.4375 561.5156,168.75 L561.3438,168.6719 Z "/><text fill="#000000" font-family="sans-serif" font-size="12" lengthAdjust="spacingAndGlyphs" textLength="135" x="573" y="177.1543">OrdemProducaoStatus</text><line style="stroke: #A80036; stroke-width: 1.5;" x1="545" x2="710" y1="189" y2="189"/><line style="stroke: #A80036; stroke-width: 1.5;" x1="545" x2="710" y1="197" y2="197"/><text fill="#000000" font-family="sans-serif" font-size="11" lengthAdjust="spacingAndGlyphs" textLength="46" x="550" y="211.2104">values()</text><!--MD5=[aee922e94dffa19a8ef5068574106a14]
class OrdemProducaoReportingService--><rect fill="#FEFECE" filter="url(#f1vkwf3bnv6iqe)" height="60.8047" id="OrdemProducaoReportingService" style="stroke: #A80036; stroke-width: 1.5;" width="234" x="746.5" y="157"/><ellipse cx="761.5" cy="173" fill="#ADD1B2" rx="11" ry="11" style="stroke: #A80036; stroke-width: 1.0;"/><path d="M763.8438,168.6719 C762.9063,168.2344 762.3125,168.0938 761.4375,168.0938 C758.8125,168.0938 756.8125,170.1719 756.8125,172.8906 L756.8125,174.0156 C756.8125,176.5938 758.9219,178.4844 761.8125,178.4844 C763.0313,178.4844 764.1875,178.1875 764.9375,177.6406 C765.5156,177.2344 765.8438,176.7813 765.8438,176.3906 C765.8438,175.9375 765.4531,175.5469 764.9844,175.5469 C764.7656,175.5469 764.5625,175.625 764.375,175.8125 C763.9219,176.2969 763.9219,176.2969 763.7344,176.3906 C763.3125,176.6563 762.625,176.7813 761.8594,176.7813 C759.8125,176.7813 758.5156,175.6875 758.5156,173.9844 L758.5156,172.8906 C758.5156,171.1094 759.7656,169.7969 761.5,169.7969 C762.0781,169.7969 762.6875,169.9531 763.1563,170.2031 C763.6406,170.4844 763.8125,170.7031 763.9063,171.1094 C763.9688,171.5156 764,171.6406 764.1406,171.7656 C764.2813,171.9063 764.5156,172.0156 764.7344,172.0156 C765,172.0156 765.2656,171.875 765.4375,171.6563 C765.5469,171.5 765.5781,171.3125 765.5781,170.8906 L765.5781,169.4688 C765.5781,169.0313 765.5625,168.9063 765.4688,168.75 C765.3125,168.4844 765.0313,168.3438 764.7344,168.3438 C764.4375,168.3438 764.2344,168.4375 764.0156,168.75 L763.8438,168.6719 Z "/><text fill="#000000" font-family="sans-serif" font-size="12" lengthAdjust="spacingAndGlyphs" textLength="202" x="775.5" y="177.1543">OrdemProducaoReportingService</text><line style="stroke: #A80036; stroke-width: 1.5;" x1="747.5" x2="979.5" y1="189" y2="189"/><line style="stroke: #A80036; stroke-width: 1.5;" x1="747.5" x2="979.5" y1="197" y2="197"/><text fill="#000000" font-family="sans-serif" font-size="11" lengthAdjust="spacingAndGlyphs" textLength="162" x="752.5" y="211.2104">listarOrdemProducao(ordem)</text><!--MD5=[91b5771deff141673f0d50a4eb9570d6]
class OrdemProducao--><rect fill="#FEFECE" filter="url(#f1vkwf3bnv6iqe)" height="48" id="OrdemProducao" style="stroke: #A80036; stroke-width: 1.5;" width="130" x="53.5" y="295"/><ellipse cx="68.5" cy="311" fill="#ADD1B2" rx="11" ry="11" style="stroke: #A80036; stroke-width: 1.0;"/><path d="M70.8438,306.6719 C69.9063,306.2344 69.3125,306.0938 68.4375,306.0938 C65.8125,306.0938 63.8125,308.1719 63.8125,310.8906 L63.8125,312.0156 C63.8125,314.5938 65.9219,316.4844 68.8125,316.4844 C70.0313,316.4844 71.1875,316.1875 71.9375,315.6406 C72.5156,315.2344 72.8438,314.7813 72.8438,314.3906 C72.8438,313.9375 72.4531,313.5469 71.9844,313.5469 C71.7656,313.5469 71.5625,313.625 71.375,313.8125 C70.9219,314.2969 70.9219,314.2969 70.7344,314.3906 C70.3125,314.6563 69.625,314.7813 68.8594,314.7813 C66.8125,314.7813 65.5156,313.6875 65.5156,311.9844 L65.5156,310.8906 C65.5156,309.1094 66.7656,307.7969 68.5,307.7969 C69.0781,307.7969 69.6875,307.9531 70.1563,308.2031 C70.6406,308.4844 70.8125,308.7031 70.9063,309.1094 C70.9688,309.5156 71,309.6406 71.1406,309.7656 C71.2813,309.9063 71.5156,310.0156 71.7344,310.0156 C72,310.0156 72.2656,309.875 72.4375,309.6563 C72.5469,309.5 72.5781,309.3125 72.5781,308.8906 L72.5781,307.4688 C72.5781,307.0313 72.5625,306.9063 72.4688,306.75 C72.3125,306.4844 72.0313,306.3438 71.7344,306.3438 C71.4375,306.3438 71.2344,306.4375 71.0156,306.75 L70.8438,306.6719 Z "/><text fill="#000000" font-family="sans-serif" font-size="12" lengthAdjust="spacingAndGlyphs" textLength="98" x="82.5" y="315.1543">OrdemProducao</text><line style="stroke: #A80036; stroke-width: 1.5;" x1="54.5" x2="182.5" y1="327" y2="327"/><line style="stroke: #A80036; stroke-width: 1.5;" x1="54.5" x2="182.5" y1="335" y2="335"/><!--MD5=[4ee941ccdd58468fa8e63dd3777b5373]
reverse link ConsultarOrdensProducaoEstadoController to ConsultarOrdensProducaoEstadoUI--><path d="M473.514,84.359 C452.055,109.841 425.09,141.862 407.129,163.191 " fill="none" id="ConsultarOrdensProducaoEstadoController&lt;-ConsultarOrdensProducaoEstadoUI" style="stroke: #A80036; stroke-width: 1.0;"/><polygon fill="#A80036" points="476.908,80.327,468.0514,84.6353,473.6876,84.1518,474.1711,89.7879,476.908,80.327" style="stroke: #A80036; stroke-width: 1.0;"/><text fill="#000000" font-family="sans-serif" font-size="13" lengthAdjust="spacingAndGlyphs" textLength="44" x="452.5" y="123.0669">chama</text><text fill="#000000" font-family="sans-serif" font-size="13" lengthAdjust="spacingAndGlyphs" textLength="8" x="463.3949" y="99.5799">1</text><text fill="#000000" font-family="sans-serif" font-size="13" lengthAdjust="spacingAndGlyphs" textLength="8" x="402.9386" y="152.5206">1</text><!--MD5=[f83cd036216ab50f9f09708488366ee7]
link ConsultarOrdensProducaoEstadoController to OrdemProducaoStatus--><path d="M538.092,80.327 C556.918,102.684 580.877,131.136 599.254,152.958 " fill="none" id="ConsultarOrdensProducaoEstadoController-&gt;OrdemProducaoStatus" style="stroke: #A80036; stroke-width: 1.0;"/><polygon fill="#A80036" points="602.618,156.952,599.8807,147.4912,599.3975,153.1273,593.7613,152.644,602.618,156.952" style="stroke: #A80036; stroke-width: 1.0;"/><text fill="#000000" font-family="sans-serif" font-size="13" lengthAdjust="spacingAndGlyphs" textLength="44" x="576.5" y="123.0669">chama</text><text fill="#000000" font-family="sans-serif" font-size="13" lengthAdjust="spacingAndGlyphs" textLength="8" x="534.3301" y="99.5799">1</text><text fill="#000000" font-family="sans-serif" font-size="13" lengthAdjust="spacingAndGlyphs" textLength="8" x="588.3001" y="145.7318">1</text><!--MD5=[864f782a40d839d2f65997aca7b2e0b9]
link ConsultarOrdensProducaoEstadoController to OrdemProducaoRepository--><path d="M409.088,80.051 C345.927,103.188 264.713,132.939 204.206,155.104 " fill="none" id="ConsultarOrdensProducaoEstadoController-&gt;OrdemProducaoRepository" style="stroke: #A80036; stroke-width: 1.0;"/><polygon fill="#A80036" points="199.153,156.955,208.9798,157.6145,203.8478,155.2348,206.2275,150.1028,199.153,156.955" style="stroke: #A80036; stroke-width: 1.0;"/><text fill="#000000" font-family="sans-serif" font-size="13" lengthAdjust="spacingAndGlyphs" textLength="44" x="326.5" y="123.0669">chama</text><text fill="#000000" font-family="sans-serif" font-size="13" lengthAdjust="spacingAndGlyphs" textLength="8" x="384.126" y="99.54">1</text><text fill="#000000" font-family="sans-serif" font-size="13" lengthAdjust="spacingAndGlyphs" textLength="8" x="207.9208" y="145.7354">1</text><!--MD5=[67e5cc72e386f96087122153827b5e8c]
link ConsultarOrdensProducaoEstadoController to OrdemProducaoReportingService--><path d="M597.794,80.143 C655.482,103.234 729.555,132.885 784.831,155.01 " fill="none" id="ConsultarOrdensProducaoEstadoController-&gt;OrdemProducaoReportingService" style="stroke: #A80036; stroke-width: 1.0;"/><polygon fill="#A80036" points="789.783,156.993,782.9149,149.934,785.1413,155.1343,779.941,157.3607,789.783,156.993" style="stroke: #A80036; stroke-width: 1.0;"/><text fill="#000000" font-family="sans-serif" font-size="13" lengthAdjust="spacingAndGlyphs" textLength="44" x="708.5" y="123.0669">chama</text><text fill="#000000" font-family="sans-serif" font-size="13" lengthAdjust="spacingAndGlyphs" textLength="8" x="604.0864" y="99.6472">1</text><text fill="#000000" font-family="sans-serif" font-size="13" lengthAdjust="spacingAndGlyphs" textLength="8" x="764.7824" y="145.7818">1</text><!--MD5=[d1b8e92da80d5f40dfbafbad974e3bc7]
link OrdemProducaoRepository to OrdemProducao--><path d="M118.5,218.21 C118.5,239.688 118.5,268.5266 118.5,289.678 " fill="none" id="OrdemProducaoRepository-&gt;OrdemProducao" style="stroke: #A80036; stroke-width: 1.0;"/><polygon fill="#A80036" points="118.5,294.8807,122.5,285.8807,118.5,289.8807,114.5,285.8807,118.5,294.8807" style="stroke: #A80036; stroke-width: 1.0;"/><text fill="#000000" font-family="sans-serif" font-size="13" lengthAdjust="spacingAndGlyphs" textLength="51" x="119.5" y="261.0669">persiste</text><text fill="#000000" font-family="sans-serif" font-size="13" lengthAdjust="spacingAndGlyphs" textLength="8" x="109.7125" y="237.8318">1</text><text fill="#000000" font-family="sans-serif" font-size="13" lengthAdjust="spacingAndGlyphs" textLength="37" x="76.7594" y="283.8622">many</text><!--MD5=[104b57d7bb12acfc235381259716f8a5]
@startuml
interface OrdemProducaoRepository

ConsultarOrdensProducaoEstadoController "1" <- - "1" ConsultarOrdensProducaoEstadoUI: chama
ConsultarOrdensProducaoEstadoController "1" - -> "1" OrdemProducaoStatus: chama
ConsultarOrdensProducaoEstadoController "1" - -> "1" OrdemProducaoRepository: chama
ConsultarOrdensProducaoEstadoController "1" - -> "1" OrdemProducaoReportingService: chama
OrdemProducaoRepository "1" - -> "many" OrdemProducao: persiste

ConsultarOrdensProducaoEstadoController : mostrarEstadosOrdemProducao()
ConsultarOrdensProducaoEstadoController : listarOrdensProducaoEstado(estado)

OrdemProducaoStatus : values()

OrdemProducaoRepository : findOrdensProducaoByEstado(estado)

OrdemProducaoReportingService : listarOrdemProducao(ordem)
@enduml

PlantUML version 1.2020.12(Sat Jun 06 10:54:15 UTC 2020)
(GPL source distribution)
Java Runtime: Java(TM) SE Runtime Environment
JVM: Java HotSpot(TM) 64-Bit Server VM
Default Encoding: UTF-8
Language: en
Country: US
--></g></svg>