<?xml version="1.0" encoding="UTF-8" standalone="no"?><svg xmlns="http://www.w3.org/2000/svg" xmlns:xlink="http://www.w3.org/1999/xlink" contentScriptType="application/ecmascript" contentStyleType="text/css" height="1009px" preserveAspectRatio="none" style="width:698px;height:1009px;" version="1.1" viewBox="0 0 698 1009" width="698px" zoomAndPan="magnify"><defs><filter height="300%" id="f2w85uls7h0h9" width="300%" x="-1" y="-1"><feGaussianBlur result="blurOut" stdDeviation="2.0"/><feColorMatrix in="blurOut" result="blurOut2" type="matrix" values="0 0 0 0 0 0 0 0 0 0 0 0 0 0 0 0 0 0 .4 0"/><feOffset dx="4.0" dy="4.0" in="blurOut2" result="blurOut3"/><feBlend in="SourceGraphic" in2="blurOut3" mode="normal"/></filter></defs><g><!--MD5=[48590afff58a68e2fcba47824d6f8a11]
class RepositoryFactory--><rect fill="#FEFECE" filter="url(#f2w85uls7h0h9)" height="60.8047" id="RepositoryFactory" style="stroke: #A80036; stroke-width: 1.5;" width="140" x="232.5" y="460"/><ellipse cx="247.5" cy="476" fill="#B4A7E5" rx="11" ry="11" style="stroke: #A80036; stroke-width: 1.0;"/><path d="M248.4531,472.7813 L250.1719,472.7813 C250.5625,472.7813 250.75,472.75 250.875,472.6719 C251.1406,472.5156 251.2813,472.2344 251.2813,471.9375 C251.2813,471.6719 251.1719,471.4063 250.9375,471.2344 C250.7656,471.125 250.625,471.0938 250.1719,471.0938 L245.0313,471.0938 C244.5938,471.0938 244.4688,471.1094 244.3125,471.2031 C244.0625,471.3594 243.9063,471.6563 243.9063,471.9375 C243.9063,472.2188 244.0469,472.4688 244.2656,472.6406 C244.4219,472.75 244.6094,472.7813 245.0313,472.7813 L246.75,472.7813 L246.75,479.2969 L245.0313,479.2969 C244.5938,479.2969 244.4688,479.3125 244.3125,479.4219 C244.0625,479.5781 243.9063,479.8594 243.9063,480.1563 C243.9063,480.4063 244.0469,480.6719 244.2656,480.8281 C244.4219,480.9531 244.625,481 245.0313,481 L250.1719,481 C250.9219,481 251.2813,480.7188 251.2813,480.1563 C251.2813,479.875 251.1719,479.625 250.9375,479.4531 C250.7656,479.3281 250.625,479.2969 250.1719,479.2969 L248.4531,479.2969 L248.4531,472.7813 Z "/><text fill="#000000" font-family="sans-serif" font-size="12" font-style="italic" lengthAdjust="spacingAndGlyphs" textLength="108" x="261.5" y="480.1543">RepositoryFactory</text><line style="stroke: #A80036; stroke-width: 1.5;" x1="233.5" x2="371.5" y1="492" y2="492"/><line style="stroke: #A80036; stroke-width: 1.5;" x1="233.5" x2="371.5" y1="500" y2="500"/><text fill="#000000" font-family="sans-serif" font-size="11" lengthAdjust="spacingAndGlyphs" textLength="45" x="238.5" y="514.2104">create()</text><!--MD5=[9dc4f8bfc61e7da6ce1d1ba00073686b]
class ProdutoRepository--><rect fill="#FEFECE" filter="url(#f2w85uls7h0h9)" height="60.8047" id="ProdutoRepository" style="stroke: #A80036; stroke-width: 1.5;" width="145" x="181" y="598"/><ellipse cx="197.35" cy="614" fill="#B4A7E5" rx="11" ry="11" style="stroke: #A80036; stroke-width: 1.0;"/><path d="M198.3031,610.7813 L200.0219,610.7813 C200.4125,610.7813 200.6,610.75 200.725,610.6719 C200.9906,610.5156 201.1313,610.2344 201.1313,609.9375 C201.1313,609.6719 201.0219,609.4063 200.7875,609.2344 C200.6156,609.125 200.475,609.0938 200.0219,609.0938 L194.8813,609.0938 C194.4438,609.0938 194.3188,609.1094 194.1625,609.2031 C193.9125,609.3594 193.7563,609.6563 193.7563,609.9375 C193.7563,610.2188 193.8969,610.4688 194.1156,610.6406 C194.2719,610.75 194.4594,610.7813 194.8813,610.7813 L196.6,610.7813 L196.6,617.2969 L194.8813,617.2969 C194.4438,617.2969 194.3188,617.3125 194.1625,617.4219 C193.9125,617.5781 193.7563,617.8594 193.7563,618.1563 C193.7563,618.4063 193.8969,618.6719 194.1156,618.8281 C194.2719,618.9531 194.475,619 194.8813,619 L200.0219,619 C200.7719,619 201.1313,618.7188 201.1313,618.1563 C201.1313,617.875 201.0219,617.625 200.7875,617.4531 C200.6156,617.3281 200.475,617.2969 200.0219,617.2969 L198.3031,617.2969 L198.3031,610.7813 Z "/><text fill="#000000" font-family="sans-serif" font-size="12" font-style="italic" lengthAdjust="spacingAndGlyphs" textLength="110" x="211.65" y="618.1543">ProdutoRepository</text><line style="stroke: #A80036; stroke-width: 1.5;" x1="182" x2="325" y1="630" y2="630"/><line style="stroke: #A80036; stroke-width: 1.5;" x1="182" x2="325" y1="638" y2="638"/><text fill="#000000" font-family="sans-serif" font-size="11" lengthAdjust="spacingAndGlyphs" textLength="133" x="187" y="652.2104">findProdutosSemFicha()</text><!--MD5=[de2d739f48fc0fce1ad5ee6630bc7ce3]
class MateriaPrimaRepository--><rect fill="#FEFECE" filter="url(#f2w85uls7h0h9)" height="60.8047" id="MateriaPrimaRepository" style="stroke: #A80036; stroke-width: 1.5;" width="173" x="361" y="598"/><ellipse cx="376" cy="614" fill="#B4A7E5" rx="11" ry="11" style="stroke: #A80036; stroke-width: 1.0;"/><path d="M376.9531,610.7813 L378.6719,610.7813 C379.0625,610.7813 379.25,610.75 379.375,610.6719 C379.6406,610.5156 379.7813,610.2344 379.7813,609.9375 C379.7813,609.6719 379.6719,609.4063 379.4375,609.2344 C379.2656,609.125 379.125,609.0938 378.6719,609.0938 L373.5313,609.0938 C373.0938,609.0938 372.9688,609.1094 372.8125,609.2031 C372.5625,609.3594 372.4063,609.6563 372.4063,609.9375 C372.4063,610.2188 372.5469,610.4688 372.7656,610.6406 C372.9219,610.75 373.1094,610.7813 373.5313,610.7813 L375.25,610.7813 L375.25,617.2969 L373.5313,617.2969 C373.0938,617.2969 372.9688,617.3125 372.8125,617.4219 C372.5625,617.5781 372.4063,617.8594 372.4063,618.1563 C372.4063,618.4063 372.5469,618.6719 372.7656,618.8281 C372.9219,618.9531 373.125,619 373.5313,619 L378.6719,619 C379.4219,619 379.7813,618.7188 379.7813,618.1563 C379.7813,617.875 379.6719,617.625 379.4375,617.4531 C379.2656,617.3281 379.125,617.2969 378.6719,617.2969 L376.9531,617.2969 L376.9531,610.7813 Z "/><text fill="#000000" font-family="sans-serif" font-size="12" font-style="italic" lengthAdjust="spacingAndGlyphs" textLength="141" x="390" y="618.1543">MateriaPrimaRepository</text><line style="stroke: #A80036; stroke-width: 1.5;" x1="362" x2="533" y1="630" y2="630"/><line style="stroke: #A80036; stroke-width: 1.5;" x1="362" x2="533" y1="638" y2="638"/><text fill="#000000" font-family="sans-serif" font-size="11" lengthAdjust="spacingAndGlyphs" textLength="43" x="367" y="652.2104">findAll()</text><!--MD5=[4451f2d717728bb3e6c05e2818a4845c]
class EspecificarFichaProducaoController--><rect fill="#FEFECE" filter="url(#f2w85uls7h0h9)" height="86.4141" id="EspecificarFichaProducaoController" style="stroke: #A80036; stroke-width: 1.5;" width="464" x="98.5" y="8"/><ellipse cx="220.25" cy="24" fill="#ADD1B2" rx="11" ry="11" style="stroke: #A80036; stroke-width: 1.0;"/><path d="M222.5938,19.6719 C221.6563,19.2344 221.0625,19.0938 220.1875,19.0938 C217.5625,19.0938 215.5625,21.1719 215.5625,23.8906 L215.5625,25.0156 C215.5625,27.5938 217.6719,29.4844 220.5625,29.4844 C221.7813,29.4844 222.9375,29.1875 223.6875,28.6406 C224.2656,28.2344 224.5938,27.7813 224.5938,27.3906 C224.5938,26.9375 224.2031,26.5469 223.7344,26.5469 C223.5156,26.5469 223.3125,26.625 223.125,26.8125 C222.6719,27.2969 222.6719,27.2969 222.4844,27.3906 C222.0625,27.6563 221.375,27.7813 220.6094,27.7813 C218.5625,27.7813 217.2656,26.6875 217.2656,24.9844 L217.2656,23.8906 C217.2656,22.1094 218.5156,20.7969 220.25,20.7969 C220.8281,20.7969 221.4375,20.9531 221.9063,21.2031 C222.3906,21.4844 222.5625,21.7031 222.6563,22.1094 C222.7188,22.5156 222.75,22.6406 222.8906,22.7656 C223.0313,22.9063 223.2656,23.0156 223.4844,23.0156 C223.75,23.0156 224.0156,22.875 224.1875,22.6563 C224.2969,22.5 224.3281,22.3125 224.3281,21.8906 L224.3281,20.4688 C224.3281,20.0313 224.3125,19.9063 224.2188,19.75 C224.0625,19.4844 223.7813,19.3438 223.4844,19.3438 C223.1875,19.3438 222.9844,19.4375 222.7656,19.75 L222.5938,19.6719 Z "/><text fill="#000000" font-family="sans-serif" font-size="12" lengthAdjust="spacingAndGlyphs" textLength="212" x="240.75" y="28.1543">EspecificarFichaProducaoController</text><line style="stroke: #A80036; stroke-width: 1.5;" x1="99.5" x2="561.5" y1="40" y2="40"/><line style="stroke: #A80036; stroke-width: 1.5;" x1="99.5" x2="561.5" y1="48" y2="48"/><text fill="#000000" font-family="sans-serif" font-size="11" lengthAdjust="spacingAndGlyphs" textLength="181" x="104.5" y="62.2104">mostrarListaProdutosSemFicha()</text><text fill="#000000" font-family="sans-serif" font-size="11" lengthAdjust="spacingAndGlyphs" textLength="162" x="104.5" y="75.0151">mostrarListaMateriasPrimas()</text><text fill="#000000" font-family="sans-serif" font-size="11" lengthAdjust="spacingAndGlyphs" textLength="452" x="104.5" y="87.8198">registarFichaProducao(idFichaProducao,produto,listaProdutos,listaMateriasPrimas)</text><!--MD5=[3211ff633d599aace0345fbaafb9e9f4]
class EspecificarFichaProducaoUI--><rect fill="#FEFECE" filter="url(#f2w85uls7h0h9)" height="48" id="EspecificarFichaProducaoUI" style="stroke: #A80036; stroke-width: 1.5;" width="197" x="6" y="184"/><ellipse cx="21" cy="200" fill="#ADD1B2" rx="11" ry="11" style="stroke: #A80036; stroke-width: 1.0;"/><path d="M23.3438,195.6719 C22.4063,195.2344 21.8125,195.0938 20.9375,195.0938 C18.3125,195.0938 16.3125,197.1719 16.3125,199.8906 L16.3125,201.0156 C16.3125,203.5938 18.4219,205.4844 21.3125,205.4844 C22.5313,205.4844 23.6875,205.1875 24.4375,204.6406 C25.0156,204.2344 25.3438,203.7813 25.3438,203.3906 C25.3438,202.9375 24.9531,202.5469 24.4844,202.5469 C24.2656,202.5469 24.0625,202.625 23.875,202.8125 C23.4219,203.2969 23.4219,203.2969 23.2344,203.3906 C22.8125,203.6563 22.125,203.7813 21.3594,203.7813 C19.3125,203.7813 18.0156,202.6875 18.0156,200.9844 L18.0156,199.8906 C18.0156,198.1094 19.2656,196.7969 21,196.7969 C21.5781,196.7969 22.1875,196.9531 22.6563,197.2031 C23.1406,197.4844 23.3125,197.7031 23.4063,198.1094 C23.4688,198.5156 23.5,198.6406 23.6406,198.7656 C23.7813,198.9063 24.0156,199.0156 24.2344,199.0156 C24.5,199.0156 24.7656,198.875 24.9375,198.6563 C25.0469,198.5 25.0781,198.3125 25.0781,197.8906 L25.0781,196.4688 C25.0781,196.0313 25.0625,195.9063 24.9688,195.75 C24.8125,195.4844 24.5313,195.3438 24.2344,195.3438 C23.9375,195.3438 23.7344,195.4375 23.5156,195.75 L23.3438,195.6719 Z "/><text fill="#000000" font-family="sans-serif" font-size="12" lengthAdjust="spacingAndGlyphs" textLength="165" x="35" y="204.1543">EspecificarFichaProducaoUI</text><line style="stroke: #A80036; stroke-width: 1.5;" x1="7" x2="202" y1="216" y2="216"/><line style="stroke: #A80036; stroke-width: 1.5;" x1="7" x2="202" y1="224" y2="224"/><!--MD5=[e8c189551b7885b999ad7cefb30fc2a3]
class PersistenceContext--><rect fill="#FEFECE" filter="url(#f2w85uls7h0h9)" height="60.8047" id="PersistenceContext" style="stroke: #A80036; stroke-width: 1.5;" width="148" x="228.5" y="322"/><ellipse cx="243.5" cy="338" fill="#ADD1B2" rx="11" ry="11" style="stroke: #A80036; stroke-width: 1.0;"/><path d="M245.8438,333.6719 C244.9063,333.2344 244.3125,333.0938 243.4375,333.0938 C240.8125,333.0938 238.8125,335.1719 238.8125,337.8906 L238.8125,339.0156 C238.8125,341.5938 240.9219,343.4844 243.8125,343.4844 C245.0313,343.4844 246.1875,343.1875 246.9375,342.6406 C247.5156,342.2344 247.8438,341.7813 247.8438,341.3906 C247.8438,340.9375 247.4531,340.5469 246.9844,340.5469 C246.7656,340.5469 246.5625,340.625 246.375,340.8125 C245.9219,341.2969 245.9219,341.2969 245.7344,341.3906 C245.3125,341.6563 244.625,341.7813 243.8594,341.7813 C241.8125,341.7813 240.5156,340.6875 240.5156,338.9844 L240.5156,337.8906 C240.5156,336.1094 241.7656,334.7969 243.5,334.7969 C244.0781,334.7969 244.6875,334.9531 245.1563,335.2031 C245.6406,335.4844 245.8125,335.7031 245.9063,336.1094 C245.9688,336.5156 246,336.6406 246.1406,336.7656 C246.2813,336.9063 246.5156,337.0156 246.7344,337.0156 C247,337.0156 247.2656,336.875 247.4375,336.6563 C247.5469,336.5 247.5781,336.3125 247.5781,335.8906 L247.5781,334.4688 C247.5781,334.0313 247.5625,333.9063 247.4688,333.75 C247.3125,333.4844 247.0313,333.3438 246.7344,333.3438 C246.4375,333.3438 246.2344,333.4375 246.0156,333.75 L245.8438,333.6719 Z "/><text fill="#000000" font-family="sans-serif" font-size="12" lengthAdjust="spacingAndGlyphs" textLength="116" x="257.5" y="342.1543">PersistenceContext</text><line style="stroke: #A80036; stroke-width: 1.5;" x1="229.5" x2="375.5" y1="354" y2="354"/><line style="stroke: #A80036; stroke-width: 1.5;" x1="229.5" x2="375.5" y1="362" y2="362"/><text fill="#000000" font-family="sans-serif" font-size="11" lengthAdjust="spacingAndGlyphs" textLength="75" x="234.5" y="376.2104">repositories()</text><!--MD5=[861ec4bc1fd632a57868a639b6029c7f]
class ListItensService--><rect fill="#FEFECE" filter="url(#f2w85uls7h0h9)" height="73.6094" id="ListItensService" style="stroke: #A80036; stroke-width: 1.5;" width="180" x="354.5" y="171"/><ellipse cx="393.35" cy="187" fill="#ADD1B2" rx="11" ry="11" style="stroke: #A80036; stroke-width: 1.0;"/><path d="M395.6938,182.6719 C394.7563,182.2344 394.1625,182.0938 393.2875,182.0938 C390.6625,182.0938 388.6625,184.1719 388.6625,186.8906 L388.6625,188.0156 C388.6625,190.5938 390.7719,192.4844 393.6625,192.4844 C394.8813,192.4844 396.0375,192.1875 396.7875,191.6406 C397.3656,191.2344 397.6938,190.7813 397.6938,190.3906 C397.6938,189.9375 397.3031,189.5469 396.8344,189.5469 C396.6156,189.5469 396.4125,189.625 396.225,189.8125 C395.7719,190.2969 395.7719,190.2969 395.5844,190.3906 C395.1625,190.6563 394.475,190.7813 393.7094,190.7813 C391.6625,190.7813 390.3656,189.6875 390.3656,187.9844 L390.3656,186.8906 C390.3656,185.1094 391.6156,183.7969 393.35,183.7969 C393.9281,183.7969 394.5375,183.9531 395.0063,184.2031 C395.4906,184.4844 395.6625,184.7031 395.7563,185.1094 C395.8188,185.5156 395.85,185.6406 395.9906,185.7656 C396.1313,185.9063 396.3656,186.0156 396.5844,186.0156 C396.85,186.0156 397.1156,185.875 397.2875,185.6563 C397.3969,185.5 397.4281,185.3125 397.4281,184.8906 L397.4281,183.4688 C397.4281,183.0313 397.4125,182.9063 397.3188,182.75 C397.1625,182.4844 396.8813,182.3438 396.5844,182.3438 C396.2875,182.3438 396.0844,182.4375 395.8656,182.75 L395.6938,182.6719 Z "/><text fill="#000000" font-family="sans-serif" font-size="12" lengthAdjust="spacingAndGlyphs" textLength="95" x="412.65" y="191.1543">ListItensService</text><line style="stroke: #A80036; stroke-width: 1.5;" x1="355.5" x2="533.5" y1="203" y2="203"/><line style="stroke: #A80036; stroke-width: 1.5;" x1="355.5" x2="533.5" y1="211" y2="211"/><text fill="#000000" font-family="sans-serif" font-size="11" lengthAdjust="spacingAndGlyphs" textLength="168" x="360.5" y="225.2104">obterListaProdutosSemFicha()</text><text fill="#000000" font-family="sans-serif" font-size="11" lengthAdjust="spacingAndGlyphs" textLength="149" x="360.5" y="238.0151">obterListaMateriasPrimas()</text><!--MD5=[8196f9acf37760200bcacf3eeed63caa]
class FichaProducao--><rect fill="#FEFECE" filter="url(#f2w85uls7h0h9)" height="73.6094" id="FichaProducao" style="stroke: #A80036; stroke-width: 1.5;" width="332" x="355.5" y="925"/><ellipse cx="473.75" cy="941" fill="#ADD1B2" rx="11" ry="11" style="stroke: #A80036; stroke-width: 1.0;"/><path d="M476.0938,936.6719 C475.1563,936.2344 474.5625,936.0938 473.6875,936.0938 C471.0625,936.0938 469.0625,938.1719 469.0625,940.8906 L469.0625,942.0156 C469.0625,944.5938 471.1719,946.4844 474.0625,946.4844 C475.2813,946.4844 476.4375,946.1875 477.1875,945.6406 C477.7656,945.2344 478.0938,944.7813 478.0938,944.3906 C478.0938,943.9375 477.7031,943.5469 477.2344,943.5469 C477.0156,943.5469 476.8125,943.625 476.625,943.8125 C476.1719,944.2969 476.1719,944.2969 475.9844,944.3906 C475.5625,944.6563 474.875,944.7813 474.1094,944.7813 C472.0625,944.7813 470.7656,943.6875 470.7656,941.9844 L470.7656,940.8906 C470.7656,939.1094 472.0156,937.7969 473.75,937.7969 C474.3281,937.7969 474.9375,937.9531 475.4063,938.2031 C475.8906,938.4844 476.0625,938.7031 476.1563,939.1094 C476.2188,939.5156 476.25,939.6406 476.3906,939.7656 C476.5313,939.9063 476.7656,940.0156 476.9844,940.0156 C477.25,940.0156 477.5156,939.875 477.6875,939.6563 C477.7969,939.5 477.8281,939.3125 477.8281,938.8906 L477.8281,937.4688 C477.8281,937.0313 477.8125,936.9063 477.7188,936.75 C477.5625,936.4844 477.2813,936.3438 476.9844,936.3438 C476.6875,936.3438 476.4844,936.4375 476.2656,936.75 L476.0938,936.6719 Z "/><text fill="#000000" font-family="sans-serif" font-size="12" lengthAdjust="spacingAndGlyphs" textLength="87" x="494.25" y="945.1543">FichaProducao</text><line style="stroke: #A80036; stroke-width: 1.5;" x1="356.5" x2="686.5" y1="957" y2="957"/><text fill="#000000" font-family="sans-serif" font-size="11" lengthAdjust="spacingAndGlyphs" textLength="90" x="361.5" y="971.2104">idFichaProducao</text><line style="stroke: #A80036; stroke-width: 1.5;" x1="356.5" x2="686.5" y1="977.8047" y2="977.8047"/><text fill="#000000" font-family="sans-serif" font-size="11" lengthAdjust="spacingAndGlyphs" textLength="320" x="361.5" y="992.0151">create(idFichaProducao,listaProdutos,listaMateriasPrimas)</text><!--MD5=[d4dacc50d49878ba7c621dfc80a2e1ce]
class Produto--><rect fill="#FEFECE" filter="url(#f2w85uls7h0h9)" height="112.0234" id="Produto" style="stroke: #A80036; stroke-width: 1.5;" width="178" x="308.5" y="736"/><ellipse cx="370.25" cy="752" fill="#ADD1B2" rx="11" ry="11" style="stroke: #A80036; stroke-width: 1.0;"/><path d="M372.5938,747.6719 C371.6563,747.2344 371.0625,747.0938 370.1875,747.0938 C367.5625,747.0938 365.5625,749.1719 365.5625,751.8906 L365.5625,753.0156 C365.5625,755.5938 367.6719,757.4844 370.5625,757.4844 C371.7813,757.4844 372.9375,757.1875 373.6875,756.6406 C374.2656,756.2344 374.5938,755.7813 374.5938,755.3906 C374.5938,754.9375 374.2031,754.5469 373.7344,754.5469 C373.5156,754.5469 373.3125,754.625 373.125,754.8125 C372.6719,755.2969 372.6719,755.2969 372.4844,755.3906 C372.0625,755.6563 371.375,755.7813 370.6094,755.7813 C368.5625,755.7813 367.2656,754.6875 367.2656,752.9844 L367.2656,751.8906 C367.2656,750.1094 368.5156,748.7969 370.25,748.7969 C370.8281,748.7969 371.4375,748.9531 371.9063,749.2031 C372.3906,749.4844 372.5625,749.7031 372.6563,750.1094 C372.7188,750.5156 372.75,750.6406 372.8906,750.7656 C373.0313,750.9063 373.2656,751.0156 373.4844,751.0156 C373.75,751.0156 374.0156,750.875 374.1875,750.6563 C374.2969,750.5 374.3281,750.3125 374.3281,749.8906 L374.3281,748.4688 C374.3281,748.0313 374.3125,747.9063 374.2188,747.75 C374.0625,747.4844 373.7813,747.3438 373.4844,747.3438 C373.1875,747.3438 372.9844,747.4375 372.7656,747.75 L372.5938,747.6719 Z "/><text fill="#000000" font-family="sans-serif" font-size="12" lengthAdjust="spacingAndGlyphs" textLength="46" x="390.75" y="756.1543">Produto</text><line style="stroke: #A80036; stroke-width: 1.5;" x1="309.5" x2="485.5" y1="768" y2="768"/><text fill="#000000" font-family="sans-serif" font-size="11" lengthAdjust="spacingAndGlyphs" textLength="77" x="314.5" y="782.2104">codigoFabrico</text><text fill="#000000" font-family="sans-serif" font-size="11" lengthAdjust="spacingAndGlyphs" textLength="94" x="314.5" y="795.0151">codigoComercial</text><text fill="#000000" font-family="sans-serif" font-size="11" lengthAdjust="spacingAndGlyphs" textLength="89" x="314.5" y="807.8198">descricaoBreve</text><text fill="#000000" font-family="sans-serif" font-size="11" lengthAdjust="spacingAndGlyphs" textLength="109" x="314.5" y="820.6245">descricaoCompleta</text><line style="stroke: #A80036; stroke-width: 1.5;" x1="309.5" x2="485.5" y1="827.2188" y2="827.2188"/><text fill="#000000" font-family="sans-serif" font-size="11" lengthAdjust="spacingAndGlyphs" textLength="166" x="314.5" y="841.4292">adicionarFichaProducao(ficha)</text><!--MD5=[92fb6b37391a7fee787571f35728210e]
reverse link EspecificarFichaProducaoController to EspecificarFichaProducaoUI--><path d="M244.621,96.78 C229.925,105.328 215.041,114.567 201.5,124 C175.311,142.242 147.894,166.224 128.916,183.716 " fill="none" id="EspecificarFichaProducaoController&lt;-EspecificarFichaProducaoUI" style="stroke: #A80036; stroke-width: 1.0;"/><polygon fill="#A80036" points="249.174,94.15,239.38,95.1884,244.8445,96.6511,243.3818,102.1156,249.174,94.15" style="stroke: #A80036; stroke-width: 1.0;"/><text fill="#000000" font-family="sans-serif" font-size="13" lengthAdjust="spacingAndGlyphs" textLength="44" x="202.5" y="137.0669">chama</text><text fill="#000000" font-family="sans-serif" font-size="13" lengthAdjust="spacingAndGlyphs" textLength="8" x="227.0419" y="114.5825">1</text><text fill="#000000" font-family="sans-serif" font-size="13" lengthAdjust="spacingAndGlyphs" textLength="8" x="125.8924" y="173.0517">1</text><!--MD5=[1f40dcca5daf3f1febf3dcda1c2c6062]
link EspecificarFichaProducaoController to PersistenceContext--><path d="M312.623,94.111 C304.078,116.502 294.792,144.758 290.5,171 C282.285,221.22 289.277,280.178 295.516,316.694 " fill="none" id="EspecificarFichaProducaoController-&gt;PersistenceContext" style="stroke: #A80036; stroke-width: 1.0;"/><polygon fill="#A80036" points="296.429,321.915,298.8188,312.3605,295.5677,316.9898,290.9384,313.7386,296.429,321.915" style="stroke: #A80036; stroke-width: 1.0;"/><text fill="#000000" font-family="sans-serif" font-size="13" lengthAdjust="spacingAndGlyphs" textLength="44" x="291.5" y="212.5669">chama</text><text fill="#000000" font-family="sans-serif" font-size="13" lengthAdjust="spacingAndGlyphs" textLength="8" x="300.9996" y="114.5371">1</text><text fill="#000000" font-family="sans-serif" font-size="13" lengthAdjust="spacingAndGlyphs" textLength="8" x="286.3519" y="311.1607">1</text><!--MD5=[2dbeefd34896497e620c535412a73020]
link EspecificarFichaProducaoController to ListItensService--><path d="M361.651,94.354 C378.221,116.884 398.49,144.442 414.831,166.661 " fill="none" id="EspecificarFichaProducaoController-&gt;ListItensService" style="stroke: #A80036; stroke-width: 1.0;"/><polygon fill="#A80036" points="417.835,170.745,415.7234,161.1252,414.8719,166.7176,409.2795,165.8661,417.835,170.745" style="stroke: #A80036; stroke-width: 1.0;"/><text fill="#000000" font-family="sans-serif" font-size="13" lengthAdjust="spacingAndGlyphs" textLength="44" x="395.5" y="137.0669">chama</text><text fill="#000000" font-family="sans-serif" font-size="13" lengthAdjust="spacingAndGlyphs" textLength="8" x="357.9782" y="114.5033">1</text><text fill="#000000" font-family="sans-serif" font-size="13" lengthAdjust="spacingAndGlyphs" textLength="8" x="404.3728" y="159.8865">1</text><!--MD5=[75b2f1bcc146a99d1033f65dd202c79e]
link ListItensService to PersistenceContext--><path d="M408.3,245.327 C385.929,267.777 357.435,296.372 335.654,318.229 " fill="none" id="ListItensService-&gt;PersistenceContext" style="stroke: #A80036; stroke-width: 1.0;"/><polygon fill="#A80036" points="331.944,321.952,341.1307,318.4016,335.4738,318.4108,335.4647,312.7539,331.944,321.952" style="stroke: #A80036; stroke-width: 1.0;"/><text fill="#000000" font-family="sans-serif" font-size="13" lengthAdjust="spacingAndGlyphs" textLength="44" x="379.5" y="288.0669">chama</text><text fill="#000000" font-family="sans-serif" font-size="13" lengthAdjust="spacingAndGlyphs" textLength="8" x="393.8931" y="264.5799">1</text><text fill="#000000" font-family="sans-serif" font-size="13" lengthAdjust="spacingAndGlyphs" textLength="8" x="329.5099" y="310.7318">1</text><!--MD5=[754b775031405e096442b27febffa290]
link PersistenceContext to RepositoryFactory--><path d="M302.5,383.01 C302.5,403.984 302.5,432.243 302.5,454.379 " fill="none" id="PersistenceContext-&gt;RepositoryFactory" style="stroke: #A80036; stroke-width: 1.0;"/><polygon fill="#A80036" points="302.5,459.578,306.5,450.578,302.5,454.578,298.5,450.578,302.5,459.578" style="stroke: #A80036; stroke-width: 1.0;"/><text fill="#000000" font-family="sans-serif" font-size="13" lengthAdjust="spacingAndGlyphs" textLength="44" x="303.5" y="426.0669">chama</text><text fill="#000000" font-family="sans-serif" font-size="13" lengthAdjust="spacingAndGlyphs" textLength="8" x="293.675" y="402.9503">1</text><text fill="#000000" font-family="sans-serif" font-size="13" lengthAdjust="spacingAndGlyphs" textLength="8" x="293.675" y="448.7542">1</text><!--MD5=[39049bfe3ad4c4a1adb36f6937e6751c]
link RepositoryFactory to ProdutoRepository--><path d="M291.868,521.01 C284.279,542.073 274.044,570.481 266.053,592.659 " fill="none" id="RepositoryFactory-&gt;ProdutoRepository" style="stroke: #A80036; stroke-width: 1.0;"/><polygon fill="#A80036" points="264.281,597.578,271.094,590.4658,265.9753,592.8738,263.5673,587.755,264.281,597.578" style="stroke: #A80036; stroke-width: 1.0;"/><text fill="#000000" font-family="sans-serif" font-size="13" lengthAdjust="spacingAndGlyphs" textLength="23" x="282.5" y="564.0669">cria</text><text fill="#000000" font-family="sans-serif" font-size="13" lengthAdjust="spacingAndGlyphs" textLength="8" x="280.8502" y="540.9503">1</text><text fill="#000000" font-family="sans-serif" font-size="13" lengthAdjust="spacingAndGlyphs" textLength="8" x="257.6796" y="586.7542">1</text><!--MD5=[92966057fc5e280aa59868f0931b55bb]
link RepositoryFactory to MateriaPrimaRepository--><path d="M333.963,521.01 C356.97,542.589 388.198,571.879 412.081,594.279 " fill="none" id="RepositoryFactory-&gt;MateriaPrimaRepository" style="stroke: #A80036; stroke-width: 1.0;"/><polygon fill="#A80036" points="415.849,597.813,412.0219,588.7381,412.2024,594.3921,406.5485,594.5726,415.849,597.813" style="stroke: #A80036; stroke-width: 1.0;"/><text fill="#000000" font-family="sans-serif" font-size="13" lengthAdjust="spacingAndGlyphs" textLength="23" x="385.5" y="564.0669">cria</text><text fill="#000000" font-family="sans-serif" font-size="13" lengthAdjust="spacingAndGlyphs" textLength="8" x="331.6272" y="540.9503">1</text><text fill="#000000" font-family="sans-serif" font-size="13" lengthAdjust="spacingAndGlyphs" textLength="8" x="400.496" y="587.0377">1</text><!--MD5=[0398ce457e0750bec91684f0cf83ee7d]
link EspecificarFichaProducaoController to FichaProducao--><path d="M495.443,94.068 C545.492,117.414 587.5,153.072 587.5,207 C587.5,207 587.5,207 587.5,793 C587.5,839.035 565.766,887.558 547.243,920.5546 " fill="none" id="EspecificarFichaProducaoController-&gt;FichaProducao" style="stroke: #A80036; stroke-width: 1.0;"/><polygon fill="#A80036" points="544.769,924.9035,552.6958,919.0583,547.2412,920.5574,545.7421,915.1028,544.769,924.9035" style="stroke: #A80036; stroke-width: 1.0;"/><text fill="#000000" font-family="sans-serif" font-size="13" lengthAdjust="spacingAndGlyphs" textLength="23" x="588.5" y="495.0669">cria</text><text fill="#000000" font-family="sans-serif" font-size="13" lengthAdjust="spacingAndGlyphs" textLength="8" x="514.0992" y="114.4869">1</text><text fill="#000000" font-family="sans-serif" font-size="13" lengthAdjust="spacingAndGlyphs" textLength="8" x="540.3217" y="913.7962">1</text><!--MD5=[d1b41690ca1a84bfa94e8e4ee0461a31]
link ProdutoRepository to Produto--><path d="M279.912,659.122 C298.024,679.434 322.673,707.08 344.727,731.813 " fill="none" id="ProdutoRepository-&gt;Produto" style="stroke: #A80036; stroke-width: 1.0;"/><polygon fill="#A80036" points="348.242,735.756,345.2379,726.3765,344.9144,732.0241,339.2668,731.7006,348.242,735.756" style="stroke: #A80036; stroke-width: 1.0;"/><text fill="#000000" font-family="sans-serif" font-size="13" lengthAdjust="spacingAndGlyphs" textLength="51" x="322.5" y="702.0669">persiste</text><text fill="#000000" font-family="sans-serif" font-size="13" lengthAdjust="spacingAndGlyphs" textLength="8" x="276.5345" y="679.0854">1</text><text fill="#000000" font-family="sans-serif" font-size="13" lengthAdjust="spacingAndGlyphs" textLength="37" x="302.984" y="725.0608">many</text><!--MD5=[eec7e073eb1eabbc91bcbdb1d9c205d7]
link Produto to FichaProducao--><path d="M438.102,848.009 C455.584,871.694 475.652,898.883 491.721,920.6546 " fill="none" id="Produto-&gt;FichaProducao" style="stroke: #A80036; stroke-width: 1.0;"/><polygon fill="#A80036" points="494.88,924.934,492.7536,915.3174,491.9107,920.9111,486.317,920.0683,494.88,924.934" style="stroke: #A80036; stroke-width: 1.0;"/><text fill="#000000" font-family="sans-serif" font-size="13" lengthAdjust="spacingAndGlyphs" textLength="49" x="471.5" y="891.0669">contém</text><text fill="#000000" font-family="sans-serif" font-size="13" lengthAdjust="spacingAndGlyphs" textLength="8" x="434.7916" y="868.22">1</text><text fill="#000000" font-family="sans-serif" font-size="13" lengthAdjust="spacingAndGlyphs" textLength="24" x="463.7594" y="913.8323">0..1</text><!--MD5=[65c496fb9187f360f1ab54219fbabe5a]
@startuml
interface RepositoryFactory
interface ProdutoRepository
interface MateriaPrimaRepository

EspecificarFichaProducaoController "1" <- - "1" EspecificarFichaProducaoUI: chama
EspecificarFichaProducaoController "1" - -> "1" PersistenceContext: chama
EspecificarFichaProducaoController "1" - -> "1" ListItensService: chama
ListItensService "1" - -> "1" PersistenceContext: chama
PersistenceContext "1" - -> "1" RepositoryFactory: chama
RepositoryFactory "1" - -> "1" ProdutoRepository: cria
RepositoryFactory "1"- -> "1" MateriaPrimaRepository: cria
EspecificarFichaProducaoController "1" - -> "1" FichaProducao: cria
ProdutoRepository "1" - -> "many" Produto: persiste
Produto "1" - -> "0..1" FichaProducao: contém

EspecificarFichaProducaoController : mostrarListaProdutosSemFicha()
EspecificarFichaProducaoController : mostrarListaMateriasPrimas()
EspecificarFichaProducaoController : registarFichaProducao(idFichaProducao,produto,listaProdutos,listaMateriasPrimas)

PersistenceContext : repositories()
RepositoryFactory : create()
ListItensService : obterListaProdutosSemFicha()
ListItensService : obterListaMateriasPrimas()
ProdutoRepository : findProdutosSemFicha()
MateriaPrimaRepository : findAll()

Produto : codigoFabrico
Produto : codigoComercial
Produto : descricaoBreve
Produto : descricaoCompleta
Produto : adicionarFichaProducao(ficha)
FichaProducao : idFichaProducao
FichaProducao : create(idFichaProducao,listaProdutos,listaMateriasPrimas)
@enduml

PlantUML version 1.2020.10(Sun May 17 09:48:49 UTC 2020)
(GPL source distribution)
Java Runtime: Java(TM) SE Runtime Environment
JVM: Java HotSpot(TM) 64-Bit Server VM
Operating System: Linux
Default Encoding: UTF-8
Language: en
Country: US
--></g></svg>