<?xml version="1.0" encoding="UTF-8" standalone="no"?><svg xmlns="http://www.w3.org/2000/svg" xmlns:xlink="http://www.w3.org/1999/xlink" contentScriptType="application/ecmascript" contentStyleType="text/css" height="1079px" preserveAspectRatio="none" style="width:681px;height:1079px;" version="1.1" viewBox="0 0 681 1079" width="681px" zoomAndPan="magnify"><defs><filter height="300%" id="f3gb569atsoju" width="300%" x="-1" y="-1"><feGaussianBlur result="blurOut" stdDeviation="2.0"/><feColorMatrix in="blurOut" result="blurOut2" type="matrix" values="0 0 0 0 0 0 0 0 0 0 0 0 0 0 0 0 0 0 .4 0"/><feOffset dx="4.0" dy="4.0" in="blurOut2" result="blurOut3"/><feBlend in="SourceGraphic" in2="blurOut3" mode="normal"/></filter></defs><g><!--MD5=[48590afff58a68e2fcba47824d6f8a11]
class RepositoryFactory--><rect fill="#FEFECE" filter="url(#f3gb569atsoju)" height="60.8047" id="RepositoryFactory" style="stroke: #A80036; stroke-width: 1.5;" width="140" x="238.5" y="447"/><ellipse cx="253.5" cy="463" fill="#B4A7E5" rx="11" ry="11" style="stroke: #A80036; stroke-width: 1.0;"/><path d="M254.4531,459.7813 L256.1719,459.7813 C256.5625,459.7813 256.75,459.75 256.875,459.6719 C257.1406,459.5156 257.2813,459.2344 257.2813,458.9375 C257.2813,458.6719 257.1719,458.4063 256.9375,458.2344 C256.7656,458.125 256.625,458.0938 256.1719,458.0938 L251.0313,458.0938 C250.5938,458.0938 250.4688,458.1094 250.3125,458.2031 C250.0625,458.3594 249.9063,458.6563 249.9063,458.9375 C249.9063,459.2188 250.0469,459.4688 250.2656,459.6406 C250.4219,459.75 250.6094,459.7813 251.0313,459.7813 L252.75,459.7813 L252.75,466.2969 L251.0313,466.2969 C250.5938,466.2969 250.4688,466.3125 250.3125,466.4219 C250.0625,466.5781 249.9063,466.8594 249.9063,467.1563 C249.9063,467.4063 250.0469,467.6719 250.2656,467.8281 C250.4219,467.9531 250.625,468 251.0313,468 L256.1719,468 C256.9219,468 257.2813,467.7188 257.2813,467.1563 C257.2813,466.875 257.1719,466.625 256.9375,466.4531 C256.7656,466.3281 256.625,466.2969 256.1719,466.2969 L254.4531,466.2969 L254.4531,459.7813 Z "/><text fill="#000000" font-family="sans-serif" font-size="12" font-style="italic" lengthAdjust="spacingAndGlyphs" textLength="108" x="267.5" y="467.1543">RepositoryFactory</text><line style="stroke: #A80036; stroke-width: 1.5;" x1="239.5" x2="377.5" y1="479" y2="479"/><line style="stroke: #A80036; stroke-width: 1.5;" x1="239.5" x2="377.5" y1="487" y2="487"/><text fill="#000000" font-family="sans-serif" font-size="11" lengthAdjust="spacingAndGlyphs" textLength="45" x="244.5" y="501.2104">create()</text><!--MD5=[f6930c598485bad857f0778c543ee03e]
class LinhaProducaoRepository--><rect fill="#FEFECE" filter="url(#f3gb569atsoju)" height="73.6094" id="LinhaProducaoRepository" style="stroke: #A80036; stroke-width: 1.5;" width="184" x="192.5" y="585"/><ellipse cx="207.5" cy="601" fill="#B4A7E5" rx="11" ry="11" style="stroke: #A80036; stroke-width: 1.0;"/><path d="M208.4531,597.7813 L210.1719,597.7813 C210.5625,597.7813 210.75,597.75 210.875,597.6719 C211.1406,597.5156 211.2813,597.2344 211.2813,596.9375 C211.2813,596.6719 211.1719,596.4063 210.9375,596.2344 C210.7656,596.125 210.625,596.0938 210.1719,596.0938 L205.0313,596.0938 C204.5938,596.0938 204.4688,596.1094 204.3125,596.2031 C204.0625,596.3594 203.9063,596.6563 203.9063,596.9375 C203.9063,597.2188 204.0469,597.4688 204.2656,597.6406 C204.4219,597.75 204.6094,597.7813 205.0313,597.7813 L206.75,597.7813 L206.75,604.2969 L205.0313,604.2969 C204.5938,604.2969 204.4688,604.3125 204.3125,604.4219 C204.0625,604.5781 203.9063,604.8594 203.9063,605.1563 C203.9063,605.4063 204.0469,605.6719 204.2656,605.8281 C204.4219,605.9531 204.625,606 205.0313,606 L210.1719,606 C210.9219,606 211.2813,605.7188 211.2813,605.1563 C211.2813,604.875 211.1719,604.625 210.9375,604.4531 C210.7656,604.3281 210.625,604.2969 210.1719,604.2969 L208.4531,604.2969 L208.4531,597.7813 Z "/><text fill="#000000" font-family="sans-serif" font-size="12" font-style="italic" lengthAdjust="spacingAndGlyphs" textLength="152" x="221.5" y="605.1543">LinhaProducaoRepository</text><line style="stroke: #A80036; stroke-width: 1.5;" x1="193.5" x2="375.5" y1="617" y2="617"/><line style="stroke: #A80036; stroke-width: 1.5;" x1="193.5" x2="375.5" y1="625" y2="625"/><text fill="#000000" font-family="sans-serif" font-size="11" lengthAdjust="spacingAndGlyphs" textLength="43" x="198.5" y="639.2104">findAll()</text><text fill="#000000" font-family="sans-serif" font-size="11" lengthAdjust="spacingAndGlyphs" textLength="63" x="198.5" y="652.0151">save(linha)</text><!--MD5=[148ce674129ebb6b53bc3596f86634c4]
class MaquinaRepository--><rect fill="#FEFECE" filter="url(#f3gb569atsoju)" height="60.8047" id="MaquinaRepository" style="stroke: #A80036; stroke-width: 1.5;" width="146" x="362.5" y="689"/><ellipse cx="377.5" cy="705" fill="#B4A7E5" rx="11" ry="11" style="stroke: #A80036; stroke-width: 1.0;"/><path d="M378.4531,701.7813 L380.1719,701.7813 C380.5625,701.7813 380.75,701.75 380.875,701.6719 C381.1406,701.5156 381.2813,701.2344 381.2813,700.9375 C381.2813,700.6719 381.1719,700.4063 380.9375,700.2344 C380.7656,700.125 380.625,700.0938 380.1719,700.0938 L375.0313,700.0938 C374.5938,700.0938 374.4688,700.1094 374.3125,700.2031 C374.0625,700.3594 373.9063,700.6563 373.9063,700.9375 C373.9063,701.2188 374.0469,701.4688 374.2656,701.6406 C374.4219,701.75 374.6094,701.7813 375.0313,701.7813 L376.75,701.7813 L376.75,708.2969 L375.0313,708.2969 C374.5938,708.2969 374.4688,708.3125 374.3125,708.4219 C374.0625,708.5781 373.9063,708.8594 373.9063,709.1563 C373.9063,709.4063 374.0469,709.6719 374.2656,709.8281 C374.4219,709.9531 374.625,710 375.0313,710 L380.1719,710 C380.9219,710 381.2813,709.7188 381.2813,709.1563 C381.2813,708.875 381.1719,708.625 380.9375,708.4531 C380.7656,708.3281 380.625,708.2969 380.1719,708.2969 L378.4531,708.2969 L378.4531,701.7813 Z "/><text fill="#000000" font-family="sans-serif" font-size="12" font-style="italic" lengthAdjust="spacingAndGlyphs" textLength="114" x="391.5" y="709.1543">MaquinaRepository</text><line style="stroke: #A80036; stroke-width: 1.5;" x1="363.5" x2="507.5" y1="721" y2="721"/><line style="stroke: #A80036; stroke-width: 1.5;" x1="363.5" x2="507.5" y1="729" y2="729"/><text fill="#000000" font-family="sans-serif" font-size="11" lengthAdjust="spacingAndGlyphs" textLength="85" x="368.5" y="743.2104">save(maquina)</text><!--MD5=[29196d0dc5aeb6d07327b12a961ffd5a]
class AdicionarMaquinaController--><rect fill="#FEFECE" filter="url(#f3gb569atsoju)" height="86.4141" id="AdicionarMaquinaController" style="stroke: #A80036; stroke-width: 1.5;" width="567" x="6" y="8"/><ellipse cx="203.25" cy="24" fill="#ADD1B2" rx="11" ry="11" style="stroke: #A80036; stroke-width: 1.0;"/><path d="M205.5938,19.6719 C204.6563,19.2344 204.0625,19.0938 203.1875,19.0938 C200.5625,19.0938 198.5625,21.1719 198.5625,23.8906 L198.5625,25.0156 C198.5625,27.5938 200.6719,29.4844 203.5625,29.4844 C204.7813,29.4844 205.9375,29.1875 206.6875,28.6406 C207.2656,28.2344 207.5938,27.7813 207.5938,27.3906 C207.5938,26.9375 207.2031,26.5469 206.7344,26.5469 C206.5156,26.5469 206.3125,26.625 206.125,26.8125 C205.6719,27.2969 205.6719,27.2969 205.4844,27.3906 C205.0625,27.6563 204.375,27.7813 203.6094,27.7813 C201.5625,27.7813 200.2656,26.6875 200.2656,24.9844 L200.2656,23.8906 C200.2656,22.1094 201.5156,20.7969 203.25,20.7969 C203.8281,20.7969 204.4375,20.9531 204.9063,21.2031 C205.3906,21.4844 205.5625,21.7031 205.6563,22.1094 C205.7188,22.5156 205.75,22.6406 205.8906,22.7656 C206.0313,22.9063 206.2656,23.0156 206.4844,23.0156 C206.75,23.0156 207.0156,22.875 207.1875,22.6563 C207.2969,22.5 207.3281,22.3125 207.3281,21.8906 L207.3281,20.4688 C207.3281,20.0313 207.3125,19.9063 207.2188,19.75 C207.0625,19.4844 206.7813,19.3438 206.4844,19.3438 C206.1875,19.3438 205.9844,19.4375 205.7656,19.75 L205.5938,19.6719 Z "/><text fill="#000000" font-family="sans-serif" font-size="12" lengthAdjust="spacingAndGlyphs" textLength="164" x="223.75" y="28.1543">AdicionarMaquinaController</text><line style="stroke: #A80036; stroke-width: 1.5;" x1="7" x2="572" y1="40" y2="40"/><line style="stroke: #A80036; stroke-width: 1.5;" x1="7" x2="572" y1="48" y2="48"/><text fill="#000000" font-family="sans-serif" font-size="11" lengthAdjust="spacingAndGlyphs" textLength="164" x="12" y="62.2104">mostrarListaLinhasProducao()</text><text fill="#000000" font-family="sans-serif" font-size="11" lengthAdjust="spacingAndGlyphs" textLength="555" x="12" y="75.0151">registarMaquina(linha,codigoInterno,numeroSerie,descricao,dataInstalacao,marca,modelo,posicao)</text><text fill="#000000" font-family="sans-serif" font-size="11" lengthAdjust="spacingAndGlyphs" textLength="263" x="12" y="87.8198">atualizarLinhaProducao(linha,maquina,posicao)</text><!--MD5=[bd40bdf8130dfa2c7097e6b77e8edf73]
class AdicionarMaquinaUI--><rect fill="#FEFECE" filter="url(#f3gb569atsoju)" height="48" id="AdicionarMaquinaUI" style="stroke: #A80036; stroke-width: 1.5;" width="149" x="12" y="177.5"/><ellipse cx="27" cy="193.5" fill="#ADD1B2" rx="11" ry="11" style="stroke: #A80036; stroke-width: 1.0;"/><path d="M29.3438,189.1719 C28.4063,188.7344 27.8125,188.5938 26.9375,188.5938 C24.3125,188.5938 22.3125,190.6719 22.3125,193.3906 L22.3125,194.5156 C22.3125,197.0938 24.4219,198.9844 27.3125,198.9844 C28.5313,198.9844 29.6875,198.6875 30.4375,198.1406 C31.0156,197.7344 31.3438,197.2813 31.3438,196.8906 C31.3438,196.4375 30.9531,196.0469 30.4844,196.0469 C30.2656,196.0469 30.0625,196.125 29.875,196.3125 C29.4219,196.7969 29.4219,196.7969 29.2344,196.8906 C28.8125,197.1563 28.125,197.2813 27.3594,197.2813 C25.3125,197.2813 24.0156,196.1875 24.0156,194.4844 L24.0156,193.3906 C24.0156,191.6094 25.2656,190.2969 27,190.2969 C27.5781,190.2969 28.1875,190.4531 28.6563,190.7031 C29.1406,190.9844 29.3125,191.2031 29.4063,191.6094 C29.4688,192.0156 29.5,192.1406 29.6406,192.2656 C29.7813,192.4063 30.0156,192.5156 30.2344,192.5156 C30.5,192.5156 30.7656,192.375 30.9375,192.1563 C31.0469,192 31.0781,191.8125 31.0781,191.3906 L31.0781,189.9688 C31.0781,189.5313 31.0625,189.4063 30.9688,189.25 C30.8125,188.9844 30.5313,188.8438 30.2344,188.8438 C29.9375,188.8438 29.7344,188.9375 29.5156,189.25 L29.3438,189.1719 Z "/><text fill="#000000" font-family="sans-serif" font-size="12" lengthAdjust="spacingAndGlyphs" textLength="117" x="41" y="197.6543">AdicionarMaquinaUI</text><line style="stroke: #A80036; stroke-width: 1.5;" x1="13" x2="160" y1="209.5" y2="209.5"/><line style="stroke: #A80036; stroke-width: 1.5;" x1="13" x2="160" y1="217.5" y2="217.5"/><!--MD5=[e8c189551b7885b999ad7cefb30fc2a3]
class PersistenceContext--><rect fill="#FEFECE" filter="url(#f3gb569atsoju)" height="60.8047" id="PersistenceContext" style="stroke: #A80036; stroke-width: 1.5;" width="148" x="234.5" y="309"/><ellipse cx="249.5" cy="325" fill="#ADD1B2" rx="11" ry="11" style="stroke: #A80036; stroke-width: 1.0;"/><path d="M251.8438,320.6719 C250.9063,320.2344 250.3125,320.0938 249.4375,320.0938 C246.8125,320.0938 244.8125,322.1719 244.8125,324.8906 L244.8125,326.0156 C244.8125,328.5938 246.9219,330.4844 249.8125,330.4844 C251.0313,330.4844 252.1875,330.1875 252.9375,329.6406 C253.5156,329.2344 253.8438,328.7813 253.8438,328.3906 C253.8438,327.9375 253.4531,327.5469 252.9844,327.5469 C252.7656,327.5469 252.5625,327.625 252.375,327.8125 C251.9219,328.2969 251.9219,328.2969 251.7344,328.3906 C251.3125,328.6563 250.625,328.7813 249.8594,328.7813 C247.8125,328.7813 246.5156,327.6875 246.5156,325.9844 L246.5156,324.8906 C246.5156,323.1094 247.7656,321.7969 249.5,321.7969 C250.0781,321.7969 250.6875,321.9531 251.1563,322.2031 C251.6406,322.4844 251.8125,322.7031 251.9063,323.1094 C251.9688,323.5156 252,323.6406 252.1406,323.7656 C252.2813,323.9063 252.5156,324.0156 252.7344,324.0156 C253,324.0156 253.2656,323.875 253.4375,323.6563 C253.5469,323.5 253.5781,323.3125 253.5781,322.8906 L253.5781,321.4688 C253.5781,321.0313 253.5625,320.9063 253.4688,320.75 C253.3125,320.4844 253.0313,320.3438 252.7344,320.3438 C252.4375,320.3438 252.2344,320.4375 252.0156,320.75 L251.8438,320.6719 Z "/><text fill="#000000" font-family="sans-serif" font-size="12" lengthAdjust="spacingAndGlyphs" textLength="116" x="263.5" y="329.1543">PersistenceContext</text><line style="stroke: #A80036; stroke-width: 1.5;" x1="235.5" x2="381.5" y1="341" y2="341"/><line style="stroke: #A80036; stroke-width: 1.5;" x1="235.5" x2="381.5" y1="349" y2="349"/><text fill="#000000" font-family="sans-serif" font-size="11" lengthAdjust="spacingAndGlyphs" textLength="75" x="240.5" y="363.2104">repositories()</text><!--MD5=[b3c6249e98ca5fd5ce49881ec8f1dc5b]
class ListLinhasProducaoService--><rect fill="#FEFECE" filter="url(#f3gb569atsoju)" height="60.8047" id="ListLinhasProducaoService" style="stroke: #A80036; stroke-width: 1.5;" width="191" x="313" y="171"/><ellipse cx="328" cy="187" fill="#ADD1B2" rx="11" ry="11" style="stroke: #A80036; stroke-width: 1.0;"/><path d="M330.3438,182.6719 C329.4063,182.2344 328.8125,182.0938 327.9375,182.0938 C325.3125,182.0938 323.3125,184.1719 323.3125,186.8906 L323.3125,188.0156 C323.3125,190.5938 325.4219,192.4844 328.3125,192.4844 C329.5313,192.4844 330.6875,192.1875 331.4375,191.6406 C332.0156,191.2344 332.3438,190.7813 332.3438,190.3906 C332.3438,189.9375 331.9531,189.5469 331.4844,189.5469 C331.2656,189.5469 331.0625,189.625 330.875,189.8125 C330.4219,190.2969 330.4219,190.2969 330.2344,190.3906 C329.8125,190.6563 329.125,190.7813 328.3594,190.7813 C326.3125,190.7813 325.0156,189.6875 325.0156,187.9844 L325.0156,186.8906 C325.0156,185.1094 326.2656,183.7969 328,183.7969 C328.5781,183.7969 329.1875,183.9531 329.6563,184.2031 C330.1406,184.4844 330.3125,184.7031 330.4063,185.1094 C330.4688,185.5156 330.5,185.6406 330.6406,185.7656 C330.7813,185.9063 331.0156,186.0156 331.2344,186.0156 C331.5,186.0156 331.7656,185.875 331.9375,185.6563 C332.0469,185.5 332.0781,185.3125 332.0781,184.8906 L332.0781,183.4688 C332.0781,183.0313 332.0625,182.9063 331.9688,182.75 C331.8125,182.4844 331.5313,182.3438 331.2344,182.3438 C330.9375,182.3438 330.7344,182.4375 330.5156,182.75 L330.3438,182.6719 Z "/><text fill="#000000" font-family="sans-serif" font-size="12" lengthAdjust="spacingAndGlyphs" textLength="159" x="342" y="191.1543">ListLinhasProducaoService</text><line style="stroke: #A80036; stroke-width: 1.5;" x1="314" x2="503" y1="203" y2="203"/><line style="stroke: #A80036; stroke-width: 1.5;" x1="314" x2="503" y1="211" y2="211"/><text fill="#000000" font-family="sans-serif" font-size="11" lengthAdjust="spacingAndGlyphs" textLength="151" x="319" y="225.2104">obterListaLinhasProducao()</text><!--MD5=[101a54388f71c18e99fd399899fce14e]
class Maquina--><rect fill="#FEFECE" filter="url(#f3gb569atsoju)" height="137.6328" id="Maquina" style="stroke: #A80036; stroke-width: 1.5;" width="438" x="232.5" y="931"/><ellipse cx="422.75" cy="947" fill="#ADD1B2" rx="11" ry="11" style="stroke: #A80036; stroke-width: 1.0;"/><path d="M425.0938,942.6719 C424.1563,942.2344 423.5625,942.0938 422.6875,942.0938 C420.0625,942.0938 418.0625,944.1719 418.0625,946.8906 L418.0625,948.0156 C418.0625,950.5938 420.1719,952.4844 423.0625,952.4844 C424.2813,952.4844 425.4375,952.1875 426.1875,951.6406 C426.7656,951.2344 427.0938,950.7813 427.0938,950.3906 C427.0938,949.9375 426.7031,949.5469 426.2344,949.5469 C426.0156,949.5469 425.8125,949.625 425.625,949.8125 C425.1719,950.2969 425.1719,950.2969 424.9844,950.3906 C424.5625,950.6563 423.875,950.7813 423.1094,950.7813 C421.0625,950.7813 419.7656,949.6875 419.7656,947.9844 L419.7656,946.8906 C419.7656,945.1094 421.0156,943.7969 422.75,943.7969 C423.3281,943.7969 423.9375,943.9531 424.4063,944.2031 C424.8906,944.4844 425.0625,944.7031 425.1563,945.1094 C425.2188,945.5156 425.25,945.6406 425.3906,945.7656 C425.5313,945.9063 425.7656,946.0156 425.9844,946.0156 C426.25,946.0156 426.5156,945.875 426.6875,945.6563 C426.7969,945.5 426.8281,945.3125 426.8281,944.8906 L426.8281,943.4688 C426.8281,943.0313 426.8125,942.9063 426.7188,942.75 C426.5625,942.4844 426.2813,942.3438 425.9844,942.3438 C425.6875,942.3438 425.4844,942.4375 425.2656,942.75 L425.0938,942.6719 Z "/><text fill="#000000" font-family="sans-serif" font-size="12" lengthAdjust="spacingAndGlyphs" textLength="49" x="443.25" y="951.1543">Maquina</text><line style="stroke: #A80036; stroke-width: 1.5;" x1="233.5" x2="669.5" y1="963" y2="963"/><text fill="#000000" font-family="sans-serif" font-size="11" lengthAdjust="spacingAndGlyphs" textLength="77" x="238.5" y="977.2104">codigoInterno</text><text fill="#000000" font-family="sans-serif" font-size="11" lengthAdjust="spacingAndGlyphs" textLength="75" x="238.5" y="990.0151">numeroSerie</text><text fill="#000000" font-family="sans-serif" font-size="11" lengthAdjust="spacingAndGlyphs" textLength="54" x="238.5" y="1002.8198">descricao</text><text fill="#000000" font-family="sans-serif" font-size="11" lengthAdjust="spacingAndGlyphs" textLength="82" x="238.5" y="1015.6245">dataInstalacao</text><text fill="#000000" font-family="sans-serif" font-size="11" lengthAdjust="spacingAndGlyphs" textLength="35" x="238.5" y="1028.4292">marca</text><text fill="#000000" font-family="sans-serif" font-size="11" lengthAdjust="spacingAndGlyphs" textLength="43" x="238.5" y="1041.2339">modelo</text><line style="stroke: #A80036; stroke-width: 1.5;" x1="233.5" x2="669.5" y1="1047.8281" y2="1047.8281"/><text fill="#000000" font-family="sans-serif" font-size="11" lengthAdjust="spacingAndGlyphs" textLength="426" x="238.5" y="1062.0386">create(codigoInterno,numeroSerie,descricao,dataInstalacao,marca,modelo)</text><!--MD5=[3263439dcbd8325e60ff00bbf29b784d]
class LinhaProducao--><rect fill="#FEFECE" filter="url(#f3gb569atsoju)" height="73.6094" id="LinhaProducao" style="stroke: #A80036; stroke-width: 1.5;" width="213" x="168" y="780"/><ellipse cx="227.25" cy="796" fill="#ADD1B2" rx="11" ry="11" style="stroke: #A80036; stroke-width: 1.0;"/><path d="M229.5938,791.6719 C228.6563,791.2344 228.0625,791.0938 227.1875,791.0938 C224.5625,791.0938 222.5625,793.1719 222.5625,795.8906 L222.5625,797.0156 C222.5625,799.5938 224.6719,801.4844 227.5625,801.4844 C228.7813,801.4844 229.9375,801.1875 230.6875,800.6406 C231.2656,800.2344 231.5938,799.7813 231.5938,799.3906 C231.5938,798.9375 231.2031,798.5469 230.7344,798.5469 C230.5156,798.5469 230.3125,798.625 230.125,798.8125 C229.6719,799.2969 229.6719,799.2969 229.4844,799.3906 C229.0625,799.6563 228.375,799.7813 227.6094,799.7813 C225.5625,799.7813 224.2656,798.6875 224.2656,796.9844 L224.2656,795.8906 C224.2656,794.1094 225.5156,792.7969 227.25,792.7969 C227.8281,792.7969 228.4375,792.9531 228.9063,793.2031 C229.3906,793.4844 229.5625,793.7031 229.6563,794.1094 C229.7188,794.5156 229.75,794.6406 229.8906,794.7656 C230.0313,794.9063 230.2656,795.0156 230.4844,795.0156 C230.75,795.0156 231.0156,794.875 231.1875,794.6563 C231.2969,794.5 231.3281,794.3125 231.3281,793.8906 L231.3281,792.4688 C231.3281,792.0313 231.3125,791.9063 231.2188,791.75 C231.0625,791.4844 230.7813,791.3438 230.4844,791.3438 C230.1875,791.3438 229.9844,791.4375 229.7656,791.75 L229.5938,791.6719 Z "/><text fill="#000000" font-family="sans-serif" font-size="12" lengthAdjust="spacingAndGlyphs" textLength="86" x="247.75" y="800.1543">LinhaProducao</text><line style="stroke: #A80036; stroke-width: 1.5;" x1="169" x2="380" y1="812" y2="812"/><text fill="#000000" font-family="sans-serif" font-size="11" lengthAdjust="spacingAndGlyphs" textLength="91" x="174" y="826.2104">idLinhaProducao</text><line style="stroke: #A80036; stroke-width: 1.5;" x1="169" x2="380" y1="832.8047" y2="832.8047"/><text fill="#000000" font-family="sans-serif" font-size="11" lengthAdjust="spacingAndGlyphs" textLength="201" x="174" y="847.0151">adicionarMaquina(maquina,posicao)</text><!--MD5=[7c8c1d0d6abe329fe3b7321bdfe732dd]
reverse link AdicionarMaquinaController to AdicionarMaquinaUI--><path d="M200.241,96.692 C186.146,105.076 172.086,114.286 159.5,124 C139.154,139.703 119.229,161.11 105.3497,177.286 " fill="none" id="AdicionarMaquinaController&lt;-AdicionarMaquinaUI" style="stroke: #A80036; stroke-width: 1.0;"/><polygon fill="#A80036" points="204.615,94.116,194.83,95.236,200.3065,96.6531,198.8894,102.1296,204.615,94.116" style="stroke: #A80036; stroke-width: 1.0;"/><text fill="#000000" font-family="sans-serif" font-size="13" lengthAdjust="spacingAndGlyphs" textLength="44" x="160.5" y="137.0669">chama</text><text fill="#000000" font-family="sans-serif" font-size="13" lengthAdjust="spacingAndGlyphs" textLength="8" x="181.8934" y="114.5429">1</text><text fill="#000000" font-family="sans-serif" font-size="13" lengthAdjust="spacingAndGlyphs" textLength="8" x="101.1549" y="166.2432">1</text><!--MD5=[c3b0273894587f8aeafb19379c5a3533]
link AdicionarMaquinaController to PersistenceContext--><path d="M268.879,94.021 C253.6,130.625 237.363,185.045 249.5,232 C256.188,257.875 270.662,284.17 283.599,304.158 " fill="none" id="AdicionarMaquinaController-&gt;PersistenceContext" style="stroke: #A80036; stroke-width: 1.0;"/><polygon fill="#A80036" points="286.504,308.582,284.9084,298.8633,283.7599,304.4023,278.2209,303.2538,286.504,308.582" style="stroke: #A80036; stroke-width: 1.0;"/><text fill="#000000" font-family="sans-serif" font-size="13" lengthAdjust="spacingAndGlyphs" textLength="44" x="250.5" y="206.0669">chama</text><text fill="#000000" font-family="sans-serif" font-size="13" lengthAdjust="spacingAndGlyphs" textLength="8" x="256.8011" y="114.4321">1</text><text fill="#000000" font-family="sans-serif" font-size="13" lengthAdjust="spacingAndGlyphs" textLength="8" x="273.1423" y="297.759">1</text><!--MD5=[420eb2681910c35391848923abdff8e7]
link AdicionarMaquinaController to ListLinhasProducaoService--><path d="M323.282,94.157 C341.783,117.244 364.392,145.457 381.671,167.021 " fill="none" id="AdicionarMaquinaController-&gt;ListLinhasProducaoService" style="stroke: #A80036; stroke-width: 1.0;"/><polygon fill="#A80036" points="384.834,170.967,382.328,161.4423,381.7076,167.065,376.0848,166.4446,384.834,170.967" style="stroke: #A80036; stroke-width: 1.0;"/><text fill="#000000" font-family="sans-serif" font-size="13" lengthAdjust="spacingAndGlyphs" textLength="44" x="361.5" y="137.0669">chama</text><text fill="#000000" font-family="sans-serif" font-size="13" lengthAdjust="spacingAndGlyphs" textLength="8" x="320.2146" y="114.5907">1</text><text fill="#000000" font-family="sans-serif" font-size="13" lengthAdjust="spacingAndGlyphs" textLength="8" x="370.7821" y="159.7501">1</text><!--MD5=[d21fbede877779ba5ebff554d1be70e0]
link ListLinhasProducaoService to PersistenceContext--><path d="M386.801,232.01 C371.119,253.338 349.898,282.198 333.504,304.495 " fill="none" id="ListLinhasProducaoService-&gt;PersistenceContext" style="stroke: #A80036; stroke-width: 1.0;"/><polygon fill="#A80036" points="330.501,308.578,339.0553,303.6971,333.4631,304.5499,332.6104,298.9577,330.501,308.578" style="stroke: #A80036; stroke-width: 1.0;"/><text fill="#000000" font-family="sans-serif" font-size="13" lengthAdjust="spacingAndGlyphs" textLength="44" x="365.5" y="275.0669">chama</text><text fill="#000000" font-family="sans-serif" font-size="13" lengthAdjust="spacingAndGlyphs" textLength="8" x="373.5006" y="251.9503">1</text><text fill="#000000" font-family="sans-serif" font-size="13" lengthAdjust="spacingAndGlyphs" textLength="8" x="326.2137" y="297.7542">1</text><!--MD5=[754b775031405e096442b27febffa290]
link PersistenceContext to RepositoryFactory--><path d="M308.5,370.01 C308.5,390.984 308.5,419.243 308.5,441.379 " fill="none" id="PersistenceContext-&gt;RepositoryFactory" style="stroke: #A80036; stroke-width: 1.0;"/><polygon fill="#A80036" points="308.5,446.578,312.5,437.578,308.5,441.578,304.5,437.578,308.5,446.578" style="stroke: #A80036; stroke-width: 1.0;"/><text fill="#000000" font-family="sans-serif" font-size="13" lengthAdjust="spacingAndGlyphs" textLength="44" x="309.5" y="413.0669">chama</text><text fill="#000000" font-family="sans-serif" font-size="13" lengthAdjust="spacingAndGlyphs" textLength="8" x="299.675" y="389.9503">1</text><text fill="#000000" font-family="sans-serif" font-size="13" lengthAdjust="spacingAndGlyphs" textLength="8" x="299.675" y="435.7542">1</text><!--MD5=[a3266a4bd1d97d52f3217c3976f218de]
link RepositoryFactory to LinhaProducaoRepository--><path d="M303.527,508.026 C300.03,528.792 295.303,556.86 291.435,579.823 " fill="none" id="RepositoryFactory-&gt;LinhaProducaoRepository" style="stroke: #A80036; stroke-width: 1.0;"/><polygon fill="#A80036" points="290.573,584.941,296.014,576.7315,291.4045,580.0106,288.1254,575.4011,290.573,584.941" style="stroke: #A80036; stroke-width: 1.0;"/><text fill="#000000" font-family="sans-serif" font-size="13" lengthAdjust="spacingAndGlyphs" textLength="23" x="299.5" y="551.0669">cria</text><text fill="#000000" font-family="sans-serif" font-size="13" lengthAdjust="spacingAndGlyphs" textLength="8" x="293.6763" y="527.9696">1</text><text fill="#000000" font-family="sans-serif" font-size="13" lengthAdjust="spacingAndGlyphs" textLength="8" x="282.9552" y="573.8406">1</text><!--MD5=[0ad70dbc7a66aaf7ab4bf71f820f0608]
link RepositoryFactory to MaquinaRepository--><path d="M337.055,508.044 C355.337,528.319 378.381,556.601 393.5,585 C410.322,616.598 421.692,656.043 428.314,683.837 " fill="none" id="RepositoryFactory-&gt;MaquinaRepository" style="stroke: #A80036; stroke-width: 1.0;"/><polygon fill="#A80036" points="429.496,688.887,431.3388,679.2121,428.3561,684.0187,423.5495,681.036,429.496,688.887" style="stroke: #A80036; stroke-width: 1.0;"/><text fill="#000000" font-family="sans-serif" font-size="13" lengthAdjust="spacingAndGlyphs" textLength="23" x="375.5" y="551.0669">cria</text><text fill="#000000" font-family="sans-serif" font-size="13" lengthAdjust="spacingAndGlyphs" textLength="8" x="334.1195" y="527.9913">1</text><text fill="#000000" font-family="sans-serif" font-size="13" lengthAdjust="spacingAndGlyphs" textLength="8" x="419.4327" y="678.1269">1</text><!--MD5=[80f2063438f23aa8a8b08919333787d7]
link AdicionarMaquinaController to Maquina--><path d="M473.438,94.018 C520.204,116.136 557.5,149.701 557.5,200.5 C557.5,200.5 557.5,200.5 557.5,818 C557.5,857.207 538.751,895.451 517.023,926.607 " fill="none" id="AdicionarMaquinaController-&gt;Maquina" style="stroke: #A80036; stroke-width: 1.0;"/><polygon fill="#A80036" points="514.08,930.76,522.5474,925.7298,516.971,926.6806,516.0203,921.1042,514.08,930.76" style="stroke: #A80036; stroke-width: 1.0;"/><text fill="#000000" font-family="sans-serif" font-size="13" lengthAdjust="spacingAndGlyphs" textLength="23" x="558.5" y="482.0669">cria</text><text fill="#000000" font-family="sans-serif" font-size="13" lengthAdjust="spacingAndGlyphs" textLength="8" x="495.2402" y="114.4286">1</text><text fill="#000000" font-family="sans-serif" font-size="13" lengthAdjust="spacingAndGlyphs" textLength="8" x="512.1211" y="919.9389">1</text><!--MD5=[77ee4fef8427568068bc70fd7c7d4503]
link LinhaProducaoRepository to LinhaProducao--><path d="M282.619,659.302 C280.922,692.055 278.427,740.213 276.651,774.484 " fill="none" id="LinhaProducaoRepository-&gt;LinhaProducao" style="stroke: #A80036; stroke-width: 1.0;"/><polygon fill="#A80036" points="276.372,779.861,280.8321,771.0799,276.6306,774.8677,272.8428,770.6662,276.372,779.861" style="stroke: #A80036; stroke-width: 1.0;"/><text fill="#000000" font-family="sans-serif" font-size="13" lengthAdjust="spacingAndGlyphs" textLength="51" x="282.5" y="724.0669">persiste</text><text fill="#000000" font-family="sans-serif" font-size="13" lengthAdjust="spacingAndGlyphs" textLength="8" x="273.6817" y="678.5509">1</text><text fill="#000000" font-family="sans-serif" font-size="13" lengthAdjust="spacingAndGlyphs" textLength="37" x="236.4101" y="769.0232">many</text><!--MD5=[66876735b832511e01a7627abfe31f4b]
link MaquinaRepository to Maquina--><path d="M437.197,750.041 C439.578,791.487 443.988,868.246 447.284,925.62 " fill="none" id="MaquinaRepository-&gt;Maquina" style="stroke: #A80036; stroke-width: 1.0;"/><polygon fill="#A80036" points="447.58,930.761,451.0565,921.5461,447.2928,925.7693,443.0697,922.0056,447.58,930.761" style="stroke: #A80036; stroke-width: 1.0;"/><text fill="#000000" font-family="sans-serif" font-size="13" lengthAdjust="spacingAndGlyphs" textLength="51" x="443.5" y="821.5669">persiste</text><text fill="#000000" font-family="sans-serif" font-size="13" lengthAdjust="spacingAndGlyphs" textLength="8" x="428.722" y="769.9877">1</text><text fill="#000000" font-family="sans-serif" font-size="13" lengthAdjust="spacingAndGlyphs" textLength="37" x="408.2679" y="919.94">many</text><!--MD5=[943d29162ba13a54ca99f191f321a666]
link LinhaProducao to Maquina--><path d="M309.893,854.193 C330.278,875.039 356.629,901.985 381.061,926.969 " fill="none" id="LinhaProducao-&gt;Maquina" style="stroke: #A80036; stroke-width: 1.0;"/><polygon fill="#A80036" points="384.651,930.64,381.2178,921.4089,381.155,927.0654,375.4985,927.0025,384.651,930.64" style="stroke: #A80036; stroke-width: 1.0;"/><text fill="#000000" font-family="sans-serif" font-size="13" lengthAdjust="spacingAndGlyphs" textLength="49" x="353.5" y="897.0669">contém</text><text fill="#000000" font-family="sans-serif" font-size="13" lengthAdjust="spacingAndGlyphs" textLength="8" x="307.0925" y="873.7055">1</text><text fill="#000000" font-family="sans-serif" font-size="13" lengthAdjust="spacingAndGlyphs" textLength="23" x="353.5713" y="919.8065">0..*</text><!--MD5=[8d1e5afc22ecc34528786527183b9468]
@startuml
interface RepositoryFactory
interface LinhaProducaoRepository
interface MaquinaRepository

AdicionarMaquinaController "1" <- - "1" AdicionarMaquinaUI: chama
AdicionarMaquinaController "1" - -> "1" PersistenceContext: chama
AdicionarMaquinaController "1" - -> "1" ListLinhasProducaoService: chama
ListLinhasProducaoService "1" - -> "1" PersistenceContext: chama
PersistenceContext "1" - -> "1" RepositoryFactory: chama
RepositoryFactory "1" - -> "1" LinhaProducaoRepository: cria
RepositoryFactory "1"- -> "1" MaquinaRepository: cria
AdicionarMaquinaController "1" - -> "1" Maquina: cria
LinhaProducaoRepository "1" - -> "many" LinhaProducao: persiste
MaquinaRepository "1" - -> "many" Maquina: persiste
LinhaProducao "1" - -> "0..*" Maquina: contém

AdicionarMaquinaController : mostrarListaLinhasProducao()
AdicionarMaquinaController : registarMaquina(linha,codigoInterno,numeroSerie,descricao,dataInstalacao,marca,modelo,posicao)
AdicionarMaquinaController : atualizarLinhaProducao(linha,maquina,posicao)

ListLinhasProducaoService : obterListaLinhasProducao()

PersistenceContext : repositories()
RepositoryFactory : create()
LinhaProducaoRepository : findAll()
LinhaProducaoRepository : save(linha)
MaquinaRepository : save(maquina)

Maquina : create(codigoInterno,numeroSerie,descricao,dataInstalacao,marca,modelo)
Maquina : codigoInterno
Maquina : numeroSerie
Maquina : descricao
Maquina : dataInstalacao
Maquina : marca
Maquina : modelo
LinhaProducao : idLinhaProducao
LinhaProducao : adicionarMaquina(maquina,posicao)
@enduml

PlantUML version 1.2020.10(Sun May 17 09:35:57 UTC 2020)
(GPL source distribution)
Java Runtime: Java(TM) SE Runtime Environment
JVM: Java HotSpot(TM) 64-Bit Server VM
Java Version: 14.0.1+7
Operating System: Linux
Default Encoding: UTF-8
Language: en
Country: US
--></g></svg>