<?xml version="1.0" encoding="UTF-8" standalone="no"?><svg xmlns="http://www.w3.org/2000/svg" xmlns:xlink="http://www.w3.org/1999/xlink" contentScriptType="application/ecmascript" contentStyleType="text/css" height="1157px" preserveAspectRatio="none" style="width:1326px;height:1157px;" version="1.1" viewBox="0 0 1326 1157" width="1326px" zoomAndPan="magnify"><defs><filter height="300%" id="f17pvoe9uudtty" width="300%" x="-1" y="-1"><feGaussianBlur result="blurOut" stdDeviation="2.0"/><feColorMatrix in="blurOut" result="blurOut2" type="matrix" values="0 0 0 0 0 0 0 0 0 0 0 0 0 0 0 0 0 0 .4 0"/><feOffset dx="4.0" dy="4.0" in="blurOut2" result="blurOut3"/><feBlend in="SourceGraphic" in2="blurOut3" mode="normal"/></filter></defs><g><!--MD5=[f6930c598485bad857f0778c543ee03e]
class LinhaProducaoRepository--><rect fill="#FEFECE" filter="url(#f17pvoe9uudtty)" height="60.8047" id="LinhaProducaoRepository" style="stroke: #A80036; stroke-width: 1.5;" width="184" x="65" y="319.5"/><ellipse cx="80" cy="335.5" fill="#B4A7E5" rx="11" ry="11" style="stroke: #A80036; stroke-width: 1.0;"/><path d="M80.9531,332.2813 L82.6719,332.2813 C83.0625,332.2813 83.25,332.25 83.375,332.1719 C83.6406,332.0156 83.7813,331.7344 83.7813,331.4375 C83.7813,331.1719 83.6719,330.9063 83.4375,330.7344 C83.2656,330.625 83.125,330.5938 82.6719,330.5938 L77.5313,330.5938 C77.0938,330.5938 76.9688,330.6094 76.8125,330.7031 C76.5625,330.8594 76.4063,331.1563 76.4063,331.4375 C76.4063,331.7188 76.5469,331.9688 76.7656,332.1406 C76.9219,332.25 77.1094,332.2813 77.5313,332.2813 L79.25,332.2813 L79.25,338.7969 L77.5313,338.7969 C77.0938,338.7969 76.9688,338.8125 76.8125,338.9219 C76.5625,339.0781 76.4063,339.3594 76.4063,339.6563 C76.4063,339.9063 76.5469,340.1719 76.7656,340.3281 C76.9219,340.4531 77.125,340.5 77.5313,340.5 L82.6719,340.5 C83.4219,340.5 83.7813,340.2188 83.7813,339.6563 C83.7813,339.375 83.6719,339.125 83.4375,338.9531 C83.2656,338.8281 83.125,338.7969 82.6719,338.7969 L80.9531,338.7969 L80.9531,332.2813 Z "/><text fill="#000000" font-family="sans-serif" font-size="12" font-style="italic" lengthAdjust="spacingAndGlyphs" textLength="152" x="94" y="339.6543">LinhaProducaoRepository</text><line style="stroke: #A80036; stroke-width: 1.5;" x1="66" x2="248" y1="351.5" y2="351.5"/><line style="stroke: #A80036; stroke-width: 1.5;" x1="66" x2="248" y1="359.5" y2="359.5"/><text fill="#000000" font-family="sans-serif" font-size="11" lengthAdjust="spacingAndGlyphs" textLength="43" x="71" y="373.7104">findAll()</text><!--MD5=[14a44f3decba363557888d679f14e16e]
class MensagemRepository--><rect fill="#FEFECE" filter="url(#f17pvoe9uudtty)" height="86.4141" id="MensagemRepository" style="stroke: #A80036; stroke-width: 1.5;" width="372" x="428" y="483"/><ellipse cx="545.75" cy="499" fill="#B4A7E5" rx="11" ry="11" style="stroke: #A80036; stroke-width: 1.0;"/><path d="M546.7031,495.7813 L548.4219,495.7813 C548.8125,495.7813 549,495.75 549.125,495.6719 C549.3906,495.5156 549.5313,495.2344 549.5313,494.9375 C549.5313,494.6719 549.4219,494.4063 549.1875,494.2344 C549.0156,494.125 548.875,494.0938 548.4219,494.0938 L543.2813,494.0938 C542.8438,494.0938 542.7188,494.1094 542.5625,494.2031 C542.3125,494.3594 542.1563,494.6563 542.1563,494.9375 C542.1563,495.2188 542.2969,495.4688 542.5156,495.6406 C542.6719,495.75 542.8594,495.7813 543.2813,495.7813 L545,495.7813 L545,502.2969 L543.2813,502.2969 C542.8438,502.2969 542.7188,502.3125 542.5625,502.4219 C542.3125,502.5781 542.1563,502.8594 542.1563,503.1563 C542.1563,503.4063 542.2969,503.6719 542.5156,503.8281 C542.6719,503.9531 542.875,504 543.2813,504 L548.4219,504 C549.1719,504 549.5313,503.7188 549.5313,503.1563 C549.5313,502.875 549.4219,502.625 549.1875,502.4531 C549.0156,502.3281 548.875,502.2969 548.4219,502.2969 L546.7031,502.2969 L546.7031,495.7813 Z "/><text fill="#000000" font-family="sans-serif" font-size="12" font-style="italic" lengthAdjust="spacingAndGlyphs" textLength="128" x="566.25" y="503.1543">MensagemRepository</text><line style="stroke: #A80036; stroke-width: 1.5;" x1="429" x2="799" y1="515" y2="515"/><line style="stroke: #A80036; stroke-width: 1.5;" x1="429" x2="799" y1="523" y2="523"/><text fill="#000000" font-family="sans-serif" font-size="11" lengthAdjust="spacingAndGlyphs" textLength="360" x="434" y="537.2104">findByProcessadasPorMaquinasETempo(inicio,fim,listaMaquinas)</text><text fill="#000000" font-family="sans-serif" font-size="11" lengthAdjust="spacingAndGlyphs" textLength="281" x="434" y="550.0151">findPrimeiraMensagemAntesDeTimestamp(inicio)</text><text fill="#000000" font-family="sans-serif" font-size="11" lengthAdjust="spacingAndGlyphs" textLength="101" x="434" y="562.8198">save(mensagem)</text><!--MD5=[9dc4f8bfc61e7da6ce1d1ba00073686b]
class ProdutoRepository--><rect fill="#FEFECE" filter="url(#f17pvoe9uudtty)" height="60.8047" id="ProdutoRepository" style="stroke: #A80036; stroke-width: 1.5;" width="142" x="1125" y="665"/><ellipse cx="1140" cy="681" fill="#B4A7E5" rx="11" ry="11" style="stroke: #A80036; stroke-width: 1.0;"/><path d="M1140.9531,677.7813 L1142.6719,677.7813 C1143.0625,677.7813 1143.25,677.75 1143.375,677.6719 C1143.6406,677.5156 1143.7813,677.2344 1143.7813,676.9375 C1143.7813,676.6719 1143.6719,676.4063 1143.4375,676.2344 C1143.2656,676.125 1143.125,676.0938 1142.6719,676.0938 L1137.5313,676.0938 C1137.0938,676.0938 1136.9688,676.1094 1136.8125,676.2031 C1136.5625,676.3594 1136.4063,676.6563 1136.4063,676.9375 C1136.4063,677.2188 1136.5469,677.4688 1136.7656,677.6406 C1136.9219,677.75 1137.1094,677.7813 1137.5313,677.7813 L1139.25,677.7813 L1139.25,684.2969 L1137.5313,684.2969 C1137.0938,684.2969 1136.9688,684.3125 1136.8125,684.4219 C1136.5625,684.5781 1136.4063,684.8594 1136.4063,685.1563 C1136.4063,685.4063 1136.5469,685.6719 1136.7656,685.8281 C1136.9219,685.9531 1137.125,686 1137.5313,686 L1142.6719,686 C1143.4219,686 1143.7813,685.7188 1143.7813,685.1563 C1143.7813,684.875 1143.6719,684.625 1143.4375,684.4531 C1143.2656,684.3281 1143.125,684.2969 1142.6719,684.2969 L1140.9531,684.2969 L1140.9531,677.7813 Z "/><text fill="#000000" font-family="sans-serif" font-size="12" font-style="italic" lengthAdjust="spacingAndGlyphs" textLength="110" x="1154" y="685.1543">ProdutoRepository</text><line style="stroke: #A80036; stroke-width: 1.5;" x1="1126" x2="1266" y1="697" y2="697"/><line style="stroke: #A80036; stroke-width: 1.5;" x1="1126" x2="1266" y1="705" y2="705"/><text fill="#000000" font-family="sans-serif" font-size="11" lengthAdjust="spacingAndGlyphs" textLength="43" x="1131" y="719.2104">findAll()</text><!--MD5=[718e8fb9ab68670c722c6cb613715e8f]
class DepositoRepository--><rect fill="#FEFECE" filter="url(#f17pvoe9uudtty)" height="60.8047" id="DepositoRepository" style="stroke: #A80036; stroke-width: 1.5;" width="147" x="942.5" y="665"/><ellipse cx="957.5" cy="681" fill="#B4A7E5" rx="11" ry="11" style="stroke: #A80036; stroke-width: 1.0;"/><path d="M958.4531,677.7813 L960.1719,677.7813 C960.5625,677.7813 960.75,677.75 960.875,677.6719 C961.1406,677.5156 961.2813,677.2344 961.2813,676.9375 C961.2813,676.6719 961.1719,676.4063 960.9375,676.2344 C960.7656,676.125 960.625,676.0938 960.1719,676.0938 L955.0313,676.0938 C954.5938,676.0938 954.4688,676.1094 954.3125,676.2031 C954.0625,676.3594 953.9063,676.6563 953.9063,676.9375 C953.9063,677.2188 954.0469,677.4688 954.2656,677.6406 C954.4219,677.75 954.6094,677.7813 955.0313,677.7813 L956.75,677.7813 L956.75,684.2969 L955.0313,684.2969 C954.5938,684.2969 954.4688,684.3125 954.3125,684.4219 C954.0625,684.5781 953.9063,684.8594 953.9063,685.1563 C953.9063,685.4063 954.0469,685.6719 954.2656,685.8281 C954.4219,685.9531 954.625,686 955.0313,686 L960.1719,686 C960.9219,686 961.2813,685.7188 961.2813,685.1563 C961.2813,684.875 961.1719,684.625 960.9375,684.4531 C960.7656,684.3281 960.625,684.2969 960.1719,684.2969 L958.4531,684.2969 L958.4531,677.7813 Z "/><text fill="#000000" font-family="sans-serif" font-size="12" font-style="italic" lengthAdjust="spacingAndGlyphs" textLength="115" x="971.5" y="685.1543">DepositoRepository</text><line style="stroke: #A80036; stroke-width: 1.5;" x1="943.5" x2="1088.5" y1="697" y2="697"/><line style="stroke: #A80036; stroke-width: 1.5;" x1="943.5" x2="1088.5" y1="705" y2="705"/><text fill="#000000" font-family="sans-serif" font-size="11" lengthAdjust="spacingAndGlyphs" textLength="43" x="948.5" y="719.2104">findAll()</text><!--MD5=[109ed7a6ac117cd1bfedd83a11d53e81]
class LoteRepository--><rect fill="#FEFECE" filter="url(#f17pvoe9uudtty)" height="60.8047" id="LoteRepository" style="stroke: #A80036; stroke-width: 1.5;" width="121" x="1111.5" y="960"/><ellipse cx="1126.5" cy="976" fill="#B4A7E5" rx="11" ry="11" style="stroke: #A80036; stroke-width: 1.0;"/><path d="M1127.4531,972.7813 L1129.1719,972.7813 C1129.5625,972.7813 1129.75,972.75 1129.875,972.6719 C1130.1406,972.5156 1130.2813,972.2344 1130.2813,971.9375 C1130.2813,971.6719 1130.1719,971.4063 1129.9375,971.2344 C1129.7656,971.125 1129.625,971.0938 1129.1719,971.0938 L1124.0313,971.0938 C1123.5938,971.0938 1123.4688,971.1094 1123.3125,971.2031 C1123.0625,971.3594 1122.9063,971.6563 1122.9063,971.9375 C1122.9063,972.2188 1123.0469,972.4688 1123.2656,972.6406 C1123.4219,972.75 1123.6094,972.7813 1124.0313,972.7813 L1125.75,972.7813 L1125.75,979.2969 L1124.0313,979.2969 C1123.5938,979.2969 1123.4688,979.3125 1123.3125,979.4219 C1123.0625,979.5781 1122.9063,979.8594 1122.9063,980.1563 C1122.9063,980.4063 1123.0469,980.6719 1123.2656,980.8281 C1123.4219,980.9531 1123.625,981 1124.0313,981 L1129.1719,981 C1129.9219,981 1130.2813,980.7188 1130.2813,980.1563 C1130.2813,979.875 1130.1719,979.625 1129.9375,979.4531 C1129.7656,979.3281 1129.625,979.2969 1129.1719,979.2969 L1127.4531,979.2969 L1127.4531,972.7813 Z "/><text fill="#000000" font-family="sans-serif" font-size="12" font-style="italic" lengthAdjust="spacingAndGlyphs" textLength="89" x="1140.5" y="980.1543">LoteRepository</text><line style="stroke: #A80036; stroke-width: 1.5;" x1="1112.5" x2="1231.5" y1="992" y2="992"/><line style="stroke: #A80036; stroke-width: 1.5;" x1="1112.5" x2="1231.5" y1="1000" y2="1000"/><text fill="#000000" font-family="sans-serif" font-size="11" lengthAdjust="spacingAndGlyphs" textLength="36" x="1117.5" y="1014.2104">save()</text><!--MD5=[23c90b7d003bd6e11d0cfcf1a0c4a1ed]
class OrdemProducaoRepository--><rect fill="#FEFECE" filter="url(#f17pvoe9uudtty)" height="60.8047" id="OrdemProducaoRepository" style="stroke: #A80036; stroke-width: 1.5;" width="192" x="507" y="665"/><ellipse cx="522" cy="681" fill="#B4A7E5" rx="11" ry="11" style="stroke: #A80036; stroke-width: 1.0;"/><path d="M522.9531,677.7813 L524.6719,677.7813 C525.0625,677.7813 525.25,677.75 525.375,677.6719 C525.6406,677.5156 525.7813,677.2344 525.7813,676.9375 C525.7813,676.6719 525.6719,676.4063 525.4375,676.2344 C525.2656,676.125 525.125,676.0938 524.6719,676.0938 L519.5313,676.0938 C519.0938,676.0938 518.9688,676.1094 518.8125,676.2031 C518.5625,676.3594 518.4063,676.6563 518.4063,676.9375 C518.4063,677.2188 518.5469,677.4688 518.7656,677.6406 C518.9219,677.75 519.1094,677.7813 519.5313,677.7813 L521.25,677.7813 L521.25,684.2969 L519.5313,684.2969 C519.0938,684.2969 518.9688,684.3125 518.8125,684.4219 C518.5625,684.5781 518.4063,684.8594 518.4063,685.1563 C518.4063,685.4063 518.5469,685.6719 518.7656,685.8281 C518.9219,685.9531 519.125,686 519.5313,686 L524.6719,686 C525.4219,686 525.7813,685.7188 525.7813,685.1563 C525.7813,684.875 525.6719,684.625 525.4375,684.4531 C525.2656,684.3281 525.125,684.2969 524.6719,684.2969 L522.9531,684.2969 L522.9531,677.7813 Z "/><text fill="#000000" font-family="sans-serif" font-size="12" font-style="italic" lengthAdjust="spacingAndGlyphs" textLength="160" x="536" y="685.1543">OrdemProducaoRepository</text><line style="stroke: #A80036; stroke-width: 1.5;" x1="508" x2="698" y1="697" y2="697"/><line style="stroke: #A80036; stroke-width: 1.5;" x1="508" x2="698" y1="705" y2="705"/><text fill="#000000" font-family="sans-serif" font-size="11" lengthAdjust="spacingAndGlyphs" textLength="43" x="513" y="719.2104">findAll()</text><!--MD5=[de2d739f48fc0fce1ad5ee6630bc7ce3]
class MateriaPrimaRepository--><rect fill="#FEFECE" filter="url(#f17pvoe9uudtty)" height="60.8047" id="MateriaPrimaRepository" style="stroke: #A80036; stroke-width: 1.5;" width="173" x="734.5" y="665"/><ellipse cx="749.5" cy="681" fill="#B4A7E5" rx="11" ry="11" style="stroke: #A80036; stroke-width: 1.0;"/><path d="M750.4531,677.7813 L752.1719,677.7813 C752.5625,677.7813 752.75,677.75 752.875,677.6719 C753.1406,677.5156 753.2813,677.2344 753.2813,676.9375 C753.2813,676.6719 753.1719,676.4063 752.9375,676.2344 C752.7656,676.125 752.625,676.0938 752.1719,676.0938 L747.0313,676.0938 C746.5938,676.0938 746.4688,676.1094 746.3125,676.2031 C746.0625,676.3594 745.9063,676.6563 745.9063,676.9375 C745.9063,677.2188 746.0469,677.4688 746.2656,677.6406 C746.4219,677.75 746.6094,677.7813 747.0313,677.7813 L748.75,677.7813 L748.75,684.2969 L747.0313,684.2969 C746.5938,684.2969 746.4688,684.3125 746.3125,684.4219 C746.0625,684.5781 745.9063,684.8594 745.9063,685.1563 C745.9063,685.4063 746.0469,685.6719 746.2656,685.8281 C746.4219,685.9531 746.625,686 747.0313,686 L752.1719,686 C752.9219,686 753.2813,685.7188 753.2813,685.1563 C753.2813,684.875 753.1719,684.625 752.9375,684.4531 C752.7656,684.3281 752.625,684.2969 752.1719,684.2969 L750.4531,684.2969 L750.4531,677.7813 Z "/><text fill="#000000" font-family="sans-serif" font-size="12" font-style="italic" lengthAdjust="spacingAndGlyphs" textLength="141" x="763.5" y="685.1543">MateriaPrimaRepository</text><line style="stroke: #A80036; stroke-width: 1.5;" x1="735.5" x2="906.5" y1="697" y2="697"/><line style="stroke: #A80036; stroke-width: 1.5;" x1="735.5" x2="906.5" y1="705" y2="705"/><text fill="#000000" font-family="sans-serif" font-size="11" lengthAdjust="spacingAndGlyphs" textLength="43" x="740.5" y="719.2104">findAll()</text><!--MD5=[9bfb0a262b4c44c64afdaaac06d196fe]
class MovimentoStockRepository--><rect fill="#FEFECE" filter="url(#f17pvoe9uudtty)" height="60.8047" id="MovimentoStockRepository" style="stroke: #A80036; stroke-width: 1.5;" width="195" x="881.5" y="960"/><ellipse cx="896.5" cy="976" fill="#B4A7E5" rx="11" ry="11" style="stroke: #A80036; stroke-width: 1.0;"/><path d="M897.4531,972.7813 L899.1719,972.7813 C899.5625,972.7813 899.75,972.75 899.875,972.6719 C900.1406,972.5156 900.2813,972.2344 900.2813,971.9375 C900.2813,971.6719 900.1719,971.4063 899.9375,971.2344 C899.7656,971.125 899.625,971.0938 899.1719,971.0938 L894.0313,971.0938 C893.5938,971.0938 893.4688,971.1094 893.3125,971.2031 C893.0625,971.3594 892.9063,971.6563 892.9063,971.9375 C892.9063,972.2188 893.0469,972.4688 893.2656,972.6406 C893.4219,972.75 893.6094,972.7813 894.0313,972.7813 L895.75,972.7813 L895.75,979.2969 L894.0313,979.2969 C893.5938,979.2969 893.4688,979.3125 893.3125,979.4219 C893.0625,979.5781 892.9063,979.8594 892.9063,980.1563 C892.9063,980.4063 893.0469,980.6719 893.2656,980.8281 C893.4219,980.9531 893.625,981 894.0313,981 L899.1719,981 C899.9219,981 900.2813,980.7188 900.2813,980.1563 C900.2813,979.875 900.1719,979.625 899.9375,979.4531 C899.7656,979.3281 899.625,979.2969 899.1719,979.2969 L897.4531,979.2969 L897.4531,972.7813 Z "/><text fill="#000000" font-family="sans-serif" font-size="12" font-style="italic" lengthAdjust="spacingAndGlyphs" textLength="163" x="910.5" y="980.1543">MovimentoStockRepository</text><line style="stroke: #A80036; stroke-width: 1.5;" x1="882.5" x2="1075.5" y1="992" y2="992"/><line style="stroke: #A80036; stroke-width: 1.5;" x1="882.5" x2="1075.5" y1="1000" y2="1000"/><text fill="#000000" font-family="sans-serif" font-size="11" lengthAdjust="spacingAndGlyphs" textLength="36" x="887.5" y="1014.2104">save()</text><!--MD5=[0ee96c5f940d95d11657d65a3cc764c2]
class ProcessamentoMensagens--><rect fill="#FEFECE" filter="url(#f17pvoe9uudtty)" height="86.4141" id="ProcessamentoMensagens" style="stroke: #A80036; stroke-width: 1.5;" width="194" x="217" y="131"/><ellipse cx="232" cy="147" fill="#ADD1B2" rx="11" ry="11" style="stroke: #A80036; stroke-width: 1.0;"/><path d="M234.3438,142.6719 C233.4063,142.2344 232.8125,142.0938 231.9375,142.0938 C229.3125,142.0938 227.3125,144.1719 227.3125,146.8906 L227.3125,148.0156 C227.3125,150.5938 229.4219,152.4844 232.3125,152.4844 C233.5313,152.4844 234.6875,152.1875 235.4375,151.6406 C236.0156,151.2344 236.3438,150.7813 236.3438,150.3906 C236.3438,149.9375 235.9531,149.5469 235.4844,149.5469 C235.2656,149.5469 235.0625,149.625 234.875,149.8125 C234.4219,150.2969 234.4219,150.2969 234.2344,150.3906 C233.8125,150.6563 233.125,150.7813 232.3594,150.7813 C230.3125,150.7813 229.0156,149.6875 229.0156,147.9844 L229.0156,146.8906 C229.0156,145.1094 230.2656,143.7969 232,143.7969 C232.5781,143.7969 233.1875,143.9531 233.6563,144.2031 C234.1406,144.4844 234.3125,144.7031 234.4063,145.1094 C234.4688,145.5156 234.5,145.6406 234.6406,145.7656 C234.7813,145.9063 235.0156,146.0156 235.2344,146.0156 C235.5,146.0156 235.7656,145.875 235.9375,145.6563 C236.0469,145.5 236.0781,145.3125 236.0781,144.8906 L236.0781,143.4688 C236.0781,143.0313 236.0625,142.9063 235.9688,142.75 C235.8125,142.4844 235.5313,142.3438 235.2344,142.3438 C234.9375,142.3438 234.7344,142.4375 234.5156,142.75 L234.3438,142.6719 Z "/><text fill="#000000" font-family="sans-serif" font-size="12" lengthAdjust="spacingAndGlyphs" textLength="162" x="246" y="151.1543">ProcessamentoMensagens</text><line style="stroke: #A80036; stroke-width: 1.5;" x1="218" x2="410" y1="163" y2="163"/><line style="stroke: #A80036; stroke-width: 1.5;" x1="218" x2="410" y1="171" y2="171"/><text fill="#000000" font-family="sans-serif" font-size="11" lengthAdjust="spacingAndGlyphs" textLength="144" x="223" y="185.2104">obterDataHoraInicio(args)</text><text fill="#000000" font-family="sans-serif" font-size="11" lengthAdjust="spacingAndGlyphs" textLength="135" x="223" y="198.0151">obterDataHoraFim(args)</text><text fill="#000000" font-family="sans-serif" font-size="11" lengthAdjust="spacingAndGlyphs" textLength="175" x="223" y="210.8198">obterLinhasProducao(args,lista)</text><!--MD5=[f24450015fd86db9bdca15b968470e55]
class ProcessamentoMensagensLinha--><rect fill="#FEFECE" filter="url(#f17pvoe9uudtty)" height="112.0234" id="ProcessamentoMensagensLinha" style="stroke: #A80036; stroke-width: 1.5;" width="224" x="502" y="294"/><ellipse cx="517" cy="310" fill="#ADD1B2" rx="11" ry="11" style="stroke: #A80036; stroke-width: 1.0;"/><path d="M519.3438,305.6719 C518.4063,305.2344 517.8125,305.0938 516.9375,305.0938 C514.3125,305.0938 512.3125,307.1719 512.3125,309.8906 L512.3125,311.0156 C512.3125,313.5938 514.4219,315.4844 517.3125,315.4844 C518.5313,315.4844 519.6875,315.1875 520.4375,314.6406 C521.0156,314.2344 521.3438,313.7813 521.3438,313.3906 C521.3438,312.9375 520.9531,312.5469 520.4844,312.5469 C520.2656,312.5469 520.0625,312.625 519.875,312.8125 C519.4219,313.2969 519.4219,313.2969 519.2344,313.3906 C518.8125,313.6563 518.125,313.7813 517.3594,313.7813 C515.3125,313.7813 514.0156,312.6875 514.0156,310.9844 L514.0156,309.8906 C514.0156,308.1094 515.2656,306.7969 517,306.7969 C517.5781,306.7969 518.1875,306.9531 518.6563,307.2031 C519.1406,307.4844 519.3125,307.7031 519.4063,308.1094 C519.4688,308.5156 519.5,308.6406 519.6406,308.7656 C519.7813,308.9063 520.0156,309.0156 520.2344,309.0156 C520.5,309.0156 520.7656,308.875 520.9375,308.6563 C521.0469,308.5 521.0781,308.3125 521.0781,307.8906 L521.0781,306.4688 C521.0781,306.0313 521.0625,305.9063 520.9688,305.75 C520.8125,305.4844 520.5313,305.3438 520.2344,305.3438 C519.9375,305.3438 519.7344,305.4375 519.5156,305.75 L519.3438,305.6719 Z "/><text fill="#000000" font-family="sans-serif" font-size="12" lengthAdjust="spacingAndGlyphs" textLength="192" x="531" y="314.1543">ProcessamentoMensagensLinha</text><line style="stroke: #A80036; stroke-width: 1.5;" x1="503" x2="725" y1="326" y2="326"/><line style="stroke: #A80036; stroke-width: 1.5;" x1="503" x2="725" y1="334" y2="334"/><text fill="#000000" font-family="sans-serif" font-size="11" lengthAdjust="spacingAndGlyphs" textLength="125" x="508" y="348.2104">create(inicio,fim,linha)</text><text fill="#000000" font-family="sans-serif" font-size="11" lengthAdjust="spacingAndGlyphs" textLength="26" x="508" y="361.0151">run()</text><text fill="#000000" font-family="sans-serif" font-size="11" lengthAdjust="spacingAndGlyphs" textLength="109" x="508" y="373.8198">getDataHoraInicio()</text><text fill="#000000" font-family="sans-serif" font-size="11" lengthAdjust="spacingAndGlyphs" textLength="100" x="508" y="386.6245">getDataHoraFim()</text><text fill="#000000" font-family="sans-serif" font-size="11" lengthAdjust="spacingAndGlyphs" textLength="108" x="508" y="399.4292">getLinhaProducao()</text><!--MD5=[bb0c9a9dfb673bb43f20263e8fa733a0]
class ServicoProcessamentoMensagens--><rect fill="#FEFECE" filter="url(#f17pvoe9uudtty)" height="48" id="ServicoProcessamentoMensagens" style="stroke: #A80036; stroke-width: 1.5;" width="240" x="194" y="6"/><ellipse cx="209" cy="22" fill="#ADD1B2" rx="11" ry="11" style="stroke: #A80036; stroke-width: 1.0;"/><path d="M211.3438,17.6719 C210.4063,17.2344 209.8125,17.0938 208.9375,17.0938 C206.3125,17.0938 204.3125,19.1719 204.3125,21.8906 L204.3125,23.0156 C204.3125,25.5938 206.4219,27.4844 209.3125,27.4844 C210.5313,27.4844 211.6875,27.1875 212.4375,26.6406 C213.0156,26.2344 213.3438,25.7813 213.3438,25.3906 C213.3438,24.9375 212.9531,24.5469 212.4844,24.5469 C212.2656,24.5469 212.0625,24.625 211.875,24.8125 C211.4219,25.2969 211.4219,25.2969 211.2344,25.3906 C210.8125,25.6563 210.125,25.7813 209.3594,25.7813 C207.3125,25.7813 206.0156,24.6875 206.0156,22.9844 L206.0156,21.8906 C206.0156,20.1094 207.2656,18.7969 209,18.7969 C209.5781,18.7969 210.1875,18.9531 210.6563,19.2031 C211.1406,19.4844 211.3125,19.7031 211.4063,20.1094 C211.4688,20.5156 211.5,20.6406 211.6406,20.7656 C211.7813,20.9063 212.0156,21.0156 212.2344,21.0156 C212.5,21.0156 212.7656,20.875 212.9375,20.6563 C213.0469,20.5 213.0781,20.3125 213.0781,19.8906 L213.0781,18.4688 C213.0781,18.0313 213.0625,17.9063 212.9688,17.75 C212.8125,17.4844 212.5313,17.3438 212.2344,17.3438 C211.9375,17.3438 211.7344,17.4375 211.5156,17.75 L211.3438,17.6719 Z "/><text fill="#000000" font-family="sans-serif" font-size="12" lengthAdjust="spacingAndGlyphs" textLength="208" x="223" y="26.1543">ServicoProcessamentoMensagens</text><line style="stroke: #A80036; stroke-width: 1.5;" x1="195" x2="433" y1="38" y2="38"/><line style="stroke: #A80036; stroke-width: 1.5;" x1="195" x2="433" y1="46" y2="46"/><!--MD5=[af9340adb1feb18dee5360eeeca3e41c]
class ValidacaoMensagens--><rect fill="#FEFECE" filter="url(#f17pvoe9uudtty)" height="60.8047" id="ValidacaoMensagens" style="stroke: #A80036; stroke-width: 1.5;" width="168" x="835" y="495.5"/><ellipse cx="854.05" cy="511.5" fill="#ADD1B2" rx="11" ry="11" style="stroke: #A80036; stroke-width: 1.0;"/><path d="M856.3938,507.1719 C855.4563,506.7344 854.8625,506.5938 853.9875,506.5938 C851.3625,506.5938 849.3625,508.6719 849.3625,511.3906 L849.3625,512.5156 C849.3625,515.0938 851.4719,516.9844 854.3625,516.9844 C855.5813,516.9844 856.7375,516.6875 857.4875,516.1406 C858.0656,515.7344 858.3938,515.2813 858.3938,514.8906 C858.3938,514.4375 858.0031,514.0469 857.5344,514.0469 C857.3156,514.0469 857.1125,514.125 856.925,514.3125 C856.4719,514.7969 856.4719,514.7969 856.2844,514.8906 C855.8625,515.1563 855.175,515.2813 854.4094,515.2813 C852.3625,515.2813 851.0656,514.1875 851.0656,512.4844 L851.0656,511.3906 C851.0656,509.6094 852.3156,508.2969 854.05,508.2969 C854.6281,508.2969 855.2375,508.4531 855.7063,508.7031 C856.1906,508.9844 856.3625,509.2031 856.4563,509.6094 C856.5188,510.0156 856.55,510.1406 856.6906,510.2656 C856.8313,510.4063 857.0656,510.5156 857.2844,510.5156 C857.55,510.5156 857.8156,510.375 857.9875,510.1563 C858.0969,510 858.1281,509.8125 858.1281,509.3906 L858.1281,507.9688 C858.1281,507.5313 858.1125,507.4063 858.0188,507.25 C857.8625,506.9844 857.5813,506.8438 857.2844,506.8438 C856.9875,506.8438 856.7844,506.9375 856.5656,507.25 L856.3938,507.1719 Z "/><text fill="#000000" font-family="sans-serif" font-size="12" lengthAdjust="spacingAndGlyphs" textLength="127" x="868.95" y="515.6543">ValidacaoMensagens</text><line style="stroke: #A80036; stroke-width: 1.5;" x1="836" x2="1002" y1="527.5" y2="527.5"/><line style="stroke: #A80036; stroke-width: 1.5;" x1="836" x2="1002" y1="535.5" y2="535.5"/><text fill="#000000" font-family="sans-serif" font-size="11" lengthAdjust="spacingAndGlyphs" textLength="156" x="841" y="549.7104">validarMensagens(listaMsg)</text><!--MD5=[79e362a10295a78f4c209fc6faefd093]
class EnriquecimentoMensagens--><rect fill="#FEFECE" filter="url(#f17pvoe9uudtty)" height="60.8047" id="EnriquecimentoMensagens" style="stroke: #A80036; stroke-width: 1.5;" width="222" x="171" y="495.5"/><ellipse cx="198.6" cy="511.5" fill="#ADD1B2" rx="11" ry="11" style="stroke: #A80036; stroke-width: 1.0;"/><path d="M200.9438,507.1719 C200.0063,506.7344 199.4125,506.5938 198.5375,506.5938 C195.9125,506.5938 193.9125,508.6719 193.9125,511.3906 L193.9125,512.5156 C193.9125,515.0938 196.0219,516.9844 198.9125,516.9844 C200.1313,516.9844 201.2875,516.6875 202.0375,516.1406 C202.6156,515.7344 202.9438,515.2813 202.9438,514.8906 C202.9438,514.4375 202.5531,514.0469 202.0844,514.0469 C201.8656,514.0469 201.6625,514.125 201.475,514.3125 C201.0219,514.7969 201.0219,514.7969 200.8344,514.8906 C200.4125,515.1563 199.725,515.2813 198.9594,515.2813 C196.9125,515.2813 195.6156,514.1875 195.6156,512.4844 L195.6156,511.3906 C195.6156,509.6094 196.8656,508.2969 198.6,508.2969 C199.1781,508.2969 199.7875,508.4531 200.2563,508.7031 C200.7406,508.9844 200.9125,509.2031 201.0063,509.6094 C201.0688,510.0156 201.1,510.1406 201.2406,510.2656 C201.3813,510.4063 201.6156,510.5156 201.8344,510.5156 C202.1,510.5156 202.3656,510.375 202.5375,510.1563 C202.6469,510 202.6781,509.8125 202.6781,509.3906 L202.6781,507.9688 C202.6781,507.5313 202.6625,507.4063 202.5688,507.25 C202.4125,506.9844 202.1313,506.8438 201.8344,506.8438 C201.5375,506.8438 201.3344,506.9375 201.1156,507.25 L200.9438,507.1719 Z "/><text fill="#000000" font-family="sans-serif" font-size="12" lengthAdjust="spacingAndGlyphs" textLength="162" x="215.4" y="515.6543">EnriquecimentoMensagens</text><line style="stroke: #A80036; stroke-width: 1.5;" x1="172" x2="392" y1="527.5" y2="527.5"/><line style="stroke: #A80036; stroke-width: 1.5;" x1="172" x2="392" y1="535.5" y2="535.5"/><text fill="#000000" font-family="sans-serif" font-size="11" lengthAdjust="spacingAndGlyphs" textLength="210" x="177" y="549.7104">enriquecerMensagens(listaMsg,linha)</text><!--MD5=[670940c22e0776f9caa6e9e5a1ab03d6]
class AtualizacaoOrdemProducao--><rect fill="#FEFECE" filter="url(#f17pvoe9uudtty)" height="60.8047" id="AtualizacaoOrdemProducao" style="stroke: #A80036; stroke-width: 1.5;" width="286" x="1029" y="822"/><ellipse cx="1084.75" cy="838" fill="#ADD1B2" rx="11" ry="11" style="stroke: #A80036; stroke-width: 1.0;"/><path d="M1087.0938,833.6719 C1086.1563,833.2344 1085.5625,833.0938 1084.6875,833.0938 C1082.0625,833.0938 1080.0625,835.1719 1080.0625,837.8906 L1080.0625,839.0156 C1080.0625,841.5938 1082.1719,843.4844 1085.0625,843.4844 C1086.2813,843.4844 1087.4375,843.1875 1088.1875,842.6406 C1088.7656,842.2344 1089.0938,841.7813 1089.0938,841.3906 C1089.0938,840.9375 1088.7031,840.5469 1088.2344,840.5469 C1088.0156,840.5469 1087.8125,840.625 1087.625,840.8125 C1087.1719,841.2969 1087.1719,841.2969 1086.9844,841.3906 C1086.5625,841.6563 1085.875,841.7813 1085.1094,841.7813 C1083.0625,841.7813 1081.7656,840.6875 1081.7656,838.9844 L1081.7656,837.8906 C1081.7656,836.1094 1083.0156,834.7969 1084.75,834.7969 C1085.3281,834.7969 1085.9375,834.9531 1086.4063,835.2031 C1086.8906,835.4844 1087.0625,835.7031 1087.1563,836.1094 C1087.2188,836.5156 1087.25,836.6406 1087.3906,836.7656 C1087.5313,836.9063 1087.7656,837.0156 1087.9844,837.0156 C1088.25,837.0156 1088.5156,836.875 1088.6875,836.6563 C1088.7969,836.5 1088.8281,836.3125 1088.8281,835.8906 L1088.8281,834.4688 C1088.8281,834.0313 1088.8125,833.9063 1088.7188,833.75 C1088.5625,833.4844 1088.2813,833.3438 1087.9844,833.3438 C1087.6875,833.3438 1087.4844,833.4375 1087.2656,833.75 L1087.0938,833.6719 Z "/><text fill="#000000" font-family="sans-serif" font-size="12" lengthAdjust="spacingAndGlyphs" textLength="166" x="1105.25" y="842.1543">AtualizacaoOrdemProducao</text><line style="stroke: #A80036; stroke-width: 1.5;" x1="1030" x2="1314" y1="854" y2="854"/><line style="stroke: #A80036; stroke-width: 1.5;" x1="1030" x2="1314" y1="862" y2="862"/><text fill="#000000" font-family="sans-serif" font-size="11" lengthAdjust="spacingAndGlyphs" textLength="274" x="1035" y="876.2104">atualizarOrdemProducao(listaMsg,idOrdem,linha)</text><!--MD5=[151056aeca5d69be1d79384bb6a512f0]
class Mensagem--><rect fill="#FEFECE" filter="url(#f17pvoe9uudtty)" height="99.2188" id="Mensagem" style="stroke: #A80036; stroke-width: 1.5;" width="98" x="374" y="646"/><ellipse cx="389" cy="662" fill="#ADD1B2" rx="11" ry="11" style="stroke: #A80036; stroke-width: 1.0;"/><path d="M391.3438,657.6719 C390.4063,657.2344 389.8125,657.0938 388.9375,657.0938 C386.3125,657.0938 384.3125,659.1719 384.3125,661.8906 L384.3125,663.0156 C384.3125,665.5938 386.4219,667.4844 389.3125,667.4844 C390.5313,667.4844 391.6875,667.1875 392.4375,666.6406 C393.0156,666.2344 393.3438,665.7813 393.3438,665.3906 C393.3438,664.9375 392.9531,664.5469 392.4844,664.5469 C392.2656,664.5469 392.0625,664.625 391.875,664.8125 C391.4219,665.2969 391.4219,665.2969 391.2344,665.3906 C390.8125,665.6563 390.125,665.7813 389.3594,665.7813 C387.3125,665.7813 386.0156,664.6875 386.0156,662.9844 L386.0156,661.8906 C386.0156,660.1094 387.2656,658.7969 389,658.7969 C389.5781,658.7969 390.1875,658.9531 390.6563,659.2031 C391.1406,659.4844 391.3125,659.7031 391.4063,660.1094 C391.4688,660.5156 391.5,660.6406 391.6406,660.7656 C391.7813,660.9063 392.0156,661.0156 392.2344,661.0156 C392.5,661.0156 392.7656,660.875 392.9375,660.6563 C393.0469,660.5 393.0781,660.3125 393.0781,659.8906 L393.0781,658.4688 C393.0781,658.0313 393.0625,657.9063 392.9688,657.75 C392.8125,657.4844 392.5313,657.3438 392.2344,657.3438 C391.9375,657.3438 391.7344,657.4375 391.5156,657.75 L391.3438,657.6719 Z "/><text fill="#000000" font-family="sans-serif" font-size="12" lengthAdjust="spacingAndGlyphs" textLength="66" x="403" y="666.1543">Mensagem</text><line style="stroke: #A80036; stroke-width: 1.5;" x1="375" x2="471" y1="678" y2="678"/><text fill="#000000" font-family="sans-serif" font-size="11" lengthAdjust="spacingAndGlyphs" textLength="57" x="380" y="692.2104">idMaquina</text><text fill="#000000" font-family="sans-serif" font-size="11" lengthAdjust="spacingAndGlyphs" textLength="51" x="380" y="705.0151">dataHora</text><text fill="#000000" font-family="sans-serif" font-size="11" lengthAdjust="spacingAndGlyphs" textLength="39" x="380" y="717.8198">estado</text><line style="stroke: #A80036; stroke-width: 1.5;" x1="375" x2="471" y1="724.4141" y2="724.4141"/><text fill="#000000" font-family="sans-serif" font-size="11" lengthAdjust="spacingAndGlyphs" textLength="63" x="380" y="738.6245">processar()</text><!--MD5=[3263439dcbd8325e60ff00bbf29b784d]
class LinhaProducao--><rect fill="#FEFECE" filter="url(#f17pvoe9uudtty)" height="86.4141" id="LinhaProducao" style="stroke: #A80036; stroke-width: 1.5;" width="130" x="6" y="483"/><ellipse cx="26.4" cy="499" fill="#ADD1B2" rx="11" ry="11" style="stroke: #A80036; stroke-width: 1.0;"/><path d="M28.7438,494.6719 C27.8063,494.2344 27.2125,494.0938 26.3375,494.0938 C23.7125,494.0938 21.7125,496.1719 21.7125,498.8906 L21.7125,500.0156 C21.7125,502.5938 23.8219,504.4844 26.7125,504.4844 C27.9313,504.4844 29.0875,504.1875 29.8375,503.6406 C30.4156,503.2344 30.7438,502.7813 30.7438,502.3906 C30.7438,501.9375 30.3531,501.5469 29.8844,501.5469 C29.6656,501.5469 29.4625,501.625 29.275,501.8125 C28.8219,502.2969 28.8219,502.2969 28.6344,502.3906 C28.2125,502.6563 27.525,502.7813 26.7594,502.7813 C24.7125,502.7813 23.4156,501.6875 23.4156,499.9844 L23.4156,498.8906 C23.4156,497.1094 24.6656,495.7969 26.4,495.7969 C26.9781,495.7969 27.5875,495.9531 28.0563,496.2031 C28.5406,496.4844 28.7125,496.7031 28.8063,497.1094 C28.8688,497.5156 28.9,497.6406 29.0406,497.7656 C29.1813,497.9063 29.4156,498.0156 29.6344,498.0156 C29.9,498.0156 30.1656,497.875 30.3375,497.6563 C30.4469,497.5 30.4781,497.3125 30.4781,496.8906 L30.4781,495.4688 C30.4781,495.0313 30.4625,494.9063 30.3688,494.75 C30.2125,494.4844 29.9313,494.3438 29.6344,494.3438 C29.3375,494.3438 29.1344,494.4375 28.9156,494.75 L28.7438,494.6719 Z "/><text fill="#000000" font-family="sans-serif" font-size="12" lengthAdjust="spacingAndGlyphs" textLength="86" x="41.6" y="503.1543">LinhaProducao</text><line style="stroke: #A80036; stroke-width: 1.5;" x1="7" x2="135" y1="515" y2="515"/><text fill="#000000" font-family="sans-serif" font-size="11" lengthAdjust="spacingAndGlyphs" textLength="91" x="12" y="529.2104">idLinhaProducao</text><line style="stroke: #A80036; stroke-width: 1.5;" x1="7" x2="135" y1="535.8047" y2="535.8047"/><text fill="#000000" font-family="sans-serif" font-size="11" lengthAdjust="spacingAndGlyphs" textLength="106" x="12" y="550.0151">getListaMaquinas()</text><text fill="#000000" font-family="sans-serif" font-size="11" lengthAdjust="spacingAndGlyphs" textLength="118" x="12" y="562.8198">getIdLinhaProducao()</text><!--MD5=[998c786a3ec01e3a4cd64978ede0c0df]
class Lote--><rect fill="#FEFECE" filter="url(#f17pvoe9uudtty)" height="48" id="Lote" style="stroke: #A80036; stroke-width: 1.5;" width="58" x="1032" y="1098"/><ellipse cx="1047" cy="1114" fill="#ADD1B2" rx="11" ry="11" style="stroke: #A80036; stroke-width: 1.0;"/><path d="M1049.3438,1109.6719 C1048.4063,1109.2344 1047.8125,1109.0938 1046.9375,1109.0938 C1044.3125,1109.0938 1042.3125,1111.1719 1042.3125,1113.8906 L1042.3125,1115.0156 C1042.3125,1117.5938 1044.4219,1119.4844 1047.3125,1119.4844 C1048.5313,1119.4844 1049.6875,1119.1875 1050.4375,1118.6406 C1051.0156,1118.2344 1051.3438,1117.7813 1051.3438,1117.3906 C1051.3438,1116.9375 1050.9531,1116.5469 1050.4844,1116.5469 C1050.2656,1116.5469 1050.0625,1116.625 1049.875,1116.8125 C1049.4219,1117.2969 1049.4219,1117.2969 1049.2344,1117.3906 C1048.8125,1117.6563 1048.125,1117.7813 1047.3594,1117.7813 C1045.3125,1117.7813 1044.0156,1116.6875 1044.0156,1114.9844 L1044.0156,1113.8906 C1044.0156,1112.1094 1045.2656,1110.7969 1047,1110.7969 C1047.5781,1110.7969 1048.1875,1110.9531 1048.6563,1111.2031 C1049.1406,1111.4844 1049.3125,1111.7031 1049.4063,1112.1094 C1049.4688,1112.5156 1049.5,1112.6406 1049.6406,1112.7656 C1049.7813,1112.9063 1050.0156,1113.0156 1050.2344,1113.0156 C1050.5,1113.0156 1050.7656,1112.875 1050.9375,1112.6563 C1051.0469,1112.5 1051.0781,1112.3125 1051.0781,1111.8906 L1051.0781,1110.4688 C1051.0781,1110.0313 1051.0625,1109.9063 1050.9688,1109.75 C1050.8125,1109.4844 1050.5313,1109.3438 1050.2344,1109.3438 C1049.9375,1109.3438 1049.7344,1109.4375 1049.5156,1109.75 L1049.3438,1109.6719 Z "/><text fill="#000000" font-family="sans-serif" font-size="12" lengthAdjust="spacingAndGlyphs" textLength="26" x="1061" y="1118.1543">Lote</text><line style="stroke: #A80036; stroke-width: 1.5;" x1="1033" x2="1089" y1="1130" y2="1130"/><line style="stroke: #A80036; stroke-width: 1.5;" x1="1033" x2="1089" y1="1138" y2="1138"/><!--MD5=[9859a11a6e41833f874c0ac61aeef856]
class MovimentoStock--><rect fill="#FEFECE" filter="url(#f17pvoe9uudtty)" height="48" id="MovimentoStock" style="stroke: #A80036; stroke-width: 1.5;" width="132" x="807" y="1098"/><ellipse cx="822" cy="1114" fill="#ADD1B2" rx="11" ry="11" style="stroke: #A80036; stroke-width: 1.0;"/><path d="M824.3438,1109.6719 C823.4063,1109.2344 822.8125,1109.0938 821.9375,1109.0938 C819.3125,1109.0938 817.3125,1111.1719 817.3125,1113.8906 L817.3125,1115.0156 C817.3125,1117.5938 819.4219,1119.4844 822.3125,1119.4844 C823.5313,1119.4844 824.6875,1119.1875 825.4375,1118.6406 C826.0156,1118.2344 826.3438,1117.7813 826.3438,1117.3906 C826.3438,1116.9375 825.9531,1116.5469 825.4844,1116.5469 C825.2656,1116.5469 825.0625,1116.625 824.875,1116.8125 C824.4219,1117.2969 824.4219,1117.2969 824.2344,1117.3906 C823.8125,1117.6563 823.125,1117.7813 822.3594,1117.7813 C820.3125,1117.7813 819.0156,1116.6875 819.0156,1114.9844 L819.0156,1113.8906 C819.0156,1112.1094 820.2656,1110.7969 822,1110.7969 C822.5781,1110.7969 823.1875,1110.9531 823.6563,1111.2031 C824.1406,1111.4844 824.3125,1111.7031 824.4063,1112.1094 C824.4688,1112.5156 824.5,1112.6406 824.6406,1112.7656 C824.7813,1112.9063 825.0156,1113.0156 825.2344,1113.0156 C825.5,1113.0156 825.7656,1112.875 825.9375,1112.6563 C826.0469,1112.5 826.0781,1112.3125 826.0781,1111.8906 L826.0781,1110.4688 C826.0781,1110.0313 826.0625,1109.9063 825.9688,1109.75 C825.8125,1109.4844 825.5313,1109.3438 825.2344,1109.3438 C824.9375,1109.3438 824.7344,1109.4375 824.5156,1109.75 L824.3438,1109.6719 Z "/><text fill="#000000" font-family="sans-serif" font-size="12" lengthAdjust="spacingAndGlyphs" textLength="100" x="836" y="1118.1543">MovimentoStock</text><line style="stroke: #A80036; stroke-width: 1.5;" x1="808" x2="938" y1="1130" y2="1130"/><line style="stroke: #A80036; stroke-width: 1.5;" x1="808" x2="938" y1="1138" y2="1138"/><!--MD5=[91b5771deff141673f0d50a4eb9570d6]
class OrdemProducao--><rect fill="#FEFECE" filter="url(#f17pvoe9uudtty)" height="48" id="OrdemProducao" style="stroke: #A80036; stroke-width: 1.5;" width="130" x="631" y="828.5"/><ellipse cx="646" cy="844.5" fill="#ADD1B2" rx="11" ry="11" style="stroke: #A80036; stroke-width: 1.0;"/><path d="M648.3438,840.1719 C647.4063,839.7344 646.8125,839.5938 645.9375,839.5938 C643.3125,839.5938 641.3125,841.6719 641.3125,844.3906 L641.3125,845.5156 C641.3125,848.0938 643.4219,849.9844 646.3125,849.9844 C647.5313,849.9844 648.6875,849.6875 649.4375,849.1406 C650.0156,848.7344 650.3438,848.2813 650.3438,847.8906 C650.3438,847.4375 649.9531,847.0469 649.4844,847.0469 C649.2656,847.0469 649.0625,847.125 648.875,847.3125 C648.4219,847.7969 648.4219,847.7969 648.2344,847.8906 C647.8125,848.1563 647.125,848.2813 646.3594,848.2813 C644.3125,848.2813 643.0156,847.1875 643.0156,845.4844 L643.0156,844.3906 C643.0156,842.6094 644.2656,841.2969 646,841.2969 C646.5781,841.2969 647.1875,841.4531 647.6563,841.7031 C648.1406,841.9844 648.3125,842.2031 648.4063,842.6094 C648.4688,843.0156 648.5,843.1406 648.6406,843.2656 C648.7813,843.4063 649.0156,843.5156 649.2344,843.5156 C649.5,843.5156 649.7656,843.375 649.9375,843.1563 C650.0469,843 650.0781,842.8125 650.0781,842.3906 L650.0781,840.9688 C650.0781,840.5313 650.0625,840.4063 649.9688,840.25 C649.8125,839.9844 649.5313,839.8438 649.2344,839.8438 C648.9375,839.8438 648.7344,839.9375 648.5156,840.25 L648.3438,840.1719 Z "/><text fill="#000000" font-family="sans-serif" font-size="12" lengthAdjust="spacingAndGlyphs" textLength="98" x="660" y="848.6543">OrdemProducao</text><line style="stroke: #A80036; stroke-width: 1.5;" x1="632" x2="760" y1="860.5" y2="860.5"/><line style="stroke: #A80036; stroke-width: 1.5;" x1="632" x2="760" y1="868.5" y2="868.5"/><!--MD5=[931467b45c4fdb0bbcd27d8a12091547]
class ExecucaoOrdemProducao--><rect fill="#FEFECE" filter="url(#f17pvoe9uudtty)" height="48" id="ExecucaoOrdemProducao" style="stroke: #A80036; stroke-width: 1.5;" width="188" x="658" y="966.5"/><ellipse cx="673" cy="982.5" fill="#ADD1B2" rx="11" ry="11" style="stroke: #A80036; stroke-width: 1.0;"/><path d="M675.3438,978.1719 C674.4063,977.7344 673.8125,977.5938 672.9375,977.5938 C670.3125,977.5938 668.3125,979.6719 668.3125,982.3906 L668.3125,983.5156 C668.3125,986.0938 670.4219,987.9844 673.3125,987.9844 C674.5313,987.9844 675.6875,987.6875 676.4375,987.1406 C677.0156,986.7344 677.3438,986.2813 677.3438,985.8906 C677.3438,985.4375 676.9531,985.0469 676.4844,985.0469 C676.2656,985.0469 676.0625,985.125 675.875,985.3125 C675.4219,985.7969 675.4219,985.7969 675.2344,985.8906 C674.8125,986.1563 674.125,986.2813 673.3594,986.2813 C671.3125,986.2813 670.0156,985.1875 670.0156,983.4844 L670.0156,982.3906 C670.0156,980.6094 671.2656,979.2969 673,979.2969 C673.5781,979.2969 674.1875,979.4531 674.6563,979.7031 C675.1406,979.9844 675.3125,980.2031 675.4063,980.6094 C675.4688,981.0156 675.5,981.1406 675.6406,981.2656 C675.7813,981.4063 676.0156,981.5156 676.2344,981.5156 C676.5,981.5156 676.7656,981.375 676.9375,981.1563 C677.0469,981 677.0781,980.8125 677.0781,980.3906 L677.0781,978.9688 C677.0781,978.5313 677.0625,978.4063 676.9688,978.25 C676.8125,977.9844 676.5313,977.8438 676.2344,977.8438 C675.9375,977.8438 675.7344,977.9375 675.5156,978.25 L675.3438,978.1719 Z "/><text fill="#000000" font-family="sans-serif" font-size="12" lengthAdjust="spacingAndGlyphs" textLength="156" x="687" y="986.6543">ExecucaoOrdemProducao</text><line style="stroke: #A80036; stroke-width: 1.5;" x1="659" x2="845" y1="998.5" y2="998.5"/><line style="stroke: #A80036; stroke-width: 1.5;" x1="659" x2="845" y1="1006.5" y2="1006.5"/><!--MD5=[101a54388f71c18e99fd399899fce14e]
class Maquina--><rect fill="#FEFECE" filter="url(#f17pvoe9uudtty)" height="48" id="Maquina" style="stroke: #A80036; stroke-width: 1.5;" width="81" x="30.5" y="671.5"/><ellipse cx="45.5" cy="687.5" fill="#ADD1B2" rx="11" ry="11" style="stroke: #A80036; stroke-width: 1.0;"/><path d="M47.8438,683.1719 C46.9063,682.7344 46.3125,682.5938 45.4375,682.5938 C42.8125,682.5938 40.8125,684.6719 40.8125,687.3906 L40.8125,688.5156 C40.8125,691.0938 42.9219,692.9844 45.8125,692.9844 C47.0313,692.9844 48.1875,692.6875 48.9375,692.1406 C49.5156,691.7344 49.8438,691.2813 49.8438,690.8906 C49.8438,690.4375 49.4531,690.0469 48.9844,690.0469 C48.7656,690.0469 48.5625,690.125 48.375,690.3125 C47.9219,690.7969 47.9219,690.7969 47.7344,690.8906 C47.3125,691.1563 46.625,691.2813 45.8594,691.2813 C43.8125,691.2813 42.5156,690.1875 42.5156,688.4844 L42.5156,687.3906 C42.5156,685.6094 43.7656,684.2969 45.5,684.2969 C46.0781,684.2969 46.6875,684.4531 47.1563,684.7031 C47.6406,684.9844 47.8125,685.2031 47.9063,685.6094 C47.9688,686.0156 48,686.1406 48.1406,686.2656 C48.2813,686.4063 48.5156,686.5156 48.7344,686.5156 C49,686.5156 49.2656,686.375 49.4375,686.1563 C49.5469,686 49.5781,685.8125 49.5781,685.3906 L49.5781,683.9688 C49.5781,683.5313 49.5625,683.4063 49.4688,683.25 C49.3125,682.9844 49.0313,682.8438 48.7344,682.8438 C48.4375,682.8438 48.2344,682.9375 48.0156,683.25 L47.8438,683.1719 Z "/><text fill="#000000" font-family="sans-serif" font-size="12" lengthAdjust="spacingAndGlyphs" textLength="49" x="59.5" y="691.6543">Maquina</text><line style="stroke: #A80036; stroke-width: 1.5;" x1="31.5" x2="110.5" y1="703.5" y2="703.5"/><line style="stroke: #A80036; stroke-width: 1.5;" x1="31.5" x2="110.5" y1="711.5" y2="711.5"/><!--MD5=[79f4ea091aaa86d6a42e3c67d0d6c792]
link ProcessamentoMensagens to ProcessamentoMensagensLinha--><path d="M386.622,217.121 C425.02,239.392 472.734,267.066 514.525,291.304 " fill="none" id="ProcessamentoMensagens-&gt;ProcessamentoMensagensLinha" style="stroke: #A80036; stroke-width: 1.0;"/><polygon fill="#A80036" points="519.068,293.94,513.2891,285.9648,514.7427,291.4317,509.2758,292.8852,519.068,293.94" style="stroke: #A80036; stroke-width: 1.0;"/><text fill="#000000" font-family="sans-serif" font-size="13" lengthAdjust="spacingAndGlyphs" textLength="44" x="465" y="260.0669">chama</text><text fill="#000000" font-family="sans-serif" font-size="13" lengthAdjust="spacingAndGlyphs" textLength="8" x="389.9875" y="237.5487">1</text><text fill="#000000" font-family="sans-serif" font-size="13" lengthAdjust="spacingAndGlyphs" textLength="8" x="498.3923" y="282.8703">1</text><!--MD5=[2bd5a8d6dc4de3db136c53d7ae4321f1]
link ServicoProcessamentoMensagens to ProcessamentoMensagens--><path d="M314,54.13 C314,73.5 314,101.77 314,125.88 " fill="none" id="ServicoProcessamentoMensagens-&gt;ProcessamentoMensagens" style="stroke: #A80036; stroke-width: 1.0;"/><polygon fill="#A80036" points="314,130.95,318,121.95,314,125.95,310,121.95,314,130.95" style="stroke: #A80036; stroke-width: 1.0;"/><text fill="#000000" font-family="sans-serif" font-size="13" lengthAdjust="spacingAndGlyphs" textLength="44" x="315" y="97.0669">chama</text><text fill="#000000" font-family="sans-serif" font-size="13" lengthAdjust="spacingAndGlyphs" textLength="8" x="305.025" y="73.9229">1</text><text fill="#000000" font-family="sans-serif" font-size="13" lengthAdjust="spacingAndGlyphs" textLength="8" x="305.3625" y="119.9381">1</text><!--MD5=[3b7559260ccda95d66c35224a9031d62]
link ProcessamentoMensagens to LinhaProducaoRepository--><path d="M275.995,217.121 C248.835,247.222 212.768,287.193 187.488,315.211 " fill="none" id="ProcessamentoMensagens-&gt;LinhaProducaoRepository" style="stroke: #A80036; stroke-width: 1.0;"/><polygon fill="#A80036" points="183.839,319.255,192.837,315.2506,187.1877,315.542,186.8963,309.8927,183.839,319.255" style="stroke: #A80036; stroke-width: 1.0;"/><text fill="#000000" font-family="sans-serif" font-size="13" lengthAdjust="spacingAndGlyphs" textLength="44" x="246" y="260.0669">chama</text><text fill="#000000" font-family="sans-serif" font-size="13" lengthAdjust="spacingAndGlyphs" textLength="8" x="261.0379" y="237.5487">1</text><text fill="#000000" font-family="sans-serif" font-size="13" lengthAdjust="spacingAndGlyphs" textLength="8" x="180.5495" y="308.4677">1</text><!--MD5=[d4d6edeee51914b423d9c48557214ff1]
link ProcessamentoMensagensLinha to MensagemRepository--><path d="M614,406.055 C614,429.098 614,455.614 614,477.754 " fill="none" id="ProcessamentoMensagensLinha-&gt;MensagemRepository" style="stroke: #A80036; stroke-width: 1.0;"/><polygon fill="#A80036" points="614,482.99,618,473.99,614,477.99,610,473.99,614,482.99" style="stroke: #A80036; stroke-width: 1.0;"/><text fill="#000000" font-family="sans-serif" font-size="13" lengthAdjust="spacingAndGlyphs" textLength="44" x="615" y="449.0669">chama</text><text fill="#000000" font-family="sans-serif" font-size="13" lengthAdjust="spacingAndGlyphs" textLength="8" x="605.4875" y="426.2719">1</text><text fill="#000000" font-family="sans-serif" font-size="13" lengthAdjust="spacingAndGlyphs" textLength="8" x="605.3625" y="471.9845">1</text><!--MD5=[d1fa4cf2f54c84d26fcc9a0b4e7b0b7f]
link ProcessamentoMensagensLinha to ValidacaoMensagens--><path d="M710.504,406.055 C760.515,434.585 819.856,468.439 862.417,492.72 " fill="none" id="ProcessamentoMensagensLinha-&gt;ValidacaoMensagens" style="stroke: #A80036; stroke-width: 1.0;"/><polygon fill="#A80036" points="867.002,495.335,861.1662,487.4013,862.6589,492.8577,857.2025,494.3504,867.002,495.335" style="stroke: #A80036; stroke-width: 1.0;"/><text fill="#000000" font-family="sans-serif" font-size="13" lengthAdjust="spacingAndGlyphs" textLength="44" x="786" y="449.0669">chama</text><text fill="#000000" font-family="sans-serif" font-size="13" lengthAdjust="spacingAndGlyphs" textLength="8" x="714.3561" y="426.2719">1</text><text fill="#000000" font-family="sans-serif" font-size="13" lengthAdjust="spacingAndGlyphs" textLength="8" x="847.4524" y="484.5642">1</text><!--MD5=[2b5471342dcc21ca6b395db0b77b2ca8]
link ProcessamentoMensagensLinha to EnriquecimentoMensagens--><path d="M508.953,406.055 C454.405,434.643 389.659,468.576 343.311,492.867 " fill="none" id="ProcessamentoMensagensLinha-&gt;EnriquecimentoMensagens" style="stroke: #A80036; stroke-width: 1.0;"/><polygon fill="#A80036" points="338.601,495.335,348.4295,494.7018,343.03,493.0148,344.7171,487.6153,338.601,495.335" style="stroke: #A80036; stroke-width: 1.0;"/><text fill="#000000" font-family="sans-serif" font-size="13" lengthAdjust="spacingAndGlyphs" textLength="44" x="449" y="449.0669">chama</text><text fill="#000000" font-family="sans-serif" font-size="13" lengthAdjust="spacingAndGlyphs" textLength="8" x="486.9814" y="426.2719">1</text><text fill="#000000" font-family="sans-serif" font-size="13" lengthAdjust="spacingAndGlyphs" textLength="8" x="341.45" y="484.5642">1</text><!--MD5=[833ae28464aa3538f0f761e0be772052]
link ProcessamentoMensagensLinha to AtualizacaoOrdemProducao--><path d="M726.131,360.585 C886.217,381.204 1173.26,445.683 1285,646 C1306.43,684.426 1302.44,704.603 1285,745 C1272.12,774.831 1246.32,800.18 1222.62,818.654 " fill="none" id="ProcessamentoMensagensLinha-&gt;AtualizacaoOrdemProducao" style="stroke: #A80036; stroke-width: 1.0;"/><polygon fill="#A80036" points="1218.53,821.791,1228.1057,819.4874,1222.4974,818.748,1223.2368,813.1397,1218.53,821.791" style="stroke: #A80036; stroke-width: 1.0;"/><text fill="#000000" font-family="sans-serif" font-size="13" lengthAdjust="spacingAndGlyphs" textLength="44" x="1266" y="612.0669">chama</text><text fill="#000000" font-family="sans-serif" font-size="13" lengthAdjust="spacingAndGlyphs" textLength="8" x="733.9336" y="357.8628">1</text><text fill="#000000" font-family="sans-serif" font-size="13" lengthAdjust="spacingAndGlyphs" textLength="8" x="1219.3018" y="811.0111">1</text><!--MD5=[e2acbd6005432d5bd26734625a9d660a]
link ValidacaoMensagens to ProdutoRepository--><path d="M967.884,556.56 C1016.88,586.189 1092.11,631.676 1142.63,662.229 " fill="none" id="ValidacaoMensagens-&gt;ProdutoRepository" style="stroke: #A80036; stroke-width: 1.0;"/><polygon fill="#A80036" points="1147.14,664.954,1141.5063,656.8756,1142.8608,662.3679,1137.3685,663.7224,1147.14,664.954" style="stroke: #A80036; stroke-width: 1.0;"/><text fill="#000000" font-family="sans-serif" font-size="13" lengthAdjust="spacingAndGlyphs" textLength="44" x="1066" y="612.0669">chama</text><text fill="#000000" font-family="sans-serif" font-size="13" lengthAdjust="spacingAndGlyphs" textLength="8" x="969.1413" y="576.5106">1</text><text fill="#000000" font-family="sans-serif" font-size="13" lengthAdjust="spacingAndGlyphs" textLength="8" x="1127.5769" y="653.7342">1</text><!--MD5=[df2f3a0274f6dd37ee0d84d61aea8666]
link ValidacaoMensagens to DepositoRepository--><path d="M936.118,556.56 C952.966,585.653 978.667,630.034 996.342,660.555 " fill="none" id="ValidacaoMensagens-&gt;DepositoRepository" style="stroke: #A80036; stroke-width: 1.0;"/><polygon fill="#A80036" points="998.89,664.954,997.8415,655.1611,996.3844,660.6271,990.9184,659.17,998.89,664.954" style="stroke: #A80036; stroke-width: 1.0;"/><text fill="#000000" font-family="sans-serif" font-size="13" lengthAdjust="spacingAndGlyphs" textLength="44" x="971" y="612.0669">chama</text><text fill="#000000" font-family="sans-serif" font-size="13" lengthAdjust="spacingAndGlyphs" textLength="8" x="930.8236" y="576.5106">1</text><text fill="#000000" font-family="sans-serif" font-size="13" lengthAdjust="spacingAndGlyphs" textLength="8" x="986.2722" y="653.7342">1</text><!--MD5=[46af36bbdab8737af64528259ee139c6]
link ValidacaoMensagens to OrdemProducaoRepository--><path d="M863.233,556.56 C807.111,586.308 720.831,632.042 663.186,662.598 " fill="none" id="ValidacaoMensagens-&gt;OrdemProducaoRepository" style="stroke: #A80036; stroke-width: 1.0;"/><polygon fill="#A80036" points="658.74,664.954,668.5654,664.2744,663.158,662.6129,664.8195,657.2055,658.74,664.954" style="stroke: #A80036; stroke-width: 1.0;"/><text fill="#000000" font-family="sans-serif" font-size="13" lengthAdjust="spacingAndGlyphs" textLength="44" x="781" y="612.0669">chama</text><text fill="#000000" font-family="sans-serif" font-size="13" lengthAdjust="spacingAndGlyphs" textLength="8" x="842.9061" y="576.5106">1</text><text fill="#000000" font-family="sans-serif" font-size="13" lengthAdjust="spacingAndGlyphs" textLength="8" x="662.0581" y="653.7342">1</text><!--MD5=[60f3722aa75b8534ebbc6b67797c6ca7]
link ValidacaoMensagens to MateriaPrimaRepository--><path d="M901.705,556.56 C884.684,585.653 858.718,630.034 840.86,660.555 " fill="none" id="ValidacaoMensagens-&gt;MateriaPrimaRepository" style="stroke: #A80036; stroke-width: 1.0;"/><polygon fill="#A80036" points="838.286,664.954,846.2827,659.2048,840.8104,660.6381,839.3772,655.1658,838.286,664.954" style="stroke: #A80036; stroke-width: 1.0;"/><text fill="#000000" font-family="sans-serif" font-size="13" lengthAdjust="spacingAndGlyphs" textLength="44" x="877" y="612.0669">chama</text><text fill="#000000" font-family="sans-serif" font-size="13" lengthAdjust="spacingAndGlyphs" textLength="8" x="889.3129" y="576.5106">1</text><text fill="#000000" font-family="sans-serif" font-size="13" lengthAdjust="spacingAndGlyphs" textLength="8" x="833.1923" y="653.7342">1</text><!--MD5=[f03cea5116ba8b041fc8bd5e39348727]
link AtualizacaoOrdemProducao to LoteRepository--><path d="M1172,883.01 C1172,903.984 1172,932.243 1172,954.379 " fill="none" id="AtualizacaoOrdemProducao-&gt;LoteRepository" style="stroke: #A80036; stroke-width: 1.0;"/><polygon fill="#A80036" points="1172,959.578,1176,950.578,1172,954.578,1168,950.578,1172,959.578" style="stroke: #A80036; stroke-width: 1.0;"/><text fill="#000000" font-family="sans-serif" font-size="13" lengthAdjust="spacingAndGlyphs" textLength="44" x="1173" y="926.0669">chama</text><text fill="#000000" font-family="sans-serif" font-size="13" lengthAdjust="spacingAndGlyphs" textLength="8" x="1163.175" y="902.9503">1</text><text fill="#000000" font-family="sans-serif" font-size="13" lengthAdjust="spacingAndGlyphs" textLength="8" x="1163.175" y="948.7542">1</text><!--MD5=[6d8d3e8a4b1c7729b77e9760fdcaa6c5]
link AtualizacaoOrdemProducao to MovimentoStockRepository--><path d="M1130.12,883.01 C1099.25,904.767 1057.25,934.362 1025.36,956.831 " fill="none" id="AtualizacaoOrdemProducao-&gt;MovimentoStockRepository" style="stroke: #A80036; stroke-width: 1.0;"/><polygon fill="#A80036" points="1021.13,959.813,1030.7937,957.9122,1025.2212,956.9387,1026.1948,951.3662,1021.13,959.813" style="stroke: #A80036; stroke-width: 1.0;"/><text fill="#000000" font-family="sans-serif" font-size="13" lengthAdjust="spacingAndGlyphs" textLength="44" x="1088" y="926.0669">chama</text><text fill="#000000" font-family="sans-serif" font-size="13" lengthAdjust="spacingAndGlyphs" textLength="8" x="1112.6573" y="902.9503">1</text><text fill="#000000" font-family="sans-serif" font-size="13" lengthAdjust="spacingAndGlyphs" textLength="8" x="1020.9943" y="949.0377">1</text><!--MD5=[6ac704ec910068070caf30bb6e3a4afa]
link MensagemRepository to Mensagem--><path d="M565.803,569.267 C538.522,593.192 504.351,623.158 476.276,647.779 " fill="none" id="MensagemRepository-&gt;Mensagem" style="stroke: #A80036; stroke-width: 1.0;"/><polygon fill="#A80036" points="472.179,651.371,481.5825,648.4429,475.9377,648.0737,476.3069,642.4289,472.179,651.371" style="stroke: #A80036; stroke-width: 1.0;"/><text fill="#000000" font-family="sans-serif" font-size="13" lengthAdjust="spacingAndGlyphs" textLength="51" x="531" y="612.0669">persiste</text><text fill="#000000" font-family="sans-serif" font-size="13" lengthAdjust="spacingAndGlyphs" textLength="8" x="549.4841" y="589.4025">1</text><text fill="#000000" font-family="sans-serif" font-size="13" lengthAdjust="spacingAndGlyphs" textLength="37" x="480.0044" y="642.4633">many</text><!--MD5=[77ee4fef8427568068bc70fd7c7d4503]
link LinhaProducaoRepository to LinhaProducao--><path d="M142.411,380.517 C129.165,407.317 109.409,447.289 94.0316,478.401 " fill="none" id="LinhaProducaoRepository-&gt;LinhaProducao" style="stroke: #A80036; stroke-width: 1.0;"/><polygon fill="#A80036" points="91.7959,482.925,99.3699,476.6294,94.0115,478.4427,92.1982,473.0844,91.7959,482.925" style="stroke: #A80036; stroke-width: 1.0;"/><text fill="#000000" font-family="sans-serif" font-size="13" lengthAdjust="spacingAndGlyphs" textLength="51" x="115" y="449.0669">persiste</text><text fill="#000000" font-family="sans-serif" font-size="13" lengthAdjust="spacingAndGlyphs" textLength="8" x="130.577" y="400.4587">1</text><text fill="#000000" font-family="sans-serif" font-size="13" lengthAdjust="spacingAndGlyphs" textLength="37" x="55.1618" y="471.9091">many</text><!--MD5=[c920b11f71c0e70f9a01f15171139ccd]
link LoteRepository to Lote--><path d="M1146.53,1021.21 C1127.73,1043.143 1102.36,1072.7519 1084.13,1094.0119 " fill="none" id="LoteRepository-&gt;Lote" style="stroke: #A80036; stroke-width: 1.0;"/><polygon fill="#A80036" points="1080.82,1097.8807,1089.7121,1093.6463,1084.0721,1094.0829,1083.6356,1088.4429,1080.82,1097.8807" style="stroke: #A80036; stroke-width: 1.0;"/><text fill="#000000" font-family="sans-serif" font-size="13" lengthAdjust="spacingAndGlyphs" textLength="51" x="1120" y="1064.0669">persiste</text><text fill="#000000" font-family="sans-serif" font-size="13" lengthAdjust="spacingAndGlyphs" textLength="8" x="1132.7281" y="1040.8318">1</text><text fill="#000000" font-family="sans-serif" font-size="13" lengthAdjust="spacingAndGlyphs" textLength="37" x="1044.1583" y="1086.8622">many</text><!--MD5=[719e0ac3e35df8cf765ed433b15abcc9]
link MovimentoStockRepository to MovimentoStock--><path d="M964.402,1021.293 C956.447,1036.084 945.821,1053.7817 934,1068 C926.152,1077.4394 916.543,1086.6178 907.293,1094.6109 " fill="none" id="MovimentoStockRepository-&gt;MovimentoStock" style="stroke: #A80036; stroke-width: 1.0;"/><polygon fill="#A80036" points="903.357,1097.9612,912.8035,1095.1748,907.1649,1094.7208,907.6189,1089.0822,903.357,1097.9612" style="stroke: #A80036; stroke-width: 1.0;"/><text fill="#000000" font-family="sans-serif" font-size="13" lengthAdjust="spacingAndGlyphs" textLength="51" x="946" y="1064.0669">persiste</text><text fill="#000000" font-family="sans-serif" font-size="13" lengthAdjust="spacingAndGlyphs" textLength="8" x="952.7405" y="1040.9311">1</text><text fill="#000000" font-family="sans-serif" font-size="13" lengthAdjust="spacingAndGlyphs" textLength="37" x="869.3954" y="1086.9633">many</text><!--MD5=[d1b8e92da80d5f40dfbafbad974e3bc7]
link OrdemProducaoRepository to OrdemProducao--><path d="M620.711,726.019 C637.62,754.2 662.901,796.335 679.422,823.87 " fill="none" id="OrdemProducaoRepository-&gt;OrdemProducao" style="stroke: #A80036; stroke-width: 1.0;"/><polygon fill="#A80036" points="681.996,828.16,680.7946,818.3847,679.4231,823.8728,673.935,822.5013,681.996,828.16" style="stroke: #A80036; stroke-width: 1.0;"/><text fill="#000000" font-family="sans-serif" font-size="13" lengthAdjust="spacingAndGlyphs" textLength="51" x="659" y="788.0669">persiste</text><text fill="#000000" font-family="sans-serif" font-size="13" lengthAdjust="spacingAndGlyphs" textLength="8" x="615.5389" y="745.9612">1</text><text fill="#000000" font-family="sans-serif" font-size="13" lengthAdjust="spacingAndGlyphs" textLength="37" x="637.0731" y="817.4821">many</text><!--MD5=[8065cc9a2f6bce0370968fabc8eec8ab]
link OrdemProducao to ExecucaoOrdemProducao--><path d="M705.5,876.571 C715.154,900.016 730.119,936.36 740.452,961.455 " fill="none" id="OrdemProducao-&gt;ExecucaoOrdemProducao" style="stroke: #A80036; stroke-width: 1.0;"/><polygon fill="#A80036" points="742.454,966.316,742.7272,956.4709,740.5508,961.6924,735.3294,959.516,742.454,966.316" style="stroke: #A80036; stroke-width: 1.0;"/><text fill="#000000" font-family="sans-serif" font-size="13" lengthAdjust="spacingAndGlyphs" textLength="49" x="729" y="926.0669">contm</text><text fill="#000000" font-family="sans-serif" font-size="13" lengthAdjust="spacingAndGlyphs" textLength="8" x="698.9094" y="896.745">1</text><text fill="#000000" font-family="sans-serif" font-size="13" lengthAdjust="spacingAndGlyphs" textLength="8" x="730.9828" y="955.2809">1</text><!--MD5=[693fc32549da518f653a286667f0fddf]
link ExecucaoOrdemProducao to Lote--><path d="M783.52,1014.544 C807.594,1031.272 842.121,1053.4353 875,1068 C925.829,1090.5158 988.711,1106.0764 1026.79,1114.2604 " fill="none" id="ExecucaoOrdemProducao-&gt;Lote" style="stroke: #A80036; stroke-width: 1.0;"/><polygon fill="#A80036" points="1031.77,1115.3181,1023.7859,1109.5515,1026.877,1114.2891,1022.1394,1117.3802,1031.77,1115.3181" style="stroke: #A80036; stroke-width: 1.0;"/><text fill="#000000" font-family="sans-serif" font-size="13" lengthAdjust="spacingAndGlyphs" textLength="49" x="876" y="1064.0669">contm</text><text fill="#000000" font-family="sans-serif" font-size="13" lengthAdjust="spacingAndGlyphs" textLength="8" x="782.572" y="1034.7111">1</text><text fill="#000000" font-family="sans-serif" font-size="13" lengthAdjust="spacingAndGlyphs" textLength="23" x="1001.0058" y="1109.6942">1..*</text><!--MD5=[93af9dd478f564ad3d259963c0e4ebc5]
link ExecucaoOrdemProducao to MovimentoStock--><path d="M756.798,1014.697 C761.139,1031.071 768.91,1052.7267 782,1068 C791.219,1078.7564 803.193,1087.8569 815.411,1095.3184 " fill="none" id="ExecucaoOrdemProducao-&gt;MovimentoStock" style="stroke: #A80036; stroke-width: 1.0;"/><polygon fill="#A80036" points="819.919,1097.9932,814.2202,1089.9605,815.619,1095.4417,810.1378,1096.8405,819.919,1097.9932" style="stroke: #A80036; stroke-width: 1.0;"/><text fill="#000000" font-family="sans-serif" font-size="13" lengthAdjust="spacingAndGlyphs" textLength="49" x="783" y="1064.0669">contm</text><text fill="#000000" font-family="sans-serif" font-size="13" lengthAdjust="spacingAndGlyphs" textLength="8" x="748.9925" y="1034.5062">1</text><text fill="#000000" font-family="sans-serif" font-size="13" lengthAdjust="spacingAndGlyphs" textLength="23" x="780.3701" y="1087.0035">1..*</text><!--MD5=[943d29162ba13a54ca99f191f321a666]
link LinhaProducao to Maquina--><path d="M71,569.267 C71,599.614 71,639.682 71,666.23 " fill="none" id="LinhaProducao-&gt;Maquina" style="stroke: #A80036; stroke-width: 1.0;"/><polygon fill="#A80036" points="71,671.353,75,662.353,71,666.353,67,662.353,71,671.353" style="stroke: #A80036; stroke-width: 1.0;"/><text fill="#000000" font-family="sans-serif" font-size="13" lengthAdjust="spacingAndGlyphs" textLength="49" x="72" y="612.0669">contm</text><text fill="#000000" font-family="sans-serif" font-size="13" lengthAdjust="spacingAndGlyphs" textLength="8" x="62.3625" y="589.4025">1</text><text fill="#000000" font-family="sans-serif" font-size="13" lengthAdjust="spacingAndGlyphs" textLength="23" x="45.0531" y="660.3274">0..*</text><!--MD5=[0bbba623898510fc55834aefdbbbd4ca]
@startuml
interface LinhaProducaoRepository
interface MensagemRepository
interface ProdutoRepository
interface DepositoRepository
interface LoteRepository
interface OrdemProducaoRepository
interface MateriaPrimaRepository
interface LoteRepository
interface MovimentoStockRepository

ProcessamentoMensagens "1" - -> "1" ProcessamentoMensagensLinha: chama 
ServicoProcessamentoMensagens "1" - -> "1" ProcessamentoMensagens: chama
ProcessamentoMensagens "1" - -> "1" LinhaProducaoRepository: chama
ProcessamentoMensagensLinha "1" - -> "1" MensagemRepository: chama
ProcessamentoMensagensLinha "1" - -> "1" ValidacaoMensagens: chama
ProcessamentoMensagensLinha "1" - -> "1" EnriquecimentoMensagens: chama
ProcessamentoMensagensLinha "1" - -> "1" AtualizacaoOrdemProducao: chama
ValidacaoMensagens "1" - -> "1" ProdutoRepository: chama
ValidacaoMensagens "1" - -> "1" DepositoRepository: chama
ValidacaoMensagens "1" - -> "1" OrdemProducaoRepository: chama
ValidacaoMensagens "1" - -> "1" MateriaPrimaRepository: chama
AtualizacaoOrdemProducao "1" - -> "1" LoteRepository: chama
AtualizacaoOrdemProducao "1" - -> "1" MovimentoStockRepository: chama
MensagemRepository "1" - -> "many" Mensagem: persiste
LinhaProducaoRepository "1" - -> "many" LinhaProducao: persiste
LoteRepository "1" - -> "many" Lote: persiste
MovimentoStockRepository "1" - -> "many" MovimentoStock: persiste
OrdemProducaoRepository "1" - -> "many" OrdemProducao: persiste
OrdemProducao "1" - -> "1" ExecucaoOrdemProducao: contm
ExecucaoOrdemProducao "1" - -> "1..*" Lote: contm
ExecucaoOrdemProducao "1" - -> "1..*" MovimentoStock: contm
LinhaProducao "1" - -> "0..*" Maquina: contm

ProcessamentoMensagens : obterDataHoraInicio(args)
ProcessamentoMensagens : obterDataHoraFim(args)
ProcessamentoMensagens : obterLinhasProducao(args,lista)

ProcessamentoMensagensLinha : create(inicio,fim,linha)
ProcessamentoMensagensLinha : run()
ProcessamentoMensagensLinha : getDataHoraInicio()
ProcessamentoMensagensLinha : getDataHoraFim()
ProcessamentoMensagensLinha : getLinhaProducao()

LinhaProducao : getListaMaquinas()
LinhaProducao : getIdLinhaProducao()

ValidacaoMensagens : validarMensagens(listaMsg)

EnriquecimentoMensagens : enriquecerMensagens(listaMsg,linha)

AtualizacaoOrdemProducao : atualizarOrdemProducao(listaMsg,idOrdem,linha)

LinhaProducaoRepository : findAll()
MensagemRepository : findByProcessadasPorMaquinasETempo(inicio,fim,listaMaquinas)
MensagemRepository : findPrimeiraMensagemAntesDeTimestamp(inicio)
MensagemRepository : save(mensagem)
ProdutoRepository : findAll()
DepositoRepository : findAll()
LoteRepository : save()
MovimentoStockRepository : save()
OrdemProducaoRepository : findAll()
MateriaPrimaRepository : findAll()

Mensagem : idMaquina
Mensagem : dataHora
Mensagem : estado
Mensagem : processar()

LinhaProducao : idLinhaProducao
@enduml

PlantUML version 1.2020.12(Sat Jun 06 10:54:15 UTC 2020)
(GPL source distribution)
Java Runtime: Java(TM) SE Runtime Environment
JVM: Java HotSpot(TM) 64-Bit Server VM
Default Encoding: UTF-8
Language: en
Country: US
--></g></svg>