<?xml version="1.0" encoding="UTF-8" standalone="no"?><svg xmlns="http://www.w3.org/2000/svg" xmlns:xlink="http://www.w3.org/1999/xlink" contentScriptType="application/ecmascript" contentStyleType="text/css" height="203px" preserveAspectRatio="none" style="width:237px;height:203px;" version="1.1" viewBox="0 0 237 203" width="237px" zoomAndPan="magnify"><defs><filter height="300%" id="f1541rtpy9i37v" width="300%" x="-1" y="-1"><feGaussianBlur result="blurOut" stdDeviation="2.0"/><feColorMatrix in="blurOut" result="blurOut2" type="matrix" values="0 0 0 0 0 0 0 0 0 0 0 0 0 0 0 0 0 0 .4 0"/><feOffset dx="4.0" dy="4.0" in="blurOut2" result="blurOut3"/><feBlend in="SourceGraphic" in2="blurOut3" mode="normal"/></filter></defs><g><!--MD5=[cdb4d889a6b51c67dc469df6408f5e05]
class SistemaMonitorizacaoMaquinas--><rect fill="#FEFECE" filter="url(#f1541rtpy9i37v)" height="60.8047" id="SistemaMonitorizacaoMaquinas" style="stroke: #A80036; stroke-width: 1.5;" width="220" x="6" y="6"/><ellipse cx="21" cy="22" fill="#ADD1B2" rx="11" ry="11" style="stroke: #A80036; stroke-width: 1.0;"/><path d="M23.3438,17.6719 C22.4063,17.2344 21.8125,17.0938 20.9375,17.0938 C18.3125,17.0938 16.3125,19.1719 16.3125,21.8906 L16.3125,23.0156 C16.3125,25.5938 18.4219,27.4844 21.3125,27.4844 C22.5313,27.4844 23.6875,27.1875 24.4375,26.6406 C25.0156,26.2344 25.3438,25.7813 25.3438,25.3906 C25.3438,24.9375 24.9531,24.5469 24.4844,24.5469 C24.2656,24.5469 24.0625,24.625 23.875,24.8125 C23.4219,25.2969 23.4219,25.2969 23.2344,25.3906 C22.8125,25.6563 22.125,25.7813 21.3594,25.7813 C19.3125,25.7813 18.0156,24.6875 18.0156,22.9844 L18.0156,21.8906 C18.0156,20.1094 19.2656,18.7969 21,18.7969 C21.5781,18.7969 22.1875,18.9531 22.6563,19.2031 C23.1406,19.4844 23.3125,19.7031 23.4063,20.1094 C23.4688,20.5156 23.5,20.6406 23.6406,20.7656 C23.7813,20.9063 24.0156,21.0156 24.2344,21.0156 C24.5,21.0156 24.7656,20.875 24.9375,20.6563 C25.0469,20.5 25.0781,20.3125 25.0781,19.8906 L25.0781,18.4688 C25.0781,18.0313 25.0625,17.9063 24.9688,17.75 C24.8125,17.4844 24.5313,17.3438 24.2344,17.3438 C23.9375,17.3438 23.7344,17.4375 23.5156,17.75 L23.3438,17.6719 Z "/><text fill="#000000" font-family="sans-serif" font-size="12" lengthAdjust="spacingAndGlyphs" textLength="188" x="35" y="26.1543">SistemaMonitorizacaoMaquinas</text><line style="stroke: #A80036; stroke-width: 1.5;" x1="7" x2="225" y1="38" y2="38"/><line style="stroke: #A80036; stroke-width: 1.5;" x1="7" x2="225" y1="46" y2="46"/><text fill="#000000" font-family="sans-serif" font-size="11" lengthAdjust="spacingAndGlyphs" textLength="144" x="12" y="60.2104">reinicializarMaquina(args)</text><!--MD5=[cae3e4d09bdab8d99a81bc59b48c6953]
class PedidoReinicializacaoMaquina--><rect fill="#FEFECE" filter="url(#f1541rtpy9i37v)" height="48" id="PedidoReinicializacaoMaquina" style="stroke: #A80036; stroke-width: 1.5;" width="209" x="11.5" y="144"/><ellipse cx="26.5" cy="160" fill="#ADD1B2" rx="11" ry="11" style="stroke: #A80036; stroke-width: 1.0;"/><path d="M28.8438,155.6719 C27.9063,155.2344 27.3125,155.0938 26.4375,155.0938 C23.8125,155.0938 21.8125,157.1719 21.8125,159.8906 L21.8125,161.0156 C21.8125,163.5938 23.9219,165.4844 26.8125,165.4844 C28.0313,165.4844 29.1875,165.1875 29.9375,164.6406 C30.5156,164.2344 30.8438,163.7813 30.8438,163.3906 C30.8438,162.9375 30.4531,162.5469 29.9844,162.5469 C29.7656,162.5469 29.5625,162.625 29.375,162.8125 C28.9219,163.2969 28.9219,163.2969 28.7344,163.3906 C28.3125,163.6563 27.625,163.7813 26.8594,163.7813 C24.8125,163.7813 23.5156,162.6875 23.5156,160.9844 L23.5156,159.8906 C23.5156,158.1094 24.7656,156.7969 26.5,156.7969 C27.0781,156.7969 27.6875,156.9531 28.1563,157.2031 C28.6406,157.4844 28.8125,157.7031 28.9063,158.1094 C28.9688,158.5156 29,158.6406 29.1406,158.7656 C29.2813,158.9063 29.5156,159.0156 29.7344,159.0156 C30,159.0156 30.2656,158.875 30.4375,158.6563 C30.5469,158.5 30.5781,158.3125 30.5781,157.8906 L30.5781,156.4688 C30.5781,156.0313 30.5625,155.9063 30.4688,155.75 C30.3125,155.4844 30.0313,155.3438 29.7344,155.3438 C29.4375,155.3438 29.2344,155.4375 29.0156,155.75 L28.8438,155.6719 Z "/><text fill="#000000" font-family="sans-serif" font-size="12" lengthAdjust="spacingAndGlyphs" textLength="177" x="40.5" y="164.1543">PedidoReinicializacaoMaquina</text><line style="stroke: #A80036; stroke-width: 1.5;" x1="12.5" x2="219.5" y1="176" y2="176"/><line style="stroke: #A80036; stroke-width: 1.5;" x1="12.5" x2="219.5" y1="184" y2="184"/><!--MD5=[854958d05c31b6c44550616b8757e925]
link SistemaMonitorizacaoMaquinas to PedidoReinicializacaoMaquina--><path d="M116,67.21 C116,88.688 116,117.5266 116,138.678 " fill="none" id="SistemaMonitorizacaoMaquinas-&gt;PedidoReinicializacaoMaquina" style="stroke: #A80036; stroke-width: 1.0;"/><polygon fill="#A80036" points="116,143.8807,120,134.8807,116,138.8807,112,134.8807,116,143.8807" style="stroke: #A80036; stroke-width: 1.0;"/><text fill="#000000" font-family="sans-serif" font-size="13" lengthAdjust="spacingAndGlyphs" textLength="44" x="117" y="110.0669">chama</text><text fill="#000000" font-family="sans-serif" font-size="13" lengthAdjust="spacingAndGlyphs" textLength="8" x="107.2125" y="86.8318">1</text><text fill="#000000" font-family="sans-serif" font-size="13" lengthAdjust="spacingAndGlyphs" textLength="8" x="106.975" y="132.8622">1</text><!--MD5=[ae18c76b89a3ff9fa462f703ceabf539]
@startuml
SistemaMonitorizacaoMaquinas "1" - -> "1" PedidoReinicializacaoMaquina: chama

SistemaMonitorizacaoMaquinas : reinicializarMaquina(args)
@enduml

PlantUML version 1.2020.12(Sat Jun 06 10:54:15 UTC 2020)
(GPL source distribution)
Java Runtime: Java(TM) SE Runtime Environment
JVM: Java HotSpot(TM) 64-Bit Server VM
Default Encoding: UTF-8
Language: en
Country: US
--></g></svg>