<?xml version="1.0" encoding="UTF-8" standalone="no"?><svg xmlns="http://www.w3.org/2000/svg" xmlns:xlink="http://www.w3.org/1999/xlink" contentScriptType="application/ecmascript" contentStyleType="text/css" height="618px" preserveAspectRatio="none" style="width:495px;height:618px;" version="1.1" viewBox="0 0 495 618" width="495px" zoomAndPan="magnify"><defs><filter height="300%" id="f36dqujvjn547" width="300%" x="-1" y="-1"><feGaussianBlur result="blurOut" stdDeviation="2.0"/><feColorMatrix in="blurOut" result="blurOut2" type="matrix" values="0 0 0 0 0 0 0 0 0 0 0 0 0 0 0 0 0 0 .4 0"/><feOffset dx="4.0" dy="4.0" in="blurOut2" result="blurOut3"/><feBlend in="SourceGraphic" in2="blurOut3" mode="normal"/></filter></defs><g><!--MD5=[ad33bd4b678a3ea4595fb11ed6c22dd7]
class EstadoMaquinaRepository--><rect fill="#FEFECE" filter="url(#f36dqujvjn547)" height="60.8047" id="EstadoMaquinaRepository" style="stroke: #A80036; stroke-width: 1.5;" width="187" x="59.5" y="409"/><ellipse cx="74.5" cy="425" fill="#B4A7E5" rx="11" ry="11" style="stroke: #A80036; stroke-width: 1.0;"/><path d="M75.4531,421.7813 L77.1719,421.7813 C77.5625,421.7813 77.75,421.75 77.875,421.6719 C78.1406,421.5156 78.2813,421.2344 78.2813,420.9375 C78.2813,420.6719 78.1719,420.4063 77.9375,420.2344 C77.7656,420.125 77.625,420.0938 77.1719,420.0938 L72.0313,420.0938 C71.5938,420.0938 71.4688,420.1094 71.3125,420.2031 C71.0625,420.3594 70.9063,420.6563 70.9063,420.9375 C70.9063,421.2188 71.0469,421.4688 71.2656,421.6406 C71.4219,421.75 71.6094,421.7813 72.0313,421.7813 L73.75,421.7813 L73.75,428.2969 L72.0313,428.2969 C71.5938,428.2969 71.4688,428.3125 71.3125,428.4219 C71.0625,428.5781 70.9063,428.8594 70.9063,429.1563 C70.9063,429.4063 71.0469,429.6719 71.2656,429.8281 C71.4219,429.9531 71.625,430 72.0313,430 L77.1719,430 C77.9219,430 78.2813,429.7188 78.2813,429.1563 C78.2813,428.875 78.1719,428.625 77.9375,428.4531 C77.7656,428.3281 77.625,428.2969 77.1719,428.2969 L75.4531,428.2969 L75.4531,421.7813 Z "/><text fill="#000000" font-family="sans-serif" font-size="12" font-style="italic" lengthAdjust="spacingAndGlyphs" textLength="155" x="88.5" y="429.1543">EstadoMaquinaRepository</text><line style="stroke: #A80036; stroke-width: 1.5;" x1="60.5" x2="245.5" y1="441" y2="441"/><line style="stroke: #A80036; stroke-width: 1.5;" x1="60.5" x2="245.5" y1="449" y2="449"/><text fill="#000000" font-family="sans-serif" font-size="11" lengthAdjust="spacingAndGlyphs" textLength="122" x="65.5" y="463.2104">save(estadoMaquina)</text><!--MD5=[cdb4d889a6b51c67dc469df6408f5e05]
class SistemaMonitorizacaoMaquinas--><rect fill="#FEFECE" filter="url(#f36dqujvjn547)" height="48" id="SistemaMonitorizacaoMaquinas" style="stroke: #A80036; stroke-width: 1.5;" width="220" x="56" y="8"/><ellipse cx="71" cy="24" fill="#ADD1B2" rx="11" ry="11" style="stroke: #A80036; stroke-width: 1.0;"/><path d="M73.3438,19.6719 C72.4063,19.2344 71.8125,19.0938 70.9375,19.0938 C68.3125,19.0938 66.3125,21.1719 66.3125,23.8906 L66.3125,25.0156 C66.3125,27.5938 68.4219,29.4844 71.3125,29.4844 C72.5313,29.4844 73.6875,29.1875 74.4375,28.6406 C75.0156,28.2344 75.3438,27.7813 75.3438,27.3906 C75.3438,26.9375 74.9531,26.5469 74.4844,26.5469 C74.2656,26.5469 74.0625,26.625 73.875,26.8125 C73.4219,27.2969 73.4219,27.2969 73.2344,27.3906 C72.8125,27.6563 72.125,27.7813 71.3594,27.7813 C69.3125,27.7813 68.0156,26.6875 68.0156,24.9844 L68.0156,23.8906 C68.0156,22.1094 69.2656,20.7969 71,20.7969 C71.5781,20.7969 72.1875,20.9531 72.6563,21.2031 C73.1406,21.4844 73.3125,21.7031 73.4063,22.1094 C73.4688,22.5156 73.5,22.6406 73.6406,22.7656 C73.7813,22.9063 74.0156,23.0156 74.2344,23.0156 C74.5,23.0156 74.7656,22.875 74.9375,22.6563 C75.0469,22.5 75.0781,22.3125 75.0781,21.8906 L75.0781,20.4688 C75.0781,20.0313 75.0625,19.9063 74.9688,19.75 C74.8125,19.4844 74.5313,19.3438 74.2344,19.3438 C73.9375,19.3438 73.7344,19.4375 73.5156,19.75 L73.3438,19.6719 Z "/><text fill="#000000" font-family="sans-serif" font-size="12" lengthAdjust="spacingAndGlyphs" textLength="188" x="85" y="28.1543">SistemaMonitorizacaoMaquinas</text><line style="stroke: #A80036; stroke-width: 1.5;" x1="57" x2="275" y1="40" y2="40"/><line style="stroke: #A80036; stroke-width: 1.5;" x1="57" x2="275" y1="48" y2="48"/><!--MD5=[d9f68b99035627f3b2ae6bacf576c6c9]
class ValidacaoParametros--><rect fill="#FEFECE" filter="url(#f36dqujvjn547)" height="48" id="ValidacaoParametros" style="stroke: #A80036; stroke-width: 1.5;" width="158" x="6" y="139.5"/><ellipse cx="21" cy="155.5" fill="#ADD1B2" rx="11" ry="11" style="stroke: #A80036; stroke-width: 1.0;"/><path d="M23.3438,151.1719 C22.4063,150.7344 21.8125,150.5938 20.9375,150.5938 C18.3125,150.5938 16.3125,152.6719 16.3125,155.3906 L16.3125,156.5156 C16.3125,159.0938 18.4219,160.9844 21.3125,160.9844 C22.5313,160.9844 23.6875,160.6875 24.4375,160.1406 C25.0156,159.7344 25.3438,159.2813 25.3438,158.8906 C25.3438,158.4375 24.9531,158.0469 24.4844,158.0469 C24.2656,158.0469 24.0625,158.125 23.875,158.3125 C23.4219,158.7969 23.4219,158.7969 23.2344,158.8906 C22.8125,159.1563 22.125,159.2813 21.3594,159.2813 C19.3125,159.2813 18.0156,158.1875 18.0156,156.4844 L18.0156,155.3906 C18.0156,153.6094 19.2656,152.2969 21,152.2969 C21.5781,152.2969 22.1875,152.4531 22.6563,152.7031 C23.1406,152.9844 23.3125,153.2031 23.4063,153.6094 C23.4688,154.0156 23.5,154.1406 23.6406,154.2656 C23.7813,154.4063 24.0156,154.5156 24.2344,154.5156 C24.5,154.5156 24.7656,154.375 24.9375,154.1563 C25.0469,154 25.0781,153.8125 25.0781,153.3906 L25.0781,151.9688 C25.0781,151.5313 25.0625,151.4063 24.9688,151.25 C24.8125,150.9844 24.5313,150.8438 24.2344,150.8438 C23.9375,150.8438 23.7344,150.9375 23.5156,151.25 L23.3438,151.1719 Z "/><text fill="#000000" font-family="sans-serif" font-size="12" lengthAdjust="spacingAndGlyphs" textLength="126" x="35" y="159.6543">ValidacaoParametros</text><line style="stroke: #A80036; stroke-width: 1.5;" x1="7" x2="163" y1="171.5" y2="171.5"/><line style="stroke: #A80036; stroke-width: 1.5;" x1="7" x2="163" y1="179.5" y2="179.5"/><!--MD5=[c48674ba368777d244298d77a53c04bc]
class MonitorizacaoMaquinas--><rect fill="#FEFECE" filter="url(#f36dqujvjn547)" height="60.8047" id="MonitorizacaoMaquinas" style="stroke: #A80036; stroke-width: 1.5;" width="252" x="199" y="133"/><ellipse cx="250.75" cy="149" fill="#ADD1B2" rx="11" ry="11" style="stroke: #A80036; stroke-width: 1.0;"/><path d="M253.0938,144.6719 C252.1563,144.2344 251.5625,144.0938 250.6875,144.0938 C248.0625,144.0938 246.0625,146.1719 246.0625,148.8906 L246.0625,150.0156 C246.0625,152.5938 248.1719,154.4844 251.0625,154.4844 C252.2813,154.4844 253.4375,154.1875 254.1875,153.6406 C254.7656,153.2344 255.0938,152.7813 255.0938,152.3906 C255.0938,151.9375 254.7031,151.5469 254.2344,151.5469 C254.0156,151.5469 253.8125,151.625 253.625,151.8125 C253.1719,152.2969 253.1719,152.2969 252.9844,152.3906 C252.5625,152.6563 251.875,152.7813 251.1094,152.7813 C249.0625,152.7813 247.7656,151.6875 247.7656,149.9844 L247.7656,148.8906 C247.7656,147.1094 249.0156,145.7969 250.75,145.7969 C251.3281,145.7969 251.9375,145.9531 252.4063,146.2031 C252.8906,146.4844 253.0625,146.7031 253.1563,147.1094 C253.2188,147.5156 253.25,147.6406 253.3906,147.7656 C253.5313,147.9063 253.7656,148.0156 253.9844,148.0156 C254.25,148.0156 254.5156,147.875 254.6875,147.6563 C254.7969,147.5 254.8281,147.3125 254.8281,146.8906 L254.8281,145.4688 C254.8281,145.0313 254.8125,144.9063 254.7188,144.75 C254.5625,144.4844 254.2813,144.3438 253.9844,144.3438 C253.6875,144.3438 253.4844,144.4375 253.2656,144.75 L253.0938,144.6719 Z "/><text fill="#000000" font-family="sans-serif" font-size="12" lengthAdjust="spacingAndGlyphs" textLength="140" x="271.25" y="153.1543">MonitorizacaoMaquinas</text><line style="stroke: #A80036; stroke-width: 1.5;" x1="200" x2="450" y1="165" y2="165"/><line style="stroke: #A80036; stroke-width: 1.5;" x1="200" x2="450" y1="173" y2="173"/><text fill="#000000" font-family="sans-serif" font-size="11" lengthAdjust="spacingAndGlyphs" textLength="240" x="205" y="187.2104">monitorizarMaquinas(porta,listaEnderecos)</text><!--MD5=[9591ef402a73149b3d8cc3125080e5a2]
class MonitorizacaoMaquina--><rect fill="#FEFECE" filter="url(#f36dqujvjn547)" height="60.8047" id="MonitorizacaoMaquina" style="stroke: #A80036; stroke-width: 1.5;" width="165" x="242.5" y="271"/><ellipse cx="257.5" cy="287" fill="#ADD1B2" rx="11" ry="11" style="stroke: #A80036; stroke-width: 1.0;"/><path d="M259.8438,282.6719 C258.9063,282.2344 258.3125,282.0938 257.4375,282.0938 C254.8125,282.0938 252.8125,284.1719 252.8125,286.8906 L252.8125,288.0156 C252.8125,290.5938 254.9219,292.4844 257.8125,292.4844 C259.0313,292.4844 260.1875,292.1875 260.9375,291.6406 C261.5156,291.2344 261.8438,290.7813 261.8438,290.3906 C261.8438,289.9375 261.4531,289.5469 260.9844,289.5469 C260.7656,289.5469 260.5625,289.625 260.375,289.8125 C259.9219,290.2969 259.9219,290.2969 259.7344,290.3906 C259.3125,290.6563 258.625,290.7813 257.8594,290.7813 C255.8125,290.7813 254.5156,289.6875 254.5156,287.9844 L254.5156,286.8906 C254.5156,285.1094 255.7656,283.7969 257.5,283.7969 C258.0781,283.7969 258.6875,283.9531 259.1563,284.2031 C259.6406,284.4844 259.8125,284.7031 259.9063,285.1094 C259.9688,285.5156 260,285.6406 260.1406,285.7656 C260.2813,285.9063 260.5156,286.0156 260.7344,286.0156 C261,286.0156 261.2656,285.875 261.4375,285.6563 C261.5469,285.5 261.5781,285.3125 261.5781,284.8906 L261.5781,283.4688 C261.5781,283.0313 261.5625,282.9063 261.4688,282.75 C261.3125,282.4844 261.0313,282.3438 260.7344,282.3438 C260.4375,282.3438 260.2344,282.4375 260.0156,282.75 L259.8438,282.6719 Z "/><text fill="#000000" font-family="sans-serif" font-size="12" lengthAdjust="spacingAndGlyphs" textLength="133" x="271.5" y="291.1543">MonitorizacaoMaquina</text><line style="stroke: #A80036; stroke-width: 1.5;" x1="243.5" x2="406.5" y1="303" y2="303"/><line style="stroke: #A80036; stroke-width: 1.5;" x1="243.5" x2="406.5" y1="311" y2="311"/><text fill="#000000" font-family="sans-serif" font-size="11" lengthAdjust="spacingAndGlyphs" textLength="26" x="248.5" y="325.2104">run()</text><!--MD5=[2ea5b8ac9c470312959c4f340699946a]
class ListaMaquinas--><rect fill="#FEFECE" filter="url(#f36dqujvjn547)" height="60.8047" id="ListaMaquinas" style="stroke: #A80036; stroke-width: 1.5;" width="203" x="281.5" y="409"/><ellipse cx="337.25" cy="425" fill="#ADD1B2" rx="11" ry="11" style="stroke: #A80036; stroke-width: 1.0;"/><path d="M339.5938,420.6719 C338.6563,420.2344 338.0625,420.0938 337.1875,420.0938 C334.5625,420.0938 332.5625,422.1719 332.5625,424.8906 L332.5625,426.0156 C332.5625,428.5938 334.6719,430.4844 337.5625,430.4844 C338.7813,430.4844 339.9375,430.1875 340.6875,429.6406 C341.2656,429.2344 341.5938,428.7813 341.5938,428.3906 C341.5938,427.9375 341.2031,427.5469 340.7344,427.5469 C340.5156,427.5469 340.3125,427.625 340.125,427.8125 C339.6719,428.2969 339.6719,428.2969 339.4844,428.3906 C339.0625,428.6563 338.375,428.7813 337.6094,428.7813 C335.5625,428.7813 334.2656,427.6875 334.2656,425.9844 L334.2656,424.8906 C334.2656,423.1094 335.5156,421.7969 337.25,421.7969 C337.8281,421.7969 338.4375,421.9531 338.9063,422.2031 C339.3906,422.4844 339.5625,422.7031 339.6563,423.1094 C339.7188,423.5156 339.75,423.6406 339.8906,423.7656 C340.0313,423.9063 340.2656,424.0156 340.4844,424.0156 C340.75,424.0156 341.0156,423.875 341.1875,423.6563 C341.2969,423.5 341.3281,423.3125 341.3281,422.8906 L341.3281,421.4688 C341.3281,421.0313 341.3125,420.9063 341.2188,420.75 C341.0625,420.4844 340.7813,420.3438 340.4844,420.3438 C340.1875,420.3438 339.9844,420.4375 339.7656,420.75 L339.5938,420.6719 Z "/><text fill="#000000" font-family="sans-serif" font-size="12" lengthAdjust="spacingAndGlyphs" textLength="83" x="357.75" y="429.1543">ListaMaquinas</text><line style="stroke: #A80036; stroke-width: 1.5;" x1="282.5" x2="483.5" y1="441" y2="441"/><line style="stroke: #A80036; stroke-width: 1.5;" x1="282.5" x2="483.5" y1="449" y2="449"/><text fill="#000000" font-family="sans-serif" font-size="11" lengthAdjust="spacingAndGlyphs" textLength="191" x="287.5" y="463.2104">adicionarMaquina(numeroIdUnico)</text><!--MD5=[233c1c8d9cad49332ecda0c6ce3d39aa]
class EstadoMaquina--><rect fill="#FEFECE" filter="url(#f36dqujvjn547)" height="60.8047" id="EstadoMaquina" style="stroke: #A80036; stroke-width: 1.5;" width="148" x="79" y="547"/><ellipse cx="105.7" cy="563" fill="#ADD1B2" rx="11" ry="11" style="stroke: #A80036; stroke-width: 1.0;"/><path d="M108.0438,558.6719 C107.1063,558.2344 106.5125,558.0938 105.6375,558.0938 C103.0125,558.0938 101.0125,560.1719 101.0125,562.8906 L101.0125,564.0156 C101.0125,566.5938 103.1219,568.4844 106.0125,568.4844 C107.2313,568.4844 108.3875,568.1875 109.1375,567.6406 C109.7156,567.2344 110.0438,566.7813 110.0438,566.3906 C110.0438,565.9375 109.6531,565.5469 109.1844,565.5469 C108.9656,565.5469 108.7625,565.625 108.575,565.8125 C108.1219,566.2969 108.1219,566.2969 107.9344,566.3906 C107.5125,566.6563 106.825,566.7813 106.0594,566.7813 C104.0125,566.7813 102.7156,565.6875 102.7156,563.9844 L102.7156,562.8906 C102.7156,561.1094 103.9656,559.7969 105.7,559.7969 C106.2781,559.7969 106.8875,559.9531 107.3563,560.2031 C107.8406,560.4844 108.0125,560.7031 108.1063,561.1094 C108.1688,561.5156 108.2,561.6406 108.3406,561.7656 C108.4813,561.9063 108.7156,562.0156 108.9344,562.0156 C109.2,562.0156 109.4656,561.875 109.6375,561.6563 C109.7469,561.5 109.7781,561.3125 109.7781,560.8906 L109.7781,559.4688 C109.7781,559.0313 109.7625,558.9063 109.6688,558.75 C109.5125,558.4844 109.2313,558.3438 108.9344,558.3438 C108.6375,558.3438 108.4344,558.4375 108.2156,558.75 L108.0438,558.6719 Z "/><text fill="#000000" font-family="sans-serif" font-size="12" lengthAdjust="spacingAndGlyphs" textLength="90" x="122.3" y="567.1543">EstadoMaquina</text><line style="stroke: #A80036; stroke-width: 1.5;" x1="80" x2="226" y1="579" y2="579"/><line style="stroke: #A80036; stroke-width: 1.5;" x1="80" x2="226" y1="587" y2="587"/><text fill="#000000" font-family="sans-serif" font-size="11" lengthAdjust="spacingAndGlyphs" textLength="136" x="85" y="601.2104">create(maquina,estado)</text><!--MD5=[cc9a93b6959fb76d4a3e272513982f86]
link SistemaMonitorizacaoMaquinas to ValidacaoParametros--><path d="M151.519,56.152 C137.725,78.205 116.948,111.423 102.2913,134.855 " fill="none" id="SistemaMonitorizacaoMaquinas-&gt;ValidacaoParametros" style="stroke: #A80036; stroke-width: 1.0;"/><polygon fill="#A80036" points="99.6289,139.112,107.7927,133.6027,102.2803,134.8729,101.0101,129.3605,99.6289,139.112" style="stroke: #A80036; stroke-width: 1.0;"/><text fill="#000000" font-family="sans-serif" font-size="13" lengthAdjust="spacingAndGlyphs" textLength="44" x="134" y="99.0669">chama</text><text fill="#000000" font-family="sans-serif" font-size="13" lengthAdjust="spacingAndGlyphs" textLength="8" x="139.0143" y="75.9503">1</text><text fill="#000000" font-family="sans-serif" font-size="13" lengthAdjust="spacingAndGlyphs" textLength="8" x="94.2197" y="128.4224">1</text><!--MD5=[652d74b315d2f9f5bec06be50345e49c]
link SistemaMonitorizacaoMaquinas to MonitorizacaoMaquinas--><path d="M194.426,56.152 C219.541,76.608 256.451,106.669 284.626,129.616 " fill="none" id="SistemaMonitorizacaoMaquinas-&gt;MonitorizacaoMaquinas" style="stroke: #A80036; stroke-width: 1.0;"/><polygon fill="#A80036" points="288.717,132.949,284.2638,124.1644,284.8398,129.7918,279.2124,130.3678,288.717,132.949" style="stroke: #A80036; stroke-width: 1.0;"/><text fill="#000000" font-family="sans-serif" font-size="13" lengthAdjust="spacingAndGlyphs" textLength="44" x="252" y="99.0669">chama</text><text fill="#000000" font-family="sans-serif" font-size="13" lengthAdjust="spacingAndGlyphs" textLength="8" x="192.3798" y="75.9503">1</text><text fill="#000000" font-family="sans-serif" font-size="13" lengthAdjust="spacingAndGlyphs" textLength="8" x="271.9051" y="121.7281">1</text><!--MD5=[417d4b69f6b6a38c02addddf98c2c24b]
link MonitorizacaoMaquinas to MonitorizacaoMaquina--><path d="M325,194.01 C325,214.984 325,243.243 325,265.379 " fill="none" id="MonitorizacaoMaquinas-&gt;MonitorizacaoMaquina" style="stroke: #A80036; stroke-width: 1.0;"/><polygon fill="#A80036" points="325,270.578,329,261.578,325,265.578,321,261.578,325,270.578" style="stroke: #A80036; stroke-width: 1.0;"/><text fill="#000000" font-family="sans-serif" font-size="13" lengthAdjust="spacingAndGlyphs" textLength="44" x="326" y="237.0669">chama</text><text fill="#000000" font-family="sans-serif" font-size="13" lengthAdjust="spacingAndGlyphs" textLength="8" x="316.175" y="213.9503">1</text><text fill="#000000" font-family="sans-serif" font-size="13" lengthAdjust="spacingAndGlyphs" textLength="8" x="316.175" y="259.7542">1</text><!--MD5=[31ea819020f2b83cb2807fa83a724136]
link MonitorizacaoMaquina to ListaMaquinas--><path d="M337.585,332.01 C346.605,353.161 358.785,381.72 368.26,403.938 " fill="none" id="MonitorizacaoMaquina-&gt;ListaMaquinas" style="stroke: #A80036; stroke-width: 1.0;"/><polygon fill="#A80036" points="370.239,408.578,370.3873,398.7303,368.2773,403.9789,363.0287,401.8689,370.239,408.578" style="stroke: #A80036; stroke-width: 1.0;"/><text fill="#000000" font-family="sans-serif" font-size="13" lengthAdjust="spacingAndGlyphs" textLength="44" x="358" y="375.0669">chama</text><text fill="#000000" font-family="sans-serif" font-size="13" lengthAdjust="spacingAndGlyphs" textLength="8" x="331.3557" y="351.9503">1</text><text fill="#000000" font-family="sans-serif" font-size="13" lengthAdjust="spacingAndGlyphs" textLength="8" x="358.782" y="397.7542">1</text><!--MD5=[307b585ab0ebad184f8dc89f8968cb30]
link MonitorizacaoMaquina to EstadoMaquinaRepository--><path d="M287.679,332.01 C260.275,353.678 223.039,383.12 194.665,405.556 " fill="none" id="MonitorizacaoMaquina-&gt;EstadoMaquinaRepository" style="stroke: #A80036; stroke-width: 1.0;"/><polygon fill="#A80036" points="190.545,408.813,200.0858,406.3691,194.4673,405.712,195.1243,400.0935,190.545,408.813" style="stroke: #A80036; stroke-width: 1.0;"/><text fill="#000000" font-family="sans-serif" font-size="13" lengthAdjust="spacingAndGlyphs" textLength="44" x="251" y="375.0669">chama</text><text fill="#000000" font-family="sans-serif" font-size="13" lengthAdjust="spacingAndGlyphs" textLength="8" x="271.1565" y="351.9503">1</text><text fill="#000000" font-family="sans-serif" font-size="13" lengthAdjust="spacingAndGlyphs" textLength="8" x="189.4637" y="398.0377">1</text><!--MD5=[71d9fcfbf3a2b75a7c8084083644af23]
link EstadoMaquinaRepository to EstadoMaquina--><path d="M153,470.01 C153,490.984 153,519.2425 153,541.379 " fill="none" id="EstadoMaquinaRepository-&gt;EstadoMaquina" style="stroke: #A80036; stroke-width: 1.0;"/><polygon fill="#A80036" points="153,546.578,157,537.578,153,541.578,149,537.578,153,546.578" style="stroke: #A80036; stroke-width: 1.0;"/><text fill="#000000" font-family="sans-serif" font-size="13" lengthAdjust="spacingAndGlyphs" textLength="51" x="154" y="513.0669">persiste</text><text fill="#000000" font-family="sans-serif" font-size="13" lengthAdjust="spacingAndGlyphs" textLength="8" x="144.175" y="489.9503">1</text><text fill="#000000" font-family="sans-serif" font-size="13" lengthAdjust="spacingAndGlyphs" textLength="37" x="112.1844" y="535.7542">many</text><!--MD5=[86df2d20756c9a08996a2d7f1dc9155c]
@startuml
interface EstadoMaquinaRepository

SistemaMonitorizacaoMaquinas "1" - -> "1" ValidacaoParametros: chama
SistemaMonitorizacaoMaquinas "1" - -> "1" MonitorizacaoMaquinas: chama

MonitorizacaoMaquinas "1" - -> "1" MonitorizacaoMaquina: chama

MonitorizacaoMaquina "1" - -> "1" ListaMaquinas: chama
MonitorizacaoMaquina "1" - -> "1" EstadoMaquinaRepository: chama

EstadoMaquinaRepository "1" - -> "many" EstadoMaquina: persiste

MonitorizacaoMaquinas : monitorizarMaquinas(porta,listaEnderecos)
MonitorizacaoMaquina : run()
ListaMaquinas : adicionarMaquina(numeroIdUnico)
EstadoMaquina : create(maquina,estado)
EstadoMaquinaRepository : save(estadoMaquina)
@enduml

PlantUML version 1.2020.11(Sat May 30 10:13:43 UTC 2020)
(GPL source distribution)
Java Runtime: Java(TM) SE Runtime Environment
JVM: Java HotSpot(TM) 64-Bit Server VM
Default Encoding: UTF-8
Language: en
Country: US
--></g></svg>