<?xml version="1.0" encoding="UTF-8" standalone="no"?><svg xmlns="http://www.w3.org/2000/svg" xmlns:xlink="http://www.w3.org/1999/xlink" contentScriptType="application/ecmascript" contentStyleType="text/css" height="527px" preserveAspectRatio="none" style="width:1058px;height:527px;" version="1.1" viewBox="0 0 1058 527" width="1058px" zoomAndPan="magnify"><defs><filter height="300%" id="f1nr7aatk39shn" width="300%" x="-1" y="-1"><feGaussianBlur result="blurOut" stdDeviation="2.0"/><feColorMatrix in="blurOut" result="blurOut2" type="matrix" values="0 0 0 0 0 0 0 0 0 0 0 0 0 0 0 0 0 0 .4 0"/><feOffset dx="4.0" dy="4.0" in="blurOut2" result="blurOut3"/><feBlend in="SourceGraphic" in2="blurOut3" mode="normal"/></filter></defs><g><text fill="#000000" font-family="sans-serif" font-size="18" lengthAdjust="spacingAndGlyphs" textLength="510" x="265" y="16.708">3010 - Solicitar envio de configuração de uma máquina</text><!--MD5=[b16bd8fb6a8fffa501d6252364dc08f6]
class ServicoComunicacaoMaquinas--><rect fill="#FEFECE" filter="url(#f1nr7aatk39shn)" height="112.0234" id="ServicoComunicacaoMaquinas" style="stroke: #A80036; stroke-width: 1.5;" width="214" x="129" y="26.9531"/><ellipse cx="144" cy="42.9531" fill="#ADD1B2" rx="11" ry="11" style="stroke: #A80036; stroke-width: 1.0;"/><path d="M146.3438,38.625 C145.4063,38.1875 144.8125,38.0469 143.9375,38.0469 C141.3125,38.0469 139.3125,40.125 139.3125,42.8438 L139.3125,43.9688 C139.3125,46.5469 141.4219,48.4375 144.3125,48.4375 C145.5313,48.4375 146.6875,48.1406 147.4375,47.5938 C148.0156,47.1875 148.3438,46.7344 148.3438,46.3438 C148.3438,45.8906 147.9531,45.5 147.4844,45.5 C147.2656,45.5 147.0625,45.5781 146.875,45.7656 C146.4219,46.25 146.4219,46.25 146.2344,46.3438 C145.8125,46.6094 145.125,46.7344 144.3594,46.7344 C142.3125,46.7344 141.0156,45.6406 141.0156,43.9375 L141.0156,42.8438 C141.0156,41.0625 142.2656,39.75 144,39.75 C144.5781,39.75 145.1875,39.9063 145.6563,40.1563 C146.1406,40.4375 146.3125,40.6563 146.4063,41.0625 C146.4688,41.4688 146.5,41.5938 146.6406,41.7188 C146.7813,41.8594 147.0156,41.9688 147.2344,41.9688 C147.5,41.9688 147.7656,41.8281 147.9375,41.6094 C148.0469,41.4531 148.0781,41.2656 148.0781,40.8438 L148.0781,39.4219 C148.0781,38.9844 148.0625,38.8594 147.9688,38.7031 C147.8125,38.4375 147.5313,38.2969 147.2344,38.2969 C146.9375,38.2969 146.7344,38.3906 146.5156,38.7031 L146.3438,38.625 Z "/><text fill="#000000" font-family="sans-serif" font-size="12" lengthAdjust="spacingAndGlyphs" textLength="182" x="158" y="47.1074">ServicoComunicacaoMaquinas</text><line style="stroke: #A80036; stroke-width: 1.5;" x1="130" x2="342" y1="58.9531" y2="58.9531"/><ellipse cx="140" cy="69.9531" fill="none" rx="3" ry="3" style="stroke: #038048; stroke-width: 1.0;"/><text fill="#000000" font-family="sans-serif" font-size="11" lengthAdjust="spacingAndGlyphs" textLength="76" x="149" y="73.1636">serverSocket</text><ellipse cx="140" cy="82.7578" fill="none" rx="3" ry="3" style="stroke: #038048; stroke-width: 1.0;"/><text fill="#000000" font-family="sans-serif" font-size="11" lengthAdjust="spacingAndGlyphs" textLength="54" x="149" y="85.9683">sslSocket</text><ellipse cx="140" cy="95.5625" fill="none" rx="3" ry="3" style="stroke: #038048; stroke-width: 1.0;"/><text fill="#000000" font-family="sans-serif" font-size="11" lengthAdjust="spacingAndGlyphs" textLength="47" x="149" y="98.7729">serverIp</text><line style="stroke: #A80036; stroke-width: 1.5;" x1="130" x2="342" y1="105.3672" y2="105.3672"/><ellipse cx="140" cy="116.3672" fill="#84BE84" rx="3" ry="3" style="stroke: #038048; stroke-width: 1.0;"/><text fill="#000000" font-family="sans-serif" font-size="11" lengthAdjust="spacingAndGlyphs" textLength="36" x="149" y="119.5776">main()</text><ellipse cx="140" cy="129.1719" fill="#84BE84" rx="3" ry="3" style="stroke: #038048; stroke-width: 1.0;"/><text fill="#000000" font-family="sans-serif" font-size="11" lengthAdjust="spacingAndGlyphs" textLength="114" x="149" y="132.3823">envioConfiguracao()</text><!--MD5=[9fd9894d570824d369dbad3fac969900]
class SCMClient--><rect fill="#FEFECE" filter="url(#f1nr7aatk39shn)" height="163.2422" id="SCMClient" style="stroke: #A80036; stroke-width: 1.5;" width="460" x="6" y="215.9531"/><ellipse cx="202.25" cy="231.9531" fill="#ADD1B2" rx="11" ry="11" style="stroke: #A80036; stroke-width: 1.0;"/><path d="M204.5938,227.625 C203.6563,227.1875 203.0625,227.0469 202.1875,227.0469 C199.5625,227.0469 197.5625,229.125 197.5625,231.8438 L197.5625,232.9688 C197.5625,235.5469 199.6719,237.4375 202.5625,237.4375 C203.7813,237.4375 204.9375,237.1406 205.6875,236.5938 C206.2656,236.1875 206.5938,235.7344 206.5938,235.3438 C206.5938,234.8906 206.2031,234.5 205.7344,234.5 C205.5156,234.5 205.3125,234.5781 205.125,234.7656 C204.6719,235.25 204.6719,235.25 204.4844,235.3438 C204.0625,235.6094 203.375,235.7344 202.6094,235.7344 C200.5625,235.7344 199.2656,234.6406 199.2656,232.9375 L199.2656,231.8438 C199.2656,230.0625 200.5156,228.75 202.25,228.75 C202.8281,228.75 203.4375,228.9063 203.9063,229.1563 C204.3906,229.4375 204.5625,229.6563 204.6563,230.0625 C204.7188,230.4688 204.75,230.5938 204.8906,230.7188 C205.0313,230.8594 205.2656,230.9688 205.4844,230.9688 C205.75,230.9688 206.0156,230.8281 206.1875,230.6094 C206.2969,230.4531 206.3281,230.2656 206.3281,229.8438 L206.3281,228.4219 C206.3281,227.9844 206.3125,227.8594 206.2188,227.7031 C206.0625,227.4375 205.7813,227.2969 205.4844,227.2969 C205.1875,227.2969 204.9844,227.3906 204.7656,227.7031 L204.5938,227.625 Z "/><text fill="#000000" font-family="sans-serif" font-size="12" lengthAdjust="spacingAndGlyphs" textLength="59" x="222.75" y="236.1074">SCMClient</text><line style="stroke: #A80036; stroke-width: 1.5;" x1="7" x2="465" y1="247.9531" y2="247.9531"/><ellipse cx="17" cy="258.9531" fill="none" rx="3" ry="3" style="stroke: #038048; stroke-width: 1.0;"/><text fill="#000000" font-family="sans-serif" font-size="11" lengthAdjust="spacingAndGlyphs" textLength="54" x="26" y="262.1636">sslSocket</text><ellipse cx="17" cy="271.7578" fill="none" rx="3" ry="3" style="stroke: #038048; stroke-width: 1.0;"/><text fill="#000000" font-family="sans-serif" font-size="11" lengthAdjust="spacingAndGlyphs" textLength="57" x="26" y="274.9683">idMaquina</text><line style="stroke: #A80036; stroke-width: 1.5;" x1="7" x2="465" y1="281.5625" y2="281.5625"/><ellipse cx="17" cy="292.5625" fill="#84BE84" rx="3" ry="3" style="stroke: #038048; stroke-width: 1.0;"/><text fill="#000000" font-family="sans-serif" font-size="11" lengthAdjust="spacingAndGlyphs" textLength="26" x="26" y="295.7729">run()</text><ellipse cx="17" cy="305.3672" fill="#84BE84" rx="3" ry="3" style="stroke: #038048; stroke-width: 1.0;"/><text fill="#000000" font-family="sans-serif" font-size="11" lengthAdjust="spacingAndGlyphs" textLength="434" x="26" y="308.5776">enviarConfiguracaoAMaquina(DataOutputStream sOut, DataInputStream sIn)</text><ellipse cx="17" cy="318.1719" fill="#84BE84" rx="3" ry="3" style="stroke: #038048; stroke-width: 1.0;"/><text fill="#000000" font-family="sans-serif" font-size="11" lengthAdjust="spacingAndGlyphs" textLength="289" x="26" y="321.3823">enviaPedidoConfiguracao(DataOutputStream sOut)</text><ellipse cx="17" cy="330.9766" fill="#84BE84" rx="3" ry="3" style="stroke: #038048; stroke-width: 1.0;"/><text fill="#000000" font-family="sans-serif" font-size="11" lengthAdjust="spacingAndGlyphs" textLength="251" x="26" y="334.187">enviaConfiguracao(DataOutputStream sOut)</text><ellipse cx="17" cy="343.7813" fill="#84BE84" rx="3" ry="3" style="stroke: #038048; stroke-width: 1.0;"/><text fill="#000000" font-family="sans-serif" font-size="11" lengthAdjust="spacingAndGlyphs" textLength="101" x="26" y="346.9917">getConfiguracao()</text><ellipse cx="17" cy="356.5859" fill="#84BE84" rx="3" ry="3" style="stroke: #038048; stroke-width: 1.0;"/><text fill="#000000" font-family="sans-serif" font-size="11" lengthAdjust="spacingAndGlyphs" textLength="210" x="26" y="359.7964">checkResposta(DataInputStream sIn)</text><ellipse cx="17" cy="369.3906" fill="#84BE84" rx="3" ry="3" style="stroke: #038048; stroke-width: 1.0;"/><text fill="#000000" font-family="sans-serif" font-size="11" lengthAdjust="spacingAndGlyphs" textLength="304" x="26" y="372.6011">criarMensagem(String mensagem, String id, int code)</text><!--MD5=[101a54388f71c18e99fd399899fce14e]
class Maquina--><rect fill="#FEFECE" filter="url(#f1nr7aatk39shn)" height="60.8047" id="Maquina" style="stroke: #A80036; stroke-width: 1.5;" width="190" x="141" y="455.9531"/><ellipse cx="207.25" cy="471.9531" fill="#ADD1B2" rx="11" ry="11" style="stroke: #A80036; stroke-width: 1.0;"/><path d="M209.5938,467.625 C208.6563,467.1875 208.0625,467.0469 207.1875,467.0469 C204.5625,467.0469 202.5625,469.125 202.5625,471.8438 L202.5625,472.9688 C202.5625,475.5469 204.6719,477.4375 207.5625,477.4375 C208.7813,477.4375 209.9375,477.1406 210.6875,476.5938 C211.2656,476.1875 211.5938,475.7344 211.5938,475.3438 C211.5938,474.8906 211.2031,474.5 210.7344,474.5 C210.5156,474.5 210.3125,474.5781 210.125,474.7656 C209.6719,475.25 209.6719,475.25 209.4844,475.3438 C209.0625,475.6094 208.375,475.7344 207.6094,475.7344 C205.5625,475.7344 204.2656,474.6406 204.2656,472.9375 L204.2656,471.8438 C204.2656,470.0625 205.5156,468.75 207.25,468.75 C207.8281,468.75 208.4375,468.9063 208.9063,469.1563 C209.3906,469.4375 209.5625,469.6563 209.6563,470.0625 C209.7188,470.4688 209.75,470.5938 209.8906,470.7188 C210.0313,470.8594 210.2656,470.9688 210.4844,470.9688 C210.75,470.9688 211.0156,470.8281 211.1875,470.6094 C211.2969,470.4531 211.3281,470.2656 211.3281,469.8438 L211.3281,468.4219 C211.3281,467.9844 211.3125,467.8594 211.2188,467.7031 C211.0625,467.4375 210.7813,467.2969 210.4844,467.2969 C210.1875,467.2969 209.9844,467.3906 209.7656,467.7031 L209.5938,467.625 Z "/><text fill="#000000" font-family="sans-serif" font-size="12" lengthAdjust="spacingAndGlyphs" textLength="49" x="227.75" y="476.1074">Maquina</text><line style="stroke: #A80036; stroke-width: 1.5;" x1="142" x2="330" y1="487.9531" y2="487.9531"/><line style="stroke: #A80036; stroke-width: 1.5;" x1="142" x2="330" y1="495.9531" y2="495.9531"/><ellipse cx="152" cy="506.9531" fill="#84BE84" rx="3" ry="3" style="stroke: #038048; stroke-width: 1.0;"/><text fill="#000000" font-family="sans-serif" font-size="11" lengthAdjust="spacingAndGlyphs" textLength="164" x="161" y="510.1636">responde(String mensagem)</text><path d="M366,473.9531 L366,482.4531 L331.01,486.4531 L366,490.4531 L366,499.0859 A0,0 0 0 0 366,499.0859 L1046,499.0859 A0,0 0 0 0 1046,499.0859 L1046,483.9531 L1036,473.9531 L366,473.9531 A0,0 0 0 0 366,473.9531 " fill="#FBFB77" filter="url(#f1nr7aatk39shn)" style="stroke: #A80036; stroke-width: 1.0;"/><path d="M1036,473.9531 L1036,483.9531 L1046,483.9531 L1036,473.9531 " fill="#FBFB77" style="stroke: #A80036; stroke-width: 1.0;"/><text fill="#000000" font-family="sans-serif" font-size="13" lengthAdjust="spacingAndGlyphs" textLength="659" x="372" y="491.02">Os métodos da máquina são somente um exemplo da representação da comunicação com o exterior.</text><!--MD5=[3ef9d010cca539d9defe17e97482713a]
link ServicoComunicacaoMaquinas to SCMClient--><path d="M236,138.9531 C236,160.7671 236,186.3701 236,210.5191 " fill="none" id="ServicoComunicacaoMaquinas-&gt;SCMClient" style="stroke: #A80036; stroke-width: 1.0;"/><polygon fill="#A80036" points="236,215.6481,240,206.6481,236,210.6481,232,206.6481,236,215.6481" style="stroke: #A80036; stroke-width: 1.0;"/><text fill="#000000" font-family="sans-serif" font-size="13" lengthAdjust="spacingAndGlyphs" textLength="44" x="237" y="182.02">chama</text><text fill="#000000" font-family="sans-serif" font-size="13" lengthAdjust="spacingAndGlyphs" textLength="23" x="211.5266" y="159.163">1..*</text><text fill="#000000" font-family="sans-serif" font-size="13" lengthAdjust="spacingAndGlyphs" textLength="8" x="227.6438" y="204.7564">1</text><!--MD5=[b71ae936c54fe7852c1c14557cf161c4]
link SCMClient to Maquina--><path d="M236,379.1151 C236,404.2661 236,430.6806 236,450.8916 " fill="none" id="SCMClient-&gt;Maquina" style="stroke: #A80036; stroke-width: 1.0;"/><polygon fill="#A80036" points="236,455.8917,240,446.8917,236,450.8917,232,446.8917,236,455.8917" style="stroke: #A80036; stroke-width: 1.0;"/><text fill="#000000" font-family="sans-serif" font-size="13" lengthAdjust="spacingAndGlyphs" textLength="134" x="237" y="422.02">envia configuração a</text><text fill="#000000" font-family="sans-serif" font-size="13" lengthAdjust="spacingAndGlyphs" textLength="8" x="227.6313" y="399.3966">1</text><text fill="#000000" font-family="sans-serif" font-size="13" lengthAdjust="spacingAndGlyphs" textLength="8" x="227.125" y="444.6686">1</text><!--MD5=[381def2b366d75afa09ff44ed1b5e373]
@startuml
title 3010 - Solicitar envio de configuração de uma máquina

class ServicoComunicacaoMaquinas {
+ serverSocket
+ sslSocket
+ serverIp
+ main()
+ envioConfiguracao()
}

class SCMClient{
+ sslSocket
+ idMaquina
+ run()
+ enviarConfiguracaoAMaquina(DataOutputStream sOut, DataInputStream sIn)
+ enviaPedidoConfiguracao(DataOutputStream sOut)
+ enviaConfiguracao(DataOutputStream sOut)
+ getConfiguracao()
+ checkResposta(DataInputStream sIn)
+ criarMensagem(String mensagem, String id, int code)
}

class Maquina {
+ responde(String mensagem)
}

note right: Os métodos da máquina são somente um exemplo da representação da comunicação com o exterior.

SCMClient"1" <-down- "1..*" ServicoComunicacaoMaquinas : chama
Maquina "1" <-down- "1" SCMClient: envia configuração a
@enduml

PlantUML version 1.2020.12(Sat Jun 06 10:54:15 UTC 2020)
(GPL source distribution)
Java Runtime: Java(TM) SE Runtime Environment
JVM: Java HotSpot(TM) 64-Bit Server VM
Default Encoding: UTF-8
Language: en
Country: US
--></g></svg>