<?xml version="1.0" encoding="UTF-8" standalone="no"?><svg xmlns="http://www.w3.org/2000/svg" xmlns:xlink="http://www.w3.org/1999/xlink" contentScriptType="application/ecmascript" contentStyleType="text/css" height="704px" preserveAspectRatio="none" style="width:1577px;height:704px;" version="1.1" viewBox="0 0 1577 704" width="1577px" zoomAndPan="magnify"><defs><filter height="300%" id="f11jnqb3z9num2" width="300%" x="-1" y="-1"><feGaussianBlur result="blurOut" stdDeviation="2.0"/><feColorMatrix in="blurOut" result="blurOut2" type="matrix" values="0 0 0 0 0 0 0 0 0 0 0 0 0 0 0 0 0 0 .4 0"/><feOffset dx="4.0" dy="4.0" in="blurOut2" result="blurOut3"/><feBlend in="SourceGraphic" in2="blurOut3" mode="normal"/></filter></defs><g><text fill="#000000" font-family="sans-serif" font-size="18" lengthAdjust="spacingAndGlyphs" textLength="262" x="661" y="16.708">2007 - Exportação para XML</text><!--MD5=[020f161c4a6d003e5947bd3765726ddf]
class ExportarParaXMLUI--><rect fill="#FEFECE" filter="url(#f11jnqb3z9num2)" height="60.8047" id="ExportarParaXMLUI" style="stroke: #A80036; stroke-width: 1.5;" width="144" x="799.5" y="632.9531"/><ellipse cx="814.5" cy="648.9531" fill="#ADD1B2" rx="11" ry="11" style="stroke: #A80036; stroke-width: 1.0;"/><path d="M816.8438,644.625 C815.9063,644.1875 815.3125,644.0469 814.4375,644.0469 C811.8125,644.0469 809.8125,646.125 809.8125,648.8438 L809.8125,649.9688 C809.8125,652.5469 811.9219,654.4375 814.8125,654.4375 C816.0313,654.4375 817.1875,654.1406 817.9375,653.5938 C818.5156,653.1875 818.8438,652.7344 818.8438,652.3438 C818.8438,651.8906 818.4531,651.5 817.9844,651.5 C817.7656,651.5 817.5625,651.5781 817.375,651.7656 C816.9219,652.25 816.9219,652.25 816.7344,652.3438 C816.3125,652.6094 815.625,652.7344 814.8594,652.7344 C812.8125,652.7344 811.5156,651.6406 811.5156,649.9375 L811.5156,648.8438 C811.5156,647.0625 812.7656,645.75 814.5,645.75 C815.0781,645.75 815.6875,645.9063 816.1563,646.1563 C816.6406,646.4375 816.8125,646.6563 816.9063,647.0625 C816.9688,647.4688 817,647.5938 817.1406,647.7188 C817.2813,647.8594 817.5156,647.9688 817.7344,647.9688 C818,647.9688 818.2656,647.8281 818.4375,647.6094 C818.5469,647.4531 818.5781,647.2656 818.5781,646.8438 L818.5781,645.4219 C818.5781,644.9844 818.5625,644.8594 818.4688,644.7031 C818.3125,644.4375 818.0313,644.2969 817.7344,644.2969 C817.4375,644.2969 817.2344,644.3906 817.0156,644.7031 L816.8438,644.625 Z "/><text fill="#000000" font-family="sans-serif" font-size="12" lengthAdjust="spacingAndGlyphs" textLength="112" x="828.5" y="653.1074">ExportarParaXMLUI</text><line style="stroke: #A80036; stroke-width: 1.5;" x1="800.5" x2="942.5" y1="664.9531" y2="664.9531"/><line style="stroke: #A80036; stroke-width: 1.5;" x1="800.5" x2="942.5" y1="672.9531" y2="672.9531"/><ellipse cx="810.5" cy="683.9531" fill="#84BE84" rx="3" ry="3" style="stroke: #038048; stroke-width: 1.0;"/><text fill="#000000" font-family="sans-serif" font-size="11" lengthAdjust="spacingAndGlyphs" textLength="53" x="819.5" y="687.1636">doShow()</text><!--MD5=[778f7910b03ca5d072f84563b9e74305]
class ExportarParaXMLController--><rect fill="#FEFECE" filter="url(#f11jnqb3z9num2)" height="73.6094" id="ExportarParaXMLController" style="stroke: #A80036; stroke-width: 1.5;" width="191" x="776" y="481.9531"/><ellipse cx="791" cy="497.9531" fill="#ADD1B2" rx="11" ry="11" style="stroke: #A80036; stroke-width: 1.0;"/><path d="M793.3438,493.625 C792.4063,493.1875 791.8125,493.0469 790.9375,493.0469 C788.3125,493.0469 786.3125,495.125 786.3125,497.8438 L786.3125,498.9688 C786.3125,501.5469 788.4219,503.4375 791.3125,503.4375 C792.5313,503.4375 793.6875,503.1406 794.4375,502.5938 C795.0156,502.1875 795.3438,501.7344 795.3438,501.3438 C795.3438,500.8906 794.9531,500.5 794.4844,500.5 C794.2656,500.5 794.0625,500.5781 793.875,500.7656 C793.4219,501.25 793.4219,501.25 793.2344,501.3438 C792.8125,501.6094 792.125,501.7344 791.3594,501.7344 C789.3125,501.7344 788.0156,500.6406 788.0156,498.9375 L788.0156,497.8438 C788.0156,496.0625 789.2656,494.75 791,494.75 C791.5781,494.75 792.1875,494.9063 792.6563,495.1563 C793.1406,495.4375 793.3125,495.6563 793.4063,496.0625 C793.4688,496.4688 793.5,496.5938 793.6406,496.7188 C793.7813,496.8594 794.0156,496.9688 794.2344,496.9688 C794.5,496.9688 794.7656,496.8281 794.9375,496.6094 C795.0469,496.4531 795.0781,496.2656 795.0781,495.8438 L795.0781,494.4219 C795.0781,493.9844 795.0625,493.8594 794.9688,493.7031 C794.8125,493.4375 794.5313,493.2969 794.2344,493.2969 C793.9375,493.2969 793.7344,493.3906 793.5156,493.7031 L793.3438,493.625 Z "/><text fill="#000000" font-family="sans-serif" font-size="12" lengthAdjust="spacingAndGlyphs" textLength="159" x="805" y="502.1074">ExportarParaXMLController</text><line style="stroke: #A80036; stroke-width: 1.5;" x1="777" x2="966" y1="513.9531" y2="513.9531"/><line style="stroke: #A80036; stroke-width: 1.5;" x1="777" x2="966" y1="521.9531" y2="521.9531"/><ellipse cx="787" cy="532.9531" fill="#84BE84" rx="3" ry="3" style="stroke: #038048; stroke-width: 1.0;"/><text fill="#000000" font-family="sans-serif" font-size="11" lengthAdjust="spacingAndGlyphs" textLength="141" x="796" y="536.1636">exportarClasseParaXML()</text><ellipse cx="787" cy="545.7578" fill="#84BE84" rx="3" ry="3" style="stroke: #038048; stroke-width: 1.0;"/><text fill="#000000" font-family="sans-serif" font-size="11" lengthAdjust="spacingAndGlyphs" textLength="86" x="796" y="548.9683">converterXML()</text><!--MD5=[e8c189551b7885b999ad7cefb30fc2a3]
class PersistenceContext--><rect fill="#FEFECE" filter="url(#f11jnqb3z9num2)" height="60.8047" id="PersistenceContext" style="stroke: #A80036; stroke-width: 1.5;" width="148" x="492.5" y="337.4531"/><ellipse cx="507.5" cy="353.4531" fill="#ADD1B2" rx="11" ry="11" style="stroke: #A80036; stroke-width: 1.0;"/><path d="M509.8438,349.125 C508.9063,348.6875 508.3125,348.5469 507.4375,348.5469 C504.8125,348.5469 502.8125,350.625 502.8125,353.3438 L502.8125,354.4688 C502.8125,357.0469 504.9219,358.9375 507.8125,358.9375 C509.0313,358.9375 510.1875,358.6406 510.9375,358.0938 C511.5156,357.6875 511.8438,357.2344 511.8438,356.8438 C511.8438,356.3906 511.4531,356 510.9844,356 C510.7656,356 510.5625,356.0781 510.375,356.2656 C509.9219,356.75 509.9219,356.75 509.7344,356.8438 C509.3125,357.1094 508.625,357.2344 507.8594,357.2344 C505.8125,357.2344 504.5156,356.1406 504.5156,354.4375 L504.5156,353.3438 C504.5156,351.5625 505.7656,350.25 507.5,350.25 C508.0781,350.25 508.6875,350.4063 509.1563,350.6563 C509.6406,350.9375 509.8125,351.1563 509.9063,351.5625 C509.9688,351.9688 510,352.0938 510.1406,352.2188 C510.2813,352.3594 510.5156,352.4688 510.7344,352.4688 C511,352.4688 511.2656,352.3281 511.4375,352.1094 C511.5469,351.9531 511.5781,351.7656 511.5781,351.3438 L511.5781,349.9219 C511.5781,349.4844 511.5625,349.3594 511.4688,349.2031 C511.3125,348.9375 511.0313,348.7969 510.7344,348.7969 C510.4375,348.7969 510.2344,348.8906 510.0156,349.2031 L509.8438,349.125 Z "/><text fill="#000000" font-family="sans-serif" font-size="12" lengthAdjust="spacingAndGlyphs" textLength="116" x="521.5" y="357.6074">PersistenceContext</text><line style="stroke: #A80036; stroke-width: 1.5;" x1="493.5" x2="639.5" y1="369.4531" y2="369.4531"/><line style="stroke: #A80036; stroke-width: 1.5;" x1="493.5" x2="639.5" y1="377.4531" y2="377.4531"/><ellipse cx="503.5" cy="388.4531" fill="#84BE84" rx="3" ry="3" style="stroke: #038048; stroke-width: 1.0;"/><text fill="#000000" font-family="sans-serif" font-size="11" lengthAdjust="spacingAndGlyphs" textLength="75" x="512.5" y="391.6636">repositories()</text><!--MD5=[48590afff58a68e2fcba47824d6f8a11]
class RepositoryFactory--><rect fill="#FEFECE" filter="url(#f11jnqb3z9num2)" height="60.8047" id="RepositoryFactory" style="stroke: #A80036; stroke-width: 1.5;" width="142" x="495.5" y="186.4531"/><ellipse cx="510.5" cy="202.4531" fill="#ADD1B2" rx="11" ry="11" style="stroke: #A80036; stroke-width: 1.0;"/><path d="M512.8438,198.125 C511.9063,197.6875 511.3125,197.5469 510.4375,197.5469 C507.8125,197.5469 505.8125,199.625 505.8125,202.3438 L505.8125,203.4688 C505.8125,206.0469 507.9219,207.9375 510.8125,207.9375 C512.0313,207.9375 513.1875,207.6406 513.9375,207.0938 C514.5156,206.6875 514.8438,206.2344 514.8438,205.8438 C514.8438,205.3906 514.4531,205 513.9844,205 C513.7656,205 513.5625,205.0781 513.375,205.2656 C512.9219,205.75 512.9219,205.75 512.7344,205.8438 C512.3125,206.1094 511.625,206.2344 510.8594,206.2344 C508.8125,206.2344 507.5156,205.1406 507.5156,203.4375 L507.5156,202.3438 C507.5156,200.5625 508.7656,199.25 510.5,199.25 C511.0781,199.25 511.6875,199.4063 512.1563,199.6563 C512.6406,199.9375 512.8125,200.1563 512.9063,200.5625 C512.9688,200.9688 513,201.0938 513.1406,201.2188 C513.2813,201.3594 513.5156,201.4688 513.7344,201.4688 C514,201.4688 514.2656,201.3281 514.4375,201.1094 C514.5469,200.9531 514.5781,200.7656 514.5781,200.3438 L514.5781,198.9219 C514.5781,198.4844 514.5625,198.3594 514.4688,198.2031 C514.3125,197.9375 514.0313,197.7969 513.7344,197.7969 C513.4375,197.7969 513.2344,197.8906 513.0156,198.2031 L512.8438,198.125 Z "/><text fill="#000000" font-family="sans-serif" font-size="12" lengthAdjust="spacingAndGlyphs" textLength="110" x="524.5" y="206.6074">RepositoryFactory</text><line style="stroke: #A80036; stroke-width: 1.5;" x1="496.5" x2="636.5" y1="218.4531" y2="218.4531"/><line style="stroke: #A80036; stroke-width: 1.5;" x1="496.5" x2="636.5" y1="226.4531" y2="226.4531"/><ellipse cx="506.5" cy="237.4531" fill="#84BE84" rx="3" ry="3" style="stroke: #038048; stroke-width: 1.0;"/><text fill="#000000" font-family="sans-serif" font-size="11" lengthAdjust="spacingAndGlyphs" textLength="45" x="515.5" y="240.6636">create()</text><!--MD5=[9dc4f8bfc61e7da6ce1d1ba00073686b]
class ProdutoRepository--><rect fill="#FEFECE" filter="url(#f11jnqb3z9num2)" height="73.6094" id="ProdutoRepository" style="stroke: #A80036; stroke-width: 1.5;" width="143" x="6" y="28.9531"/><ellipse cx="21" cy="44.9531" fill="#ADD1B2" rx="11" ry="11" style="stroke: #A80036; stroke-width: 1.0;"/><path d="M23.3438,40.625 C22.4063,40.1875 21.8125,40.0469 20.9375,40.0469 C18.3125,40.0469 16.3125,42.125 16.3125,44.8438 L16.3125,45.9688 C16.3125,48.5469 18.4219,50.4375 21.3125,50.4375 C22.5313,50.4375 23.6875,50.1406 24.4375,49.5938 C25.0156,49.1875 25.3438,48.7344 25.3438,48.3438 C25.3438,47.8906 24.9531,47.5 24.4844,47.5 C24.2656,47.5 24.0625,47.5781 23.875,47.7656 C23.4219,48.25 23.4219,48.25 23.2344,48.3438 C22.8125,48.6094 22.125,48.7344 21.3594,48.7344 C19.3125,48.7344 18.0156,47.6406 18.0156,45.9375 L18.0156,44.8438 C18.0156,43.0625 19.2656,41.75 21,41.75 C21.5781,41.75 22.1875,41.9063 22.6563,42.1563 C23.1406,42.4375 23.3125,42.6563 23.4063,43.0625 C23.4688,43.4688 23.5,43.5938 23.6406,43.7188 C23.7813,43.8594 24.0156,43.9688 24.2344,43.9688 C24.5,43.9688 24.7656,43.8281 24.9375,43.6094 C25.0469,43.4531 25.0781,43.2656 25.0781,42.8438 L25.0781,41.4219 C25.0781,40.9844 25.0625,40.8594 24.9688,40.7031 C24.8125,40.4375 24.5313,40.2969 24.2344,40.2969 C23.9375,40.2969 23.7344,40.3906 23.5156,40.7031 L23.3438,40.625 Z "/><text fill="#000000" font-family="sans-serif" font-size="12" lengthAdjust="spacingAndGlyphs" textLength="111" x="35" y="49.1074">ProdutoRepository</text><line style="stroke: #A80036; stroke-width: 1.5;" x1="7" x2="148" y1="60.9531" y2="60.9531"/><line style="stroke: #A80036; stroke-width: 1.5;" x1="7" x2="148" y1="68.9531" y2="68.9531"/><ellipse cx="17" cy="79.9531" fill="#84BE84" rx="3" ry="3" style="stroke: #038048; stroke-width: 1.0;"/><text fill="#000000" font-family="sans-serif" font-size="11" lengthAdjust="spacingAndGlyphs" textLength="45" x="26" y="83.1636">create()</text><ellipse cx="17" cy="92.7578" fill="#84BE84" rx="3" ry="3" style="stroke: #038048; stroke-width: 1.0;"/><text fill="#000000" font-family="sans-serif" font-size="11" lengthAdjust="spacingAndGlyphs" textLength="43" x="26" y="95.9683">findAll()</text><!--MD5=[c72ac90980a5ccec78ba1286861db27b]
class CategoriaRepository--><rect fill="#FEFECE" filter="url(#f11jnqb3z9num2)" height="73.6094" id="CategoriaRepository" style="stroke: #A80036; stroke-width: 1.5;" width="155" x="184" y="28.9531"/><ellipse cx="199" cy="44.9531" fill="#ADD1B2" rx="11" ry="11" style="stroke: #A80036; stroke-width: 1.0;"/><path d="M201.3438,40.625 C200.4063,40.1875 199.8125,40.0469 198.9375,40.0469 C196.3125,40.0469 194.3125,42.125 194.3125,44.8438 L194.3125,45.9688 C194.3125,48.5469 196.4219,50.4375 199.3125,50.4375 C200.5313,50.4375 201.6875,50.1406 202.4375,49.5938 C203.0156,49.1875 203.3438,48.7344 203.3438,48.3438 C203.3438,47.8906 202.9531,47.5 202.4844,47.5 C202.2656,47.5 202.0625,47.5781 201.875,47.7656 C201.4219,48.25 201.4219,48.25 201.2344,48.3438 C200.8125,48.6094 200.125,48.7344 199.3594,48.7344 C197.3125,48.7344 196.0156,47.6406 196.0156,45.9375 L196.0156,44.8438 C196.0156,43.0625 197.2656,41.75 199,41.75 C199.5781,41.75 200.1875,41.9063 200.6563,42.1563 C201.1406,42.4375 201.3125,42.6563 201.4063,43.0625 C201.4688,43.4688 201.5,43.5938 201.6406,43.7188 C201.7813,43.8594 202.0156,43.9688 202.2344,43.9688 C202.5,43.9688 202.7656,43.8281 202.9375,43.6094 C203.0469,43.4531 203.0781,43.2656 203.0781,42.8438 L203.0781,41.4219 C203.0781,40.9844 203.0625,40.8594 202.9688,40.7031 C202.8125,40.4375 202.5313,40.2969 202.2344,40.2969 C201.9375,40.2969 201.7344,40.3906 201.5156,40.7031 L201.3438,40.625 Z "/><text fill="#000000" font-family="sans-serif" font-size="12" lengthAdjust="spacingAndGlyphs" textLength="123" x="213" y="49.1074">CategoriaRepository</text><line style="stroke: #A80036; stroke-width: 1.5;" x1="185" x2="338" y1="60.9531" y2="60.9531"/><line style="stroke: #A80036; stroke-width: 1.5;" x1="185" x2="338" y1="68.9531" y2="68.9531"/><ellipse cx="195" cy="79.9531" fill="#84BE84" rx="3" ry="3" style="stroke: #038048; stroke-width: 1.0;"/><text fill="#000000" font-family="sans-serif" font-size="11" lengthAdjust="spacingAndGlyphs" textLength="45" x="204" y="83.1636">create()</text><ellipse cx="195" cy="92.7578" fill="#84BE84" rx="3" ry="3" style="stroke: #038048; stroke-width: 1.0;"/><text fill="#000000" font-family="sans-serif" font-size="11" lengthAdjust="spacingAndGlyphs" textLength="43" x="204" y="95.9683">findAll()</text><!--MD5=[f6930c598485bad857f0778c543ee03e]
class LinhaProducaoRepository--><rect fill="#FEFECE" filter="url(#f11jnqb3z9num2)" height="73.6094" id="LinhaProducaoRepository" style="stroke: #A80036; stroke-width: 1.5;" width="183" x="374" y="28.9531"/><ellipse cx="389" cy="44.9531" fill="#ADD1B2" rx="11" ry="11" style="stroke: #A80036; stroke-width: 1.0;"/><path d="M391.3438,40.625 C390.4063,40.1875 389.8125,40.0469 388.9375,40.0469 C386.3125,40.0469 384.3125,42.125 384.3125,44.8438 L384.3125,45.9688 C384.3125,48.5469 386.4219,50.4375 389.3125,50.4375 C390.5313,50.4375 391.6875,50.1406 392.4375,49.5938 C393.0156,49.1875 393.3438,48.7344 393.3438,48.3438 C393.3438,47.8906 392.9531,47.5 392.4844,47.5 C392.2656,47.5 392.0625,47.5781 391.875,47.7656 C391.4219,48.25 391.4219,48.25 391.2344,48.3438 C390.8125,48.6094 390.125,48.7344 389.3594,48.7344 C387.3125,48.7344 386.0156,47.6406 386.0156,45.9375 L386.0156,44.8438 C386.0156,43.0625 387.2656,41.75 389,41.75 C389.5781,41.75 390.1875,41.9063 390.6563,42.1563 C391.1406,42.4375 391.3125,42.6563 391.4063,43.0625 C391.4688,43.4688 391.5,43.5938 391.6406,43.7188 C391.7813,43.8594 392.0156,43.9688 392.2344,43.9688 C392.5,43.9688 392.7656,43.8281 392.9375,43.6094 C393.0469,43.4531 393.0781,43.2656 393.0781,42.8438 L393.0781,41.4219 C393.0781,40.9844 393.0625,40.8594 392.9688,40.7031 C392.8125,40.4375 392.5313,40.2969 392.2344,40.2969 C391.9375,40.2969 391.7344,40.3906 391.5156,40.7031 L391.3438,40.625 Z "/><text fill="#000000" font-family="sans-serif" font-size="12" lengthAdjust="spacingAndGlyphs" textLength="151" x="403" y="49.1074">LinhaProducaoRepository</text><line style="stroke: #A80036; stroke-width: 1.5;" x1="375" x2="556" y1="60.9531" y2="60.9531"/><line style="stroke: #A80036; stroke-width: 1.5;" x1="375" x2="556" y1="68.9531" y2="68.9531"/><ellipse cx="385" cy="79.9531" fill="#84BE84" rx="3" ry="3" style="stroke: #038048; stroke-width: 1.0;"/><text fill="#000000" font-family="sans-serif" font-size="11" lengthAdjust="spacingAndGlyphs" textLength="45" x="394" y="83.1636">create()</text><ellipse cx="385" cy="92.7578" fill="#84BE84" rx="3" ry="3" style="stroke: #038048; stroke-width: 1.0;"/><text fill="#000000" font-family="sans-serif" font-size="11" lengthAdjust="spacingAndGlyphs" textLength="43" x="394" y="95.9683">findAll()</text><!--MD5=[718e8fb9ab68670c722c6cb613715e8f]
class DepositoRepository--><rect fill="#FEFECE" filter="url(#f11jnqb3z9num2)" height="73.6094" id="DepositoRepository" style="stroke: #A80036; stroke-width: 1.5;" width="152" x="592.5" y="28.9531"/><ellipse cx="607.5" cy="44.9531" fill="#ADD1B2" rx="11" ry="11" style="stroke: #A80036; stroke-width: 1.0;"/><path d="M609.8438,40.625 C608.9063,40.1875 608.3125,40.0469 607.4375,40.0469 C604.8125,40.0469 602.8125,42.125 602.8125,44.8438 L602.8125,45.9688 C602.8125,48.5469 604.9219,50.4375 607.8125,50.4375 C609.0313,50.4375 610.1875,50.1406 610.9375,49.5938 C611.5156,49.1875 611.8438,48.7344 611.8438,48.3438 C611.8438,47.8906 611.4531,47.5 610.9844,47.5 C610.7656,47.5 610.5625,47.5781 610.375,47.7656 C609.9219,48.25 609.9219,48.25 609.7344,48.3438 C609.3125,48.6094 608.625,48.7344 607.8594,48.7344 C605.8125,48.7344 604.5156,47.6406 604.5156,45.9375 L604.5156,44.8438 C604.5156,43.0625 605.7656,41.75 607.5,41.75 C608.0781,41.75 608.6875,41.9063 609.1563,42.1563 C609.6406,42.4375 609.8125,42.6563 609.9063,43.0625 C609.9688,43.4688 610,43.5938 610.1406,43.7188 C610.2813,43.8594 610.5156,43.9688 610.7344,43.9688 C611,43.9688 611.2656,43.8281 611.4375,43.6094 C611.5469,43.4531 611.5781,43.2656 611.5781,42.8438 L611.5781,41.4219 C611.5781,40.9844 611.5625,40.8594 611.4688,40.7031 C611.3125,40.4375 611.0313,40.2969 610.7344,40.2969 C610.4375,40.2969 610.2344,40.3906 610.0156,40.7031 L609.8438,40.625 Z "/><text fill="#000000" font-family="sans-serif" font-size="12" lengthAdjust="spacingAndGlyphs" textLength="120" x="621.5" y="49.1074">DepositoRepository</text><line style="stroke: #A80036; stroke-width: 1.5;" x1="593.5" x2="743.5" y1="60.9531" y2="60.9531"/><line style="stroke: #A80036; stroke-width: 1.5;" x1="593.5" x2="743.5" y1="68.9531" y2="68.9531"/><ellipse cx="603.5" cy="79.9531" fill="#84BE84" rx="3" ry="3" style="stroke: #038048; stroke-width: 1.0;"/><text fill="#000000" font-family="sans-serif" font-size="11" lengthAdjust="spacingAndGlyphs" textLength="45" x="612.5" y="83.1636">create()</text><ellipse cx="603.5" cy="92.7578" fill="#84BE84" rx="3" ry="3" style="stroke: #038048; stroke-width: 1.0;"/><text fill="#000000" font-family="sans-serif" font-size="11" lengthAdjust="spacingAndGlyphs" textLength="43" x="612.5" y="95.9683">findAll()</text><!--MD5=[148ce674129ebb6b53bc3596f86634c4]
class MaquinaRepository--><rect fill="#FEFECE" filter="url(#f11jnqb3z9num2)" height="73.6094" id="MaquinaRepository" style="stroke: #A80036; stroke-width: 1.5;" width="146" x="779.5" y="28.9531"/><ellipse cx="794.5" cy="44.9531" fill="#ADD1B2" rx="11" ry="11" style="stroke: #A80036; stroke-width: 1.0;"/><path d="M796.8438,40.625 C795.9063,40.1875 795.3125,40.0469 794.4375,40.0469 C791.8125,40.0469 789.8125,42.125 789.8125,44.8438 L789.8125,45.9688 C789.8125,48.5469 791.9219,50.4375 794.8125,50.4375 C796.0313,50.4375 797.1875,50.1406 797.9375,49.5938 C798.5156,49.1875 798.8438,48.7344 798.8438,48.3438 C798.8438,47.8906 798.4531,47.5 797.9844,47.5 C797.7656,47.5 797.5625,47.5781 797.375,47.7656 C796.9219,48.25 796.9219,48.25 796.7344,48.3438 C796.3125,48.6094 795.625,48.7344 794.8594,48.7344 C792.8125,48.7344 791.5156,47.6406 791.5156,45.9375 L791.5156,44.8438 C791.5156,43.0625 792.7656,41.75 794.5,41.75 C795.0781,41.75 795.6875,41.9063 796.1563,42.1563 C796.6406,42.4375 796.8125,42.6563 796.9063,43.0625 C796.9688,43.4688 797,43.5938 797.1406,43.7188 C797.2813,43.8594 797.5156,43.9688 797.7344,43.9688 C798,43.9688 798.2656,43.8281 798.4375,43.6094 C798.5469,43.4531 798.5781,43.2656 798.5781,42.8438 L798.5781,41.4219 C798.5781,40.9844 798.5625,40.8594 798.4688,40.7031 C798.3125,40.4375 798.0313,40.2969 797.7344,40.2969 C797.4375,40.2969 797.2344,40.3906 797.0156,40.7031 L796.8438,40.625 Z "/><text fill="#000000" font-family="sans-serif" font-size="12" lengthAdjust="spacingAndGlyphs" textLength="114" x="808.5" y="49.1074">MaquinaRepository</text><line style="stroke: #A80036; stroke-width: 1.5;" x1="780.5" x2="924.5" y1="60.9531" y2="60.9531"/><line style="stroke: #A80036; stroke-width: 1.5;" x1="780.5" x2="924.5" y1="68.9531" y2="68.9531"/><ellipse cx="790.5" cy="79.9531" fill="#84BE84" rx="3" ry="3" style="stroke: #038048; stroke-width: 1.0;"/><text fill="#000000" font-family="sans-serif" font-size="11" lengthAdjust="spacingAndGlyphs" textLength="45" x="799.5" y="83.1636">create()</text><ellipse cx="790.5" cy="92.7578" fill="#84BE84" rx="3" ry="3" style="stroke: #038048; stroke-width: 1.0;"/><text fill="#000000" font-family="sans-serif" font-size="11" lengthAdjust="spacingAndGlyphs" textLength="43" x="799.5" y="95.9683">findAll()</text><!--MD5=[de2d739f48fc0fce1ad5ee6630bc7ce3]
class MateriaPrimaRepository--><rect fill="#FEFECE" filter="url(#f11jnqb3z9num2)" height="73.6094" id="MateriaPrimaRepository" style="stroke: #A80036; stroke-width: 1.5;" width="173" x="961" y="28.9531"/><ellipse cx="976" cy="44.9531" fill="#ADD1B2" rx="11" ry="11" style="stroke: #A80036; stroke-width: 1.0;"/><path d="M978.3438,40.625 C977.4063,40.1875 976.8125,40.0469 975.9375,40.0469 C973.3125,40.0469 971.3125,42.125 971.3125,44.8438 L971.3125,45.9688 C971.3125,48.5469 973.4219,50.4375 976.3125,50.4375 C977.5313,50.4375 978.6875,50.1406 979.4375,49.5938 C980.0156,49.1875 980.3438,48.7344 980.3438,48.3438 C980.3438,47.8906 979.9531,47.5 979.4844,47.5 C979.2656,47.5 979.0625,47.5781 978.875,47.7656 C978.4219,48.25 978.4219,48.25 978.2344,48.3438 C977.8125,48.6094 977.125,48.7344 976.3594,48.7344 C974.3125,48.7344 973.0156,47.6406 973.0156,45.9375 L973.0156,44.8438 C973.0156,43.0625 974.2656,41.75 976,41.75 C976.5781,41.75 977.1875,41.9063 977.6563,42.1563 C978.1406,42.4375 978.3125,42.6563 978.4063,43.0625 C978.4688,43.4688 978.5,43.5938 978.6406,43.7188 C978.7813,43.8594 979.0156,43.9688 979.2344,43.9688 C979.5,43.9688 979.7656,43.8281 979.9375,43.6094 C980.0469,43.4531 980.0781,43.2656 980.0781,42.8438 L980.0781,41.4219 C980.0781,40.9844 980.0625,40.8594 979.9688,40.7031 C979.8125,40.4375 979.5313,40.2969 979.2344,40.2969 C978.9375,40.2969 978.7344,40.3906 978.5156,40.7031 L978.3438,40.625 Z "/><text fill="#000000" font-family="sans-serif" font-size="12" lengthAdjust="spacingAndGlyphs" textLength="141" x="990" y="49.1074">MateriaPrimaRepository</text><line style="stroke: #A80036; stroke-width: 1.5;" x1="962" x2="1133" y1="60.9531" y2="60.9531"/><line style="stroke: #A80036; stroke-width: 1.5;" x1="962" x2="1133" y1="68.9531" y2="68.9531"/><ellipse cx="972" cy="79.9531" fill="#84BE84" rx="3" ry="3" style="stroke: #038048; stroke-width: 1.0;"/><text fill="#000000" font-family="sans-serif" font-size="11" lengthAdjust="spacingAndGlyphs" textLength="45" x="981" y="83.1636">create()</text><ellipse cx="972" cy="92.7578" fill="#84BE84" rx="3" ry="3" style="stroke: #038048; stroke-width: 1.0;"/><text fill="#000000" font-family="sans-serif" font-size="11" lengthAdjust="spacingAndGlyphs" textLength="43" x="981" y="95.9683">findAll()</text><!--MD5=[23c90b7d003bd6e11d0cfcf1a0c4a1ed]
class OrdemProducaoRepository--><rect fill="#FEFECE" filter="url(#f11jnqb3z9num2)" height="73.6094" id="OrdemProducaoRepository" style="stroke: #A80036; stroke-width: 1.5;" width="195" x="1169" y="28.9531"/><ellipse cx="1184" cy="44.9531" fill="#ADD1B2" rx="11" ry="11" style="stroke: #A80036; stroke-width: 1.0;"/><path d="M1186.3438,40.625 C1185.4063,40.1875 1184.8125,40.0469 1183.9375,40.0469 C1181.3125,40.0469 1179.3125,42.125 1179.3125,44.8438 L1179.3125,45.9688 C1179.3125,48.5469 1181.4219,50.4375 1184.3125,50.4375 C1185.5313,50.4375 1186.6875,50.1406 1187.4375,49.5938 C1188.0156,49.1875 1188.3438,48.7344 1188.3438,48.3438 C1188.3438,47.8906 1187.9531,47.5 1187.4844,47.5 C1187.2656,47.5 1187.0625,47.5781 1186.875,47.7656 C1186.4219,48.25 1186.4219,48.25 1186.2344,48.3438 C1185.8125,48.6094 1185.125,48.7344 1184.3594,48.7344 C1182.3125,48.7344 1181.0156,47.6406 1181.0156,45.9375 L1181.0156,44.8438 C1181.0156,43.0625 1182.2656,41.75 1184,41.75 C1184.5781,41.75 1185.1875,41.9063 1185.6563,42.1563 C1186.1406,42.4375 1186.3125,42.6563 1186.4063,43.0625 C1186.4688,43.4688 1186.5,43.5938 1186.6406,43.7188 C1186.7813,43.8594 1187.0156,43.9688 1187.2344,43.9688 C1187.5,43.9688 1187.7656,43.8281 1187.9375,43.6094 C1188.0469,43.4531 1188.0781,43.2656 1188.0781,42.8438 L1188.0781,41.4219 C1188.0781,40.9844 1188.0625,40.8594 1187.9688,40.7031 C1187.8125,40.4375 1187.5313,40.2969 1187.2344,40.2969 C1186.9375,40.2969 1186.7344,40.3906 1186.5156,40.7031 L1186.3438,40.625 Z "/><text fill="#000000" font-family="sans-serif" font-size="12" lengthAdjust="spacingAndGlyphs" textLength="163" x="1198" y="49.1074">OrdemProducaoRepository</text><line style="stroke: #A80036; stroke-width: 1.5;" x1="1170" x2="1363" y1="60.9531" y2="60.9531"/><line style="stroke: #A80036; stroke-width: 1.5;" x1="1170" x2="1363" y1="68.9531" y2="68.9531"/><ellipse cx="1180" cy="79.9531" fill="#84BE84" rx="3" ry="3" style="stroke: #038048; stroke-width: 1.0;"/><text fill="#000000" font-family="sans-serif" font-size="11" lengthAdjust="spacingAndGlyphs" textLength="45" x="1189" y="83.1636">create()</text><ellipse cx="1180" cy="92.7578" fill="#84BE84" rx="3" ry="3" style="stroke: #038048; stroke-width: 1.0;"/><text fill="#000000" font-family="sans-serif" font-size="11" lengthAdjust="spacingAndGlyphs" textLength="43" x="1189" y="95.9683">findAll()</text><!--MD5=[9e689106573ecaf5f292af3195350989]
class EncomendaRepository--><rect fill="#FEFECE" filter="url(#f11jnqb3z9num2)" height="73.6094" id="EncomendaRepository" style="stroke: #A80036; stroke-width: 1.5;" width="167" x="1399" y="28.9531"/><ellipse cx="1414" cy="44.9531" fill="#ADD1B2" rx="11" ry="11" style="stroke: #A80036; stroke-width: 1.0;"/><path d="M1416.3438,40.625 C1415.4063,40.1875 1414.8125,40.0469 1413.9375,40.0469 C1411.3125,40.0469 1409.3125,42.125 1409.3125,44.8438 L1409.3125,45.9688 C1409.3125,48.5469 1411.4219,50.4375 1414.3125,50.4375 C1415.5313,50.4375 1416.6875,50.1406 1417.4375,49.5938 C1418.0156,49.1875 1418.3438,48.7344 1418.3438,48.3438 C1418.3438,47.8906 1417.9531,47.5 1417.4844,47.5 C1417.2656,47.5 1417.0625,47.5781 1416.875,47.7656 C1416.4219,48.25 1416.4219,48.25 1416.2344,48.3438 C1415.8125,48.6094 1415.125,48.7344 1414.3594,48.7344 C1412.3125,48.7344 1411.0156,47.6406 1411.0156,45.9375 L1411.0156,44.8438 C1411.0156,43.0625 1412.2656,41.75 1414,41.75 C1414.5781,41.75 1415.1875,41.9063 1415.6563,42.1563 C1416.1406,42.4375 1416.3125,42.6563 1416.4063,43.0625 C1416.4688,43.4688 1416.5,43.5938 1416.6406,43.7188 C1416.7813,43.8594 1417.0156,43.9688 1417.2344,43.9688 C1417.5,43.9688 1417.7656,43.8281 1417.9375,43.6094 C1418.0469,43.4531 1418.0781,43.2656 1418.0781,42.8438 L1418.0781,41.4219 C1418.0781,40.9844 1418.0625,40.8594 1417.9688,40.7031 C1417.8125,40.4375 1417.5313,40.2969 1417.2344,40.2969 C1416.9375,40.2969 1416.7344,40.3906 1416.5156,40.7031 L1416.3438,40.625 Z "/><text fill="#000000" font-family="sans-serif" font-size="12" lengthAdjust="spacingAndGlyphs" textLength="135" x="1428" y="49.1074">EncomendaRepository</text><line style="stroke: #A80036; stroke-width: 1.5;" x1="1400" x2="1565" y1="60.9531" y2="60.9531"/><line style="stroke: #A80036; stroke-width: 1.5;" x1="1400" x2="1565" y1="68.9531" y2="68.9531"/><ellipse cx="1410" cy="79.9531" fill="#84BE84" rx="3" ry="3" style="stroke: #038048; stroke-width: 1.0;"/><text fill="#000000" font-family="sans-serif" font-size="11" lengthAdjust="spacingAndGlyphs" textLength="45" x="1419" y="83.1636">create()</text><ellipse cx="1410" cy="92.7578" fill="#84BE84" rx="3" ry="3" style="stroke: #038048; stroke-width: 1.0;"/><text fill="#000000" font-family="sans-serif" font-size="11" lengthAdjust="spacingAndGlyphs" textLength="43" x="1419" y="95.9683">findAll()</text><!--MD5=[0a27743fdad3d6a1c7e29267a08d562d]
class ListsXML--><rect fill="#FEFECE" filter="url(#f11jnqb3z9num2)" height="73.6094" id="ListsXML" style="stroke: #A80036; stroke-width: 1.5;" width="243" x="676" y="330.9531"/><ellipse cx="767.75" cy="346.9531" fill="#ADD1B2" rx="11" ry="11" style="stroke: #A80036; stroke-width: 1.0;"/><path d="M770.0938,342.625 C769.1563,342.1875 768.5625,342.0469 767.6875,342.0469 C765.0625,342.0469 763.0625,344.125 763.0625,346.8438 L763.0625,347.9688 C763.0625,350.5469 765.1719,352.4375 768.0625,352.4375 C769.2813,352.4375 770.4375,352.1406 771.1875,351.5938 C771.7656,351.1875 772.0938,350.7344 772.0938,350.3438 C772.0938,349.8906 771.7031,349.5 771.2344,349.5 C771.0156,349.5 770.8125,349.5781 770.625,349.7656 C770.1719,350.25 770.1719,350.25 769.9844,350.3438 C769.5625,350.6094 768.875,350.7344 768.1094,350.7344 C766.0625,350.7344 764.7656,349.6406 764.7656,347.9375 L764.7656,346.8438 C764.7656,345.0625 766.0156,343.75 767.75,343.75 C768.3281,343.75 768.9375,343.9063 769.4063,344.1563 C769.8906,344.4375 770.0625,344.6563 770.1563,345.0625 C770.2188,345.4688 770.25,345.5938 770.3906,345.7188 C770.5313,345.8594 770.7656,345.9688 770.9844,345.9688 C771.25,345.9688 771.5156,345.8281 771.6875,345.6094 C771.7969,345.4531 771.8281,345.2656 771.8281,344.8438 L771.8281,343.4219 C771.8281,342.9844 771.8125,342.8594 771.7188,342.7031 C771.5625,342.4375 771.2813,342.2969 770.9844,342.2969 C770.6875,342.2969 770.4844,342.3906 770.2656,342.7031 L770.0938,342.625 Z "/><text fill="#000000" font-family="sans-serif" font-size="12" lengthAdjust="spacingAndGlyphs" textLength="51" x="788.25" y="351.1074">ListsXML</text><line style="stroke: #A80036; stroke-width: 1.5;" x1="677" x2="918" y1="362.9531" y2="362.9531"/><line style="stroke: #A80036; stroke-width: 1.5;" x1="677" x2="918" y1="370.9531" y2="370.9531"/><ellipse cx="687" cy="381.9531" fill="#84BE84" rx="3" ry="3" style="stroke: #038048; stroke-width: 1.0;"/><text fill="#000000" font-family="sans-serif" font-size="11" lengthAdjust="spacingAndGlyphs" textLength="45" x="696" y="385.1636">create()</text><ellipse cx="687" cy="394.7578" fill="#84BE84" rx="3" ry="3" style="stroke: #038048; stroke-width: 1.0;"/><text fill="#000000" font-family="sans-serif" font-size="11" lengthAdjust="spacingAndGlyphs" textLength="217" x="696" y="397.9683">criarInstanciaListXML(dadosEscolhidos)</text><!--MD5=[7b88f3117ec9426bc9a8bc592be156b9]
class JAXBContext--><rect fill="#FEFECE" filter="url(#f11jnqb3z9num2)" height="73.6094" id="JAXBContext" style="stroke: #A80036; stroke-width: 1.5;" width="150" x="954.5" y="330.9531"/><ellipse cx="989.3" cy="346.9531" fill="#ADD1B2" rx="11" ry="11" style="stroke: #A80036; stroke-width: 1.0;"/><path d="M991.6438,342.625 C990.7063,342.1875 990.1125,342.0469 989.2375,342.0469 C986.6125,342.0469 984.6125,344.125 984.6125,346.8438 L984.6125,347.9688 C984.6125,350.5469 986.7219,352.4375 989.6125,352.4375 C990.8313,352.4375 991.9875,352.1406 992.7375,351.5938 C993.3156,351.1875 993.6438,350.7344 993.6438,350.3438 C993.6438,349.8906 993.2531,349.5 992.7844,349.5 C992.5656,349.5 992.3625,349.5781 992.175,349.7656 C991.7219,350.25 991.7219,350.25 991.5344,350.3438 C991.1125,350.6094 990.425,350.7344 989.6594,350.7344 C987.6125,350.7344 986.3156,349.6406 986.3156,347.9375 L986.3156,346.8438 C986.3156,345.0625 987.5656,343.75 989.3,343.75 C989.8781,343.75 990.4875,343.9063 990.9563,344.1563 C991.4406,344.4375 991.6125,344.6563 991.7063,345.0625 C991.7688,345.4688 991.8,345.5938 991.9406,345.7188 C992.0813,345.8594 992.3156,345.9688 992.5344,345.9688 C992.8,345.9688 993.0656,345.8281 993.2375,345.6094 C993.3469,345.4531 993.3781,345.2656 993.3781,344.8438 L993.3781,343.4219 C993.3781,342.9844 993.3625,342.8594 993.2688,342.7031 C993.1125,342.4375 992.8313,342.2969 992.5344,342.2969 C992.2375,342.2969 992.0344,342.3906 991.8156,342.7031 L991.6438,342.625 Z "/><text fill="#000000" font-family="sans-serif" font-size="12" lengthAdjust="spacingAndGlyphs" textLength="74" x="1007.7" y="351.1074">JAXBContext</text><line style="stroke: #A80036; stroke-width: 1.5;" x1="955.5" x2="1103.5" y1="362.9531" y2="362.9531"/><line style="stroke: #A80036; stroke-width: 1.5;" x1="955.5" x2="1103.5" y1="370.9531" y2="370.9531"/><ellipse cx="965.5" cy="381.9531" fill="#84BE84" rx="3" ry="3" style="stroke: #038048; stroke-width: 1.0;"/><text fill="#000000" font-family="sans-serif" font-size="11" lengthAdjust="spacingAndGlyphs" textLength="124" x="974.5" y="385.1636">create(ListsXML.class)</text><ellipse cx="965.5" cy="394.7578" fill="#84BE84" rx="3" ry="3" style="stroke: #038048; stroke-width: 1.0;"/><text fill="#000000" font-family="sans-serif" font-size="11" lengthAdjust="spacingAndGlyphs" textLength="103" x="974.5" y="397.9683">createMarshaller()</text><!--MD5=[1dbb82c954ae9aaf1655840e703be0aa]
class Marshaller--><rect fill="#FEFECE" filter="url(#f11jnqb3z9num2)" height="73.6094" id="Marshaller" style="stroke: #A80036; stroke-width: 1.5;" width="344" x="857.5" y="179.9531"/><ellipse cx="994.25" cy="195.9531" fill="#ADD1B2" rx="11" ry="11" style="stroke: #A80036; stroke-width: 1.0;"/><path d="M996.5938,191.625 C995.6563,191.1875 995.0625,191.0469 994.1875,191.0469 C991.5625,191.0469 989.5625,193.125 989.5625,195.8438 L989.5625,196.9688 C989.5625,199.5469 991.6719,201.4375 994.5625,201.4375 C995.7813,201.4375 996.9375,201.1406 997.6875,200.5938 C998.2656,200.1875 998.5938,199.7344 998.5938,199.3438 C998.5938,198.8906 998.2031,198.5 997.7344,198.5 C997.5156,198.5 997.3125,198.5781 997.125,198.7656 C996.6719,199.25 996.6719,199.25 996.4844,199.3438 C996.0625,199.6094 995.375,199.7344 994.6094,199.7344 C992.5625,199.7344 991.2656,198.6406 991.2656,196.9375 L991.2656,195.8438 C991.2656,194.0625 992.5156,192.75 994.25,192.75 C994.8281,192.75 995.4375,192.9063 995.9063,193.1563 C996.3906,193.4375 996.5625,193.6563 996.6563,194.0625 C996.7188,194.4688 996.75,194.5938 996.8906,194.7188 C997.0313,194.8594 997.2656,194.9688 997.4844,194.9688 C997.75,194.9688 998.0156,194.8281 998.1875,194.6094 C998.2969,194.4531 998.3281,194.2656 998.3281,193.8438 L998.3281,192.4219 C998.3281,191.9844 998.3125,191.8594 998.2188,191.7031 C998.0625,191.4375 997.7813,191.2969 997.4844,191.2969 C997.1875,191.2969 996.9844,191.3906 996.7656,191.7031 L996.5938,191.625 Z "/><text fill="#000000" font-family="sans-serif" font-size="12" lengthAdjust="spacingAndGlyphs" textLength="62" x="1014.75" y="200.1074">Marshaller</text><line style="stroke: #A80036; stroke-width: 1.5;" x1="858.5" x2="1200.5" y1="211.9531" y2="211.9531"/><line style="stroke: #A80036; stroke-width: 1.5;" x1="858.5" x2="1200.5" y1="219.9531" y2="219.9531"/><ellipse cx="868.5" cy="230.9531" fill="#84BE84" rx="3" ry="3" style="stroke: #038048; stroke-width: 1.0;"/><text fill="#000000" font-family="sans-serif" font-size="11" lengthAdjust="spacingAndGlyphs" textLength="96" x="877.5" y="234.1636">setProperty(true)</text><ellipse cx="868.5" cy="243.7578" fill="#84BE84" rx="3" ry="3" style="stroke: #038048; stroke-width: 1.0;"/><text fill="#000000" font-family="sans-serif" font-size="11" lengthAdjust="spacingAndGlyphs" textLength="318" x="877.5" y="246.9683">marshal(ListsXML lxml, FileOutputStream outputStream)</text><!--MD5=[6162e492d475a9619f69388007877d6c]
class FileOutputStream--><rect fill="#FEFECE" filter="url(#f11jnqb3z9num2)" height="60.8047" id="FileOutputStream" style="stroke: #A80036; stroke-width: 1.5;" width="136" x="1139.5" y="337.4531"/><ellipse cx="1154.5" cy="353.4531" fill="#ADD1B2" rx="11" ry="11" style="stroke: #A80036; stroke-width: 1.0;"/><path d="M1156.8438,349.125 C1155.9063,348.6875 1155.3125,348.5469 1154.4375,348.5469 C1151.8125,348.5469 1149.8125,350.625 1149.8125,353.3438 L1149.8125,354.4688 C1149.8125,357.0469 1151.9219,358.9375 1154.8125,358.9375 C1156.0313,358.9375 1157.1875,358.6406 1157.9375,358.0938 C1158.5156,357.6875 1158.8438,357.2344 1158.8438,356.8438 C1158.8438,356.3906 1158.4531,356 1157.9844,356 C1157.7656,356 1157.5625,356.0781 1157.375,356.2656 C1156.9219,356.75 1156.9219,356.75 1156.7344,356.8438 C1156.3125,357.1094 1155.625,357.2344 1154.8594,357.2344 C1152.8125,357.2344 1151.5156,356.1406 1151.5156,354.4375 L1151.5156,353.3438 C1151.5156,351.5625 1152.7656,350.25 1154.5,350.25 C1155.0781,350.25 1155.6875,350.4063 1156.1563,350.6563 C1156.6406,350.9375 1156.8125,351.1563 1156.9063,351.5625 C1156.9688,351.9688 1157,352.0938 1157.1406,352.2188 C1157.2813,352.3594 1157.5156,352.4688 1157.7344,352.4688 C1158,352.4688 1158.2656,352.3281 1158.4375,352.1094 C1158.5469,351.9531 1158.5781,351.7656 1158.5781,351.3438 L1158.5781,349.9219 C1158.5781,349.4844 1158.5625,349.3594 1158.4688,349.2031 C1158.3125,348.9375 1158.0313,348.7969 1157.7344,348.7969 C1157.4375,348.7969 1157.2344,348.8906 1157.0156,349.2031 L1156.8438,349.125 Z "/><text fill="#000000" font-family="sans-serif" font-size="12" lengthAdjust="spacingAndGlyphs" textLength="104" x="1168.5" y="357.6074">FileOutputStream</text><line style="stroke: #A80036; stroke-width: 1.5;" x1="1140.5" x2="1274.5" y1="369.4531" y2="369.4531"/><line style="stroke: #A80036; stroke-width: 1.5;" x1="1140.5" x2="1274.5" y1="377.4531" y2="377.4531"/><ellipse cx="1150.5" cy="388.4531" fill="#84BE84" rx="3" ry="3" style="stroke: #038048; stroke-width: 1.0;"/><text fill="#000000" font-family="sans-serif" font-size="11" lengthAdjust="spacingAndGlyphs" textLength="107" x="1159.5" y="391.6636">create(String path)</text><!--MD5=[abd982b83dc65ccff71473d805e9c02d]
reverse link ExportarParaXMLController to ExportarParaXMLUI--><path d="M871.5,561.3871 C871.5,584.2941 871.5,612.2185 871.5,632.9054 " fill="none" id="ExportarParaXMLController&lt;-ExportarParaXMLUI" style="stroke: #A80036; stroke-width: 1.0;"/><polygon fill="#A80036" points="871.5,556.2801,867.5,565.2801,871.5,561.2801,875.5,565.2801,871.5,556.2801" style="stroke: #A80036; stroke-width: 1.0;"/><text fill="#000000" font-family="sans-serif" font-size="13" lengthAdjust="spacingAndGlyphs" textLength="44" x="872.5" y="599.02">chama</text><text fill="#000000" font-family="sans-serif" font-size="13" lengthAdjust="spacingAndGlyphs" textLength="8" x="862.8625" y="575.533">1</text><text fill="#000000" font-family="sans-serif" font-size="13" lengthAdjust="spacingAndGlyphs" textLength="8" x="862.625" y="621.6853">1</text><!--MD5=[154bc1f460f14baabd3101d9969616d1]
reverse link PersistenceContext to ExportarParaXMLController--><path d="M631.782,400.8451 C680.516,424.6531 747.151,457.2051 797.798,481.9481 " fill="none" id="PersistenceContext&lt;-ExportarParaXMLController" style="stroke: #A80036; stroke-width: 1.0;"/><polygon fill="#A80036" points="627.123,398.5691,633.4527,406.1147,631.6152,400.7645,636.9654,398.9271,627.123,398.5691" style="stroke: #A80036; stroke-width: 1.0;"/><text fill="#000000" font-family="sans-serif" font-size="13" lengthAdjust="spacingAndGlyphs" textLength="44" x="729.5" y="448.02">chama</text><text fill="#000000" font-family="sans-serif" font-size="13" lengthAdjust="spacingAndGlyphs" textLength="8" x="630.8015" y="418.5313">1</text><text fill="#000000" font-family="sans-serif" font-size="13" lengthAdjust="spacingAndGlyphs" textLength="8" x="775.4717" y="470.8577">1</text><!--MD5=[9fa812b5d85aa0dd782206fb3fd23f92]
reverse link RepositoryFactory to PersistenceContext--><path d="M566.5,252.7491 C566.5,278.3771 566.5,312.8621 566.5,337.2101 " fill="none" id="RepositoryFactory&lt;-PersistenceContext" style="stroke: #A80036; stroke-width: 1.0;"/><polygon fill="#A80036" points="566.5,247.7471,562.5,256.7471,566.5,252.7471,570.5,256.7471,566.5,247.7471" style="stroke: #A80036; stroke-width: 1.0;"/><text fill="#000000" font-family="sans-serif" font-size="13" lengthAdjust="spacingAndGlyphs" textLength="44" x="567.5" y="297.02">chama</text><text fill="#000000" font-family="sans-serif" font-size="13" lengthAdjust="spacingAndGlyphs" textLength="8" x="557.7125" y="267.3855">1</text><text fill="#000000" font-family="sans-serif" font-size="13" lengthAdjust="spacingAndGlyphs" textLength="8" x="557.675" y="326.4232">1</text><!--MD5=[c1991e658e671a9be50e2f0f7fd7c9a9]
reverse link LinhaProducaoRepository to RepositoryFactory--><path d="M492.833,107.2761 C509.713,132.1791 531.003,163.5861 546.349,186.2261 " fill="none" id="LinhaProducaoRepository&lt;-RepositoryFactory" style="stroke: #A80036; stroke-width: 1.0;"/><polygon fill="#A80036" points="489.949,103.0221,491.6861,112.7166,492.7537,107.1614,498.3089,108.229,489.949,103.0221" style="stroke: #A80036; stroke-width: 1.0;"/><text fill="#000000" font-family="sans-serif" font-size="13" lengthAdjust="spacingAndGlyphs" textLength="23" x="520.5" y="146.02">cria</text><text fill="#000000" font-family="sans-serif" font-size="13" lengthAdjust="spacingAndGlyphs" textLength="8" x="485.3359" y="122.5141">1</text><text fill="#000000" font-family="sans-serif" font-size="13" lengthAdjust="spacingAndGlyphs" textLength="8" x="533.3679" y="175.4425">1</text><!--MD5=[c933e1070eb3e411d35597e9b95c927f]
reverse link MaquinaRepository to RepositoryFactory--><path d="M778.634,105.4351 C730.302,130.6161 668.093,163.0251 623.56,186.2261 " fill="none" id="MaquinaRepository&lt;-RepositoryFactory" style="stroke: #A80036; stroke-width: 1.0;"/><polygon fill="#A80036" points="783.267,103.0221,773.4372,103.6352,778.8332,105.3333,777.1351,110.7293,783.267,103.0221" style="stroke: #A80036; stroke-width: 1.0;"/><text fill="#000000" font-family="sans-serif" font-size="13" lengthAdjust="spacingAndGlyphs" textLength="23" x="719.5" y="146.02">cria</text><text fill="#000000" font-family="sans-serif" font-size="13" lengthAdjust="spacingAndGlyphs" textLength="8" x="763.5955" y="122.2339">1</text><text fill="#000000" font-family="sans-serif" font-size="13" lengthAdjust="spacingAndGlyphs" textLength="8" x="626.5036" y="175.4425">1</text><!--MD5=[dcaef6be9d16728063175dddda991776]
reverse link ProdutoRepository to RepositoryFactory--><path d="M154.065,98.5381 C158.255,100.0741 162.42,101.5561 166.5,102.9531 C280.002,141.8111 414.78,177.8561 495.332,198.3531 " fill="none" id="ProdutoRepository&lt;-RepositoryFactory" style="stroke: #A80036; stroke-width: 1.0;"/><polygon fill="#A80036" points="149.137,96.7111,156.1867,103.5888,153.8255,98.4483,158.9661,96.0871,149.137,96.7111" style="stroke: #A80036; stroke-width: 1.0;"/><text fill="#000000" font-family="sans-serif" font-size="13" lengthAdjust="spacingAndGlyphs" textLength="23" x="309.5" y="146.02">cria</text><text fill="#000000" font-family="sans-serif" font-size="13" lengthAdjust="spacingAndGlyphs" textLength="8" x="156.9371" y="96.2035">1</text><text fill="#000000" font-family="sans-serif" font-size="13" lengthAdjust="spacingAndGlyphs" textLength="8" x="479.5803" y="192.7454">1</text><!--MD5=[412933c4ef7c4064ae0737ec276dccba]
reverse link CategoriaRepository to RepositoryFactory--><path d="M339.961,105.2831 C391.549,130.4851 458.062,162.9781 505.649,186.2261 " fill="none" id="CategoriaRepository&lt;-RepositoryFactory" style="stroke: #A80036; stroke-width: 1.0;"/><polygon fill="#A80036" points="335.332,103.0221,341.6617,110.5677,339.8242,105.2175,345.1744,103.3801,335.332,103.0221" style="stroke: #A80036; stroke-width: 1.0;"/><text fill="#000000" font-family="sans-serif" font-size="13" lengthAdjust="spacingAndGlyphs" textLength="23" x="424.5" y="146.02">cria</text><text fill="#000000" font-family="sans-serif" font-size="13" lengthAdjust="spacingAndGlyphs" textLength="8" x="338.8979" y="122.5141">1</text><text fill="#000000" font-family="sans-serif" font-size="13" lengthAdjust="spacingAndGlyphs" textLength="8" x="484.2735" y="175.4425">1</text><!--MD5=[905a7145a86f3051f6280b086cfb9865]
reverse link MateriaPrimaRepository to RepositoryFactory--><path d="M955.868,98.6001 C951.353,100.0871 946.879,101.5451 942.5,102.9531 C836.892,136.9131 713.596,173.3641 637.785,195.4141 " fill="none" id="MateriaPrimaRepository&lt;-RepositoryFactory" style="stroke: #A80036; stroke-width: 1.0;"/><polygon fill="#A80036" points="960.781,96.9761,950.9803,96.0035,956.0337,98.5457,953.4916,103.5992,960.781,96.9761" style="stroke: #A80036; stroke-width: 1.0;"/><text fill="#000000" font-family="sans-serif" font-size="13" lengthAdjust="spacingAndGlyphs" textLength="23" x="841.5" y="146.02">cria</text><text fill="#000000" font-family="sans-serif" font-size="13" lengthAdjust="spacingAndGlyphs" textLength="8" x="944.9848" y="96.087">1</text><text fill="#000000" font-family="sans-serif" font-size="13" lengthAdjust="spacingAndGlyphs" textLength="8" x="645.5488" y="189.5033">1</text><!--MD5=[4e02338f576800651e5972caf7140b04]
reverse link DepositoRepository to RepositoryFactory--><path d="M640.897,107.2761 C623.849,132.1791 602.348,163.5861 586.85,186.2261 " fill="none" id="DepositoRepository&lt;-RepositoryFactory" style="stroke: #A80036; stroke-width: 1.0;"/><polygon fill="#A80036" points="643.809,103.0221,635.4244,108.1892,640.9846,107.148,642.0258,112.7082,643.809,103.0221" style="stroke: #A80036; stroke-width: 1.0;"/><text fill="#000000" font-family="sans-serif" font-size="13" lengthAdjust="spacingAndGlyphs" textLength="23" x="622.5" y="146.02">cria</text><text fill="#000000" font-family="sans-serif" font-size="13" lengthAdjust="spacingAndGlyphs" textLength="8" x="631.0571" y="122.5141">1</text><text fill="#000000" font-family="sans-serif" font-size="13" lengthAdjust="spacingAndGlyphs" textLength="8" x="582.2222" y="175.4425">1</text><!--MD5=[8165762c4ec464af7862e173f5715be3]
reverse link ListsXML to ExportarParaXMLController--><path d="M817.757,409.7411 C828.935,432.2481 842.696,459.9561 853.495,481.7001 " fill="none" id="ListsXML&lt;-ExportarParaXMLController" style="stroke: #A80036; stroke-width: 1.0;"/><polygon fill="#A80036" points="815.413,405.0221,815.8338,414.862,817.6371,409.5002,822.9988,411.3035,815.413,405.0221" style="stroke: #A80036; stroke-width: 1.0;"/><text fill="#000000" font-family="sans-serif" font-size="13" lengthAdjust="spacingAndGlyphs" textLength="23" x="838.5" y="448.02">cria</text><text fill="#000000" font-family="sans-serif" font-size="13" lengthAdjust="spacingAndGlyphs" textLength="8" x="809.7173" y="424.5141">1</text><text fill="#000000" font-family="sans-serif" font-size="13" lengthAdjust="spacingAndGlyphs" textLength="8" x="841.5754" y="470.842">1</text><!--MD5=[2ca887bb647b32e1a8f3f7455026a7a4]
reverse link FileOutputStream to ExportarParaXMLController--><path d="M1135.91,400.7011 C1082.19,424.5211 1008.6,457.1561 952.693,481.9481 " fill="none" id="FileOutputStream&lt;-ExportarParaXMLController" style="stroke: #A80036; stroke-width: 1.0;"/><polygon fill="#A80036" points="1140.72,398.5691,1130.8712,398.5388,1136.1447,400.5857,1134.0978,405.8593,1140.72,398.5691" style="stroke: #A80036; stroke-width: 1.0;"/><text fill="#000000" font-family="sans-serif" font-size="13" lengthAdjust="spacingAndGlyphs" textLength="23" x="1051.5" y="448.02">cria</text><text fill="#000000" font-family="sans-serif" font-size="13" lengthAdjust="spacingAndGlyphs" textLength="8" x="1123.6513" y="415.5407">1</text><text fill="#000000" font-family="sans-serif" font-size="13" lengthAdjust="spacingAndGlyphs" textLength="8" x="958.9255" y="470.8577">1</text><!--MD5=[06ecf73f1a3c78f822a6d15c7c5a811e]
reverse link JAXBContext to ExportarParaXMLController--><path d="M987.441,408.6161 C963.367,431.3191 933.386,459.5921 909.943,481.7001 " fill="none" id="JAXBContext&lt;-ExportarParaXMLController" style="stroke: #A80036; stroke-width: 1.0;"/><polygon fill="#A80036" points="991.253,405.0221,981.9617,408.2888,987.6161,408.4533,987.4516,414.1078,991.253,405.0221" style="stroke: #A80036; stroke-width: 1.0;"/><text fill="#000000" font-family="sans-serif" font-size="13" lengthAdjust="spacingAndGlyphs" textLength="23" x="956.5" y="448.02">cria</text><text fill="#000000" font-family="sans-serif" font-size="13" lengthAdjust="spacingAndGlyphs" textLength="8" x="976.2558" y="424.5141">1</text><text fill="#000000" font-family="sans-serif" font-size="13" lengthAdjust="spacingAndGlyphs" textLength="8" x="908.0782" y="470.842">1</text><!--MD5=[9efe32613429070e60587db1872a4a6c]
reverse link Marshaller to JAXBContext--><path d="M1029.5,259.0241 C1029.5,281.4801 1029.5,309.0471 1029.5,330.7001 " fill="none" id="Marshaller&lt;-JAXBContext" style="stroke: #A80036; stroke-width: 1.0;"/><polygon fill="#A80036" points="1029.5,254.0221,1025.5,263.0221,1029.5,259.0221,1033.5,263.0221,1029.5,254.0221" style="stroke: #A80036; stroke-width: 1.0;"/><text fill="#000000" font-family="sans-serif" font-size="13" lengthAdjust="spacingAndGlyphs" textLength="23" x="1030.5" y="297.02">cria</text><text fill="#000000" font-family="sans-serif" font-size="13" lengthAdjust="spacingAndGlyphs" textLength="8" x="1020.8375" y="273.5141">1</text><text fill="#000000" font-family="sans-serif" font-size="13" lengthAdjust="spacingAndGlyphs" textLength="8" x="1020.7875" y="319.842">1</text><!--MD5=[3347612724c4f61c5099eb896b348db0]
@startuml
title 2007 - Exportação para XML

class ExportarParaXMLUI {
+ doShow()
}

class ExportarParaXMLController {
+ exportarClasseParaXML()
+ converterXML()
}

class PersistenceContext {
+ repositories()
}

class RepositoryFactory {
+ create()
}

class ProdutoRepository {
+ create()
+ findAll()
}

class CategoriaRepository {
+ create()
+ findAll()
}

class LinhaProducaoRepository {
+ create()
+ findAll()
}

class DepositoRepository {
+ create()
+ findAll()
}

class MaquinaRepository {
+ create()
+ findAll()
}

class MateriaPrimaRepository {
+ create()
+ findAll()
}

class OrdemProducaoRepository {
+ create()
+ findAll()
}

class EncomendaRepository {
+ create()
+ findAll()
}

class ListsXML {
+ create()
+ criarInstanciaListXML(dadosEscolhidos)
}

class JAXBContext {
+ create(ListsXML.class)
+ createMarshaller()
}

class Marshaller {
+ setProperty(true)
+ marshal(ListsXML lxml, FileOutputStream outputStream)
}

class FileOutputStream {
+ create(String path)
}

ExportarParaXMLController "1" <-up- "1" ExportarParaXMLUI:chama
PersistenceContext "1" <-up- "1" ExportarParaXMLController:chama
RepositoryFactory "1" <-up- "1" PersistenceContext:chama
LinhaProducaoRepository "1" <-up- "1" RepositoryFactory: cria
MaquinaRepository "1" <-up- "1" RepositoryFactory: cria
ProdutoRepository "1" <-up- "1" RepositoryFactory: cria
CategoriaRepository "1" <-up- "1" RepositoryFactory: cria
MateriaPrimaRepository "1" <-up- "1" RepositoryFactory: cria
DepositoRepository "1" <-up- "1" RepositoryFactory: cria
ListsXML "1" <-up- "1" ExportarParaXMLController:cria
FileOutputStream  "1" <-up- "1" ExportarParaXMLController:cria
JAXBContext  "1" <-up- "1" ExportarParaXMLController:cria
Marshaller  "1" <-up- "1" JAXBContext:cria
@enduml

PlantUML version 1.2020.11(Sat May 30 10:13:43 UTC 2020)
(GPL source distribution)
Java Runtime: Java(TM) SE Runtime Environment
JVM: Java HotSpot(TM) 64-Bit Server VM
Default Encoding: UTF-8
Language: en
Country: US
--></g></svg>