<?xml version="1.0" encoding="UTF-8" standalone="no"?><svg xmlns="http://www.w3.org/2000/svg" xmlns:xlink="http://www.w3.org/1999/xlink" contentScriptType="application/ecmascript" contentStyleType="text/css" height="991px" preserveAspectRatio="none" style="width:2882px;height:991px;" version="1.1" viewBox="0 0 2882 991" width="2882px" zoomAndPan="magnify"><defs><filter height="300%" id="f14vgbcvztvdo3" width="300%" x="-1" y="-1"><feGaussianBlur result="blurOut" stdDeviation="2.0"/><feColorMatrix in="blurOut" result="blurOut2" type="matrix" values="0 0 0 0 0 0 0 0 0 0 0 0 0 0 0 0 0 0 .4 0"/><feOffset dx="4.0" dy="4.0" in="blurOut2" result="blurOut3"/><feBlend in="SourceGraphic" in2="blurOut3" mode="normal"/></filter></defs><g><text fill="#000000" font-family="sans-serif" font-size="18" lengthAdjust="spacingAndGlyphs" textLength="262" x="1310.5" y="26.708">2007 - Exportação para XML</text><line style="stroke: #A80036; stroke-width: 1.0; stroke-dasharray: 5.0,5.0;" x1="85" x2="85" y1="73.25" y2="951.1016"/><line style="stroke: #A80036; stroke-width: 1.0; stroke-dasharray: 5.0,5.0;" x1="280" x2="280" y1="73.25" y2="951.1016"/><line style="stroke: #A80036; stroke-width: 1.0; stroke-dasharray: 5.0,5.0;" x1="598" x2="598" y1="73.25" y2="951.1016"/><line style="stroke: #A80036; stroke-width: 1.0; stroke-dasharray: 5.0,5.0;" x1="729" x2="729" y1="73.25" y2="951.1016"/><line style="stroke: #A80036; stroke-width: 1.0; stroke-dasharray: 5.0,5.0;" x1="895" x2="895" y1="73.25" y2="951.1016"/><line style="stroke: #A80036; stroke-width: 1.0; stroke-dasharray: 5.0,5.0;" x1="1058" x2="1058" y1="73.25" y2="951.1016"/><line style="stroke: #A80036; stroke-width: 1.0; stroke-dasharray: 5.0,5.0;" x1="1228" x2="1228" y1="73.25" y2="951.1016"/><line style="stroke: #A80036; stroke-width: 1.0; stroke-dasharray: 5.0,5.0;" x1="1403" x2="1403" y1="73.25" y2="951.1016"/><line style="stroke: #A80036; stroke-width: 1.0; stroke-dasharray: 5.0,5.0;" x1="1595" x2="1595" y1="73.25" y2="951.1016"/><line style="stroke: #A80036; stroke-width: 1.0; stroke-dasharray: 5.0,5.0;" x1="1783" x2="1783" y1="73.25" y2="951.1016"/><line style="stroke: #A80036; stroke-width: 1.0; stroke-dasharray: 5.0,5.0;" x1="1967" x2="1967" y1="73.25" y2="951.1016"/><line style="stroke: #A80036; stroke-width: 1.0; stroke-dasharray: 5.0,5.0;" x1="2163" x2="2163" y1="73.25" y2="951.1016"/><line style="stroke: #A80036; stroke-width: 1.0; stroke-dasharray: 5.0,5.0;" x1="2380" x2="2380" y1="73.25" y2="951.1016"/><line style="stroke: #A80036; stroke-width: 1.0; stroke-dasharray: 5.0,5.0;" x1="2561" x2="2561" y1="73.25" y2="951.1016"/><line style="stroke: #A80036; stroke-width: 1.0; stroke-dasharray: 5.0,5.0;" x1="2672" x2="2672" y1="73.25" y2="951.1016"/><line style="stroke: #A80036; stroke-width: 1.0; stroke-dasharray: 5.0,5.0;" x1="2801" x2="2801" y1="73.25" y2="951.1016"/><rect fill="#FEFECE" filter="url(#f14vgbcvztvdo3)" height="30.2969" style="stroke: #A80036; stroke-width: 1.5;" width="151" x="8" y="37.9531"/><text fill="#000000" font-family="sans-serif" font-size="14" lengthAdjust="spacingAndGlyphs" textLength="137" x="15" y="57.9482">ExportarParaXMLUI</text><rect fill="#FEFECE" filter="url(#f14vgbcvztvdo3)" height="30.2969" style="stroke: #A80036; stroke-width: 1.5;" width="151" x="8" y="950.1016"/><text fill="#000000" font-family="sans-serif" font-size="14" lengthAdjust="spacingAndGlyphs" textLength="137" x="15" y="970.0967">ExportarParaXMLUI</text><rect fill="#FEFECE" filter="url(#f14vgbcvztvdo3)" height="30.2969" style="stroke: #A80036; stroke-width: 1.5;" width="211" x="173" y="37.9531"/><text fill="#000000" font-family="sans-serif" font-size="14" lengthAdjust="spacingAndGlyphs" textLength="197" x="180" y="57.9482">ExportarParaXMLController</text><rect fill="#FEFECE" filter="url(#f14vgbcvztvdo3)" height="30.2969" style="stroke: #A80036; stroke-width: 1.5;" width="211" x="173" y="950.1016"/><text fill="#000000" font-family="sans-serif" font-size="14" lengthAdjust="spacingAndGlyphs" textLength="197" x="180" y="970.0967">ExportarParaXMLController</text><rect fill="#FEFECE" filter="url(#f14vgbcvztvdo3)" height="30.2969" style="stroke: #A80036; stroke-width: 1.5;" width="77" x="558" y="37.9531"/><text fill="#000000" font-family="sans-serif" font-size="14" lengthAdjust="spacingAndGlyphs" textLength="63" x="565" y="57.9482">ListsXML</text><rect fill="#FEFECE" filter="url(#f14vgbcvztvdo3)" height="30.2969" style="stroke: #A80036; stroke-width: 1.5;" width="77" x="558" y="950.1016"/><text fill="#000000" font-family="sans-serif" font-size="14" lengthAdjust="spacingAndGlyphs" textLength="63" x="565" y="970.0967">ListsXML</text><rect fill="#FEFECE" filter="url(#f14vgbcvztvdo3)" height="30.2969" style="stroke: #A80036; stroke-width: 1.5;" width="157" x="649" y="37.9531"/><text fill="#000000" font-family="sans-serif" font-size="14" lengthAdjust="spacingAndGlyphs" textLength="143" x="656" y="57.9482">PersistenceContext</text><rect fill="#FEFECE" filter="url(#f14vgbcvztvdo3)" height="30.2969" style="stroke: #A80036; stroke-width: 1.5;" width="157" x="649" y="950.1016"/><text fill="#000000" font-family="sans-serif" font-size="14" lengthAdjust="spacingAndGlyphs" textLength="143" x="656" y="970.0967">PersistenceContext</text><rect fill="#FEFECE" filter="url(#f14vgbcvztvdo3)" height="30.2969" style="stroke: #A80036; stroke-width: 1.5;" width="147" x="820" y="37.9531"/><text fill="#000000" font-family="sans-serif" font-size="14" lengthAdjust="spacingAndGlyphs" textLength="133" x="827" y="57.9482">RepositoryFactory</text><rect fill="#FEFECE" filter="url(#f14vgbcvztvdo3)" height="30.2969" style="stroke: #A80036; stroke-width: 1.5;" width="147" x="820" y="950.1016"/><text fill="#000000" font-family="sans-serif" font-size="14" lengthAdjust="spacingAndGlyphs" textLength="133" x="827" y="970.0967">RepositoryFactory</text><rect fill="#FEFECE" filter="url(#f14vgbcvztvdo3)" height="30.2969" style="stroke: #A80036; stroke-width: 1.5;" width="150" x="981" y="37.9531"/><text fill="#000000" font-family="sans-serif" font-size="14" lengthAdjust="spacingAndGlyphs" textLength="136" x="988" y="57.9482">ProdutoRepository</text><rect fill="#FEFECE" filter="url(#f14vgbcvztvdo3)" height="30.2969" style="stroke: #A80036; stroke-width: 1.5;" width="150" x="981" y="950.1016"/><text fill="#000000" font-family="sans-serif" font-size="14" lengthAdjust="spacingAndGlyphs" textLength="136" x="988" y="970.0967">ProdutoRepository</text><rect fill="#FEFECE" filter="url(#f14vgbcvztvdo3)" height="30.2969" style="stroke: #A80036; stroke-width: 1.5;" width="163" x="1145" y="37.9531"/><text fill="#000000" font-family="sans-serif" font-size="14" lengthAdjust="spacingAndGlyphs" textLength="149" x="1152" y="57.9482">CategoriaRepository</text><rect fill="#FEFECE" filter="url(#f14vgbcvztvdo3)" height="30.2969" style="stroke: #A80036; stroke-width: 1.5;" width="163" x="1145" y="950.1016"/><text fill="#000000" font-family="sans-serif" font-size="14" lengthAdjust="spacingAndGlyphs" textLength="149" x="1152" y="970.0967">CategoriaRepository</text><rect fill="#FEFECE" filter="url(#f14vgbcvztvdo3)" height="30.2969" style="stroke: #A80036; stroke-width: 1.5;" width="159" x="1322" y="37.9531"/><text fill="#000000" font-family="sans-serif" font-size="14" lengthAdjust="spacingAndGlyphs" textLength="145" x="1329" y="57.9482">DepositoRepository</text><rect fill="#FEFECE" filter="url(#f14vgbcvztvdo3)" height="30.2969" style="stroke: #A80036; stroke-width: 1.5;" width="159" x="1322" y="950.1016"/><text fill="#000000" font-family="sans-serif" font-size="14" lengthAdjust="spacingAndGlyphs" textLength="145" x="1329" y="970.0967">DepositoRepository</text><rect fill="#FEFECE" filter="url(#f14vgbcvztvdo3)" height="30.2969" style="stroke: #A80036; stroke-width: 1.5;" width="197" x="1495" y="37.9531"/><text fill="#000000" font-family="sans-serif" font-size="14" lengthAdjust="spacingAndGlyphs" textLength="183" x="1502" y="57.9482">LinhaProducaoRepository</text><rect fill="#FEFECE" filter="url(#f14vgbcvztvdo3)" height="30.2969" style="stroke: #A80036; stroke-width: 1.5;" width="197" x="1495" y="950.1016"/><text fill="#000000" font-family="sans-serif" font-size="14" lengthAdjust="spacingAndGlyphs" textLength="183" x="1502" y="970.0967">LinhaProducaoRepository</text><rect fill="#FEFECE" filter="url(#f14vgbcvztvdo3)" height="30.2969" style="stroke: #A80036; stroke-width: 1.5;" width="151" x="1706" y="37.9531"/><text fill="#000000" font-family="sans-serif" font-size="14" lengthAdjust="spacingAndGlyphs" textLength="137" x="1713" y="57.9482">MaquinaRepository</text><rect fill="#FEFECE" filter="url(#f14vgbcvztvdo3)" height="30.2969" style="stroke: #A80036; stroke-width: 1.5;" width="151" x="1706" y="950.1016"/><text fill="#000000" font-family="sans-serif" font-size="14" lengthAdjust="spacingAndGlyphs" textLength="137" x="1713" y="970.0967">MaquinaRepository</text><rect fill="#FEFECE" filter="url(#f14vgbcvztvdo3)" height="30.2969" style="stroke: #A80036; stroke-width: 1.5;" width="188" x="1871" y="37.9531"/><text fill="#000000" font-family="sans-serif" font-size="14" lengthAdjust="spacingAndGlyphs" textLength="174" x="1878" y="57.9482">MateriaPrimaRepository</text><rect fill="#FEFECE" filter="url(#f14vgbcvztvdo3)" height="30.2969" style="stroke: #A80036; stroke-width: 1.5;" width="188" x="1871" y="950.1016"/><text fill="#000000" font-family="sans-serif" font-size="14" lengthAdjust="spacingAndGlyphs" textLength="174" x="1878" y="970.0967">MateriaPrimaRepository</text><rect fill="#FEFECE" filter="url(#f14vgbcvztvdo3)" height="30.2969" style="stroke: #A80036; stroke-width: 1.5;" width="177" x="2073" y="37.9531"/><text fill="#000000" font-family="sans-serif" font-size="14" lengthAdjust="spacingAndGlyphs" textLength="163" x="2080" y="57.9482">EncomendaRepository</text><rect fill="#FEFECE" filter="url(#f14vgbcvztvdo3)" height="30.2969" style="stroke: #A80036; stroke-width: 1.5;" width="177" x="2073" y="950.1016"/><text fill="#000000" font-family="sans-serif" font-size="14" lengthAdjust="spacingAndGlyphs" textLength="163" x="2080" y="970.0967">EncomendaRepository</text><rect fill="#FEFECE" filter="url(#f14vgbcvztvdo3)" height="30.2969" style="stroke: #A80036; stroke-width: 1.5;" width="228" x="2264" y="37.9531"/><text fill="#000000" font-family="sans-serif" font-size="14" lengthAdjust="spacingAndGlyphs" textLength="214" x="2271" y="57.9482">OrdemDeProducaoRepository</text><rect fill="#FEFECE" filter="url(#f14vgbcvztvdo3)" height="30.2969" style="stroke: #A80036; stroke-width: 1.5;" width="228" x="2264" y="950.1016"/><text fill="#000000" font-family="sans-serif" font-size="14" lengthAdjust="spacingAndGlyphs" textLength="214" x="2271" y="970.0967">OrdemDeProducaoRepository</text><rect fill="#FEFECE" filter="url(#f14vgbcvztvdo3)" height="30.2969" style="stroke: #A80036; stroke-width: 1.5;" width="107" x="2506" y="37.9531"/><text fill="#000000" font-family="sans-serif" font-size="14" lengthAdjust="spacingAndGlyphs" textLength="93" x="2513" y="57.9482">JAXBContext</text><rect fill="#FEFECE" filter="url(#f14vgbcvztvdo3)" height="30.2969" style="stroke: #A80036; stroke-width: 1.5;" width="107" x="2506" y="950.1016"/><text fill="#000000" font-family="sans-serif" font-size="14" lengthAdjust="spacingAndGlyphs" textLength="93" x="2513" y="970.0967">JAXBContext</text><rect fill="#FEFECE" filter="url(#f14vgbcvztvdo3)" height="30.2969" style="stroke: #A80036; stroke-width: 1.5;" width="87" x="2627" y="37.9531"/><text fill="#000000" font-family="sans-serif" font-size="14" lengthAdjust="spacingAndGlyphs" textLength="73" x="2634" y="57.9482">Marshaller</text><rect fill="#FEFECE" filter="url(#f14vgbcvztvdo3)" height="30.2969" style="stroke: #A80036; stroke-width: 1.5;" width="87" x="2627" y="950.1016"/><text fill="#000000" font-family="sans-serif" font-size="14" lengthAdjust="spacingAndGlyphs" textLength="73" x="2634" y="970.0967">Marshaller</text><rect fill="#FEFECE" filter="url(#f14vgbcvztvdo3)" height="30.2969" style="stroke: #A80036; stroke-width: 1.5;" width="143" x="2728" y="37.9531"/><text fill="#000000" font-family="sans-serif" font-size="14" lengthAdjust="spacingAndGlyphs" textLength="129" x="2735" y="57.9482">FileOutputStream</text><rect fill="#FEFECE" filter="url(#f14vgbcvztvdo3)" height="30.2969" style="stroke: #A80036; stroke-width: 1.5;" width="143" x="2728" y="950.1016"/><text fill="#000000" font-family="sans-serif" font-size="14" lengthAdjust="spacingAndGlyphs" textLength="129" x="2735" y="970.0967">FileOutputStream</text><polygon fill="#A80036" points="268.5,100.3828,278.5,104.3828,268.5,108.3828,272.5,104.3828" style="stroke: #A80036; stroke-width: 1.0;"/><line style="stroke: #A80036; stroke-width: 1.0;" x1="85.5" x2="274.5" y1="104.3828" y2="104.3828"/><text fill="#000000" font-family="sans-serif" font-size="13" lengthAdjust="spacingAndGlyphs" textLength="41" x="92.5" y="99.3169">create</text><polygon fill="#A80036" points="268.5,129.5156,278.5,133.5156,268.5,137.5156,272.5,133.5156" style="stroke: #A80036; stroke-width: 1.0;"/><line style="stroke: #A80036; stroke-width: 1.0;" x1="85.5" x2="274.5" y1="133.5156" y2="133.5156"/><text fill="#000000" font-family="sans-serif" font-size="13" lengthAdjust="spacingAndGlyphs" textLength="162" x="92.5" y="128.4497">exportarClasseParaXML()</text><polygon fill="#A80036" points="586.5,158.6484,596.5,162.6484,586.5,166.6484,590.5,162.6484" style="stroke: #A80036; stroke-width: 1.0;"/><line style="stroke: #A80036; stroke-width: 1.0;" x1="280.5" x2="592.5" y1="162.6484" y2="162.6484"/><text fill="#000000" font-family="sans-serif" font-size="13" lengthAdjust="spacingAndGlyphs" textLength="294" x="287.5" y="157.5825">lxml = criarInstanciaListXML(dadosEscolhidos)</text><polygon fill="#A80036" points="717.5,187.7813,727.5,191.7813,717.5,195.7813,721.5,191.7813" style="stroke: #A80036; stroke-width: 1.0;"/><line style="stroke: #A80036; stroke-width: 1.0;" x1="598.5" x2="723.5" y1="191.7813" y2="191.7813"/><text fill="#000000" font-family="sans-serif" font-size="13" lengthAdjust="spacingAndGlyphs" textLength="85" x="605.5" y="186.7153">repositories()</text><polygon fill="#A80036" points="883.5,216.9141,893.5,220.9141,883.5,224.9141,887.5,220.9141" style="stroke: #A80036; stroke-width: 1.0;"/><line style="stroke: #A80036; stroke-width: 1.0;" x1="729.5" x2="889.5" y1="220.9141" y2="220.9141"/><text fill="#000000" font-family="sans-serif" font-size="13" lengthAdjust="spacingAndGlyphs" textLength="51" x="736.5" y="215.8481">create()</text><polygon fill="#A80036" points="1046,246.0469,1056,250.0469,1046,254.0469,1050,250.0469" style="stroke: #A80036; stroke-width: 1.0;"/><line style="stroke: #A80036; stroke-width: 1.0;" x1="895.5" x2="1052" y1="250.0469" y2="250.0469"/><text fill="#000000" font-family="sans-serif" font-size="13" lengthAdjust="spacingAndGlyphs" textLength="51" x="902.5" y="244.981">create()</text><polygon fill="#A80036" points="1046,275.1797,1056,279.1797,1046,283.1797,1050,279.1797" style="stroke: #A80036; stroke-width: 1.0;"/><line style="stroke: #A80036; stroke-width: 1.0;" x1="598.5" x2="1052" y1="279.1797" y2="279.1797"/><text fill="#000000" font-family="sans-serif" font-size="13" lengthAdjust="spacingAndGlyphs" textLength="49" x="605.5" y="274.1138">findAll()</text><polygon fill="#A80036" points="1216.5,304.3125,1226.5,308.3125,1216.5,312.3125,1220.5,308.3125" style="stroke: #A80036; stroke-width: 1.0;"/><line style="stroke: #A80036; stroke-width: 1.0;" x1="895.5" x2="1222.5" y1="308.3125" y2="308.3125"/><text fill="#000000" font-family="sans-serif" font-size="13" lengthAdjust="spacingAndGlyphs" textLength="51" x="902.5" y="303.2466">create()</text><polygon fill="#A80036" points="1216.5,333.4453,1226.5,337.4453,1216.5,341.4453,1220.5,337.4453" style="stroke: #A80036; stroke-width: 1.0;"/><line style="stroke: #A80036; stroke-width: 1.0;" x1="598.5" x2="1222.5" y1="337.4453" y2="337.4453"/><text fill="#000000" font-family="sans-serif" font-size="13" lengthAdjust="spacingAndGlyphs" textLength="49" x="605.5" y="332.3794">findAll()</text><polygon fill="#A80036" points="1391.5,362.5781,1401.5,366.5781,1391.5,370.5781,1395.5,366.5781" style="stroke: #A80036; stroke-width: 1.0;"/><line style="stroke: #A80036; stroke-width: 1.0;" x1="895.5" x2="1397.5" y1="366.5781" y2="366.5781"/><text fill="#000000" font-family="sans-serif" font-size="13" lengthAdjust="spacingAndGlyphs" textLength="51" x="902.5" y="361.5122">create()</text><polygon fill="#A80036" points="1391.5,391.7109,1401.5,395.7109,1391.5,399.7109,1395.5,395.7109" style="stroke: #A80036; stroke-width: 1.0;"/><line style="stroke: #A80036; stroke-width: 1.0;" x1="598.5" x2="1397.5" y1="395.7109" y2="395.7109"/><text fill="#000000" font-family="sans-serif" font-size="13" lengthAdjust="spacingAndGlyphs" textLength="49" x="605.5" y="390.645">findAll()</text><polygon fill="#A80036" points="1583.5,420.8438,1593.5,424.8438,1583.5,428.8438,1587.5,424.8438" style="stroke: #A80036; stroke-width: 1.0;"/><line style="stroke: #A80036; stroke-width: 1.0;" x1="895.5" x2="1589.5" y1="424.8438" y2="424.8438"/><text fill="#000000" font-family="sans-serif" font-size="13" lengthAdjust="spacingAndGlyphs" textLength="51" x="902.5" y="419.7778">create()</text><polygon fill="#A80036" points="1583.5,449.9766,1593.5,453.9766,1583.5,457.9766,1587.5,453.9766" style="stroke: #A80036; stroke-width: 1.0;"/><line style="stroke: #A80036; stroke-width: 1.0;" x1="598.5" x2="1589.5" y1="453.9766" y2="453.9766"/><text fill="#000000" font-family="sans-serif" font-size="13" lengthAdjust="spacingAndGlyphs" textLength="49" x="605.5" y="448.9106">findAll()</text><polygon fill="#A80036" points="1771.5,479.1094,1781.5,483.1094,1771.5,487.1094,1775.5,483.1094" style="stroke: #A80036; stroke-width: 1.0;"/><line style="stroke: #A80036; stroke-width: 1.0;" x1="895.5" x2="1777.5" y1="483.1094" y2="483.1094"/><text fill="#000000" font-family="sans-serif" font-size="13" lengthAdjust="spacingAndGlyphs" textLength="51" x="902.5" y="478.0435">create()</text><polygon fill="#A80036" points="1771.5,508.2422,1781.5,512.2422,1771.5,516.2422,1775.5,512.2422" style="stroke: #A80036; stroke-width: 1.0;"/><line style="stroke: #A80036; stroke-width: 1.0;" x1="598.5" x2="1777.5" y1="512.2422" y2="512.2422"/><text fill="#000000" font-family="sans-serif" font-size="13" lengthAdjust="spacingAndGlyphs" textLength="49" x="605.5" y="507.1763">findAll()</text><polygon fill="#A80036" points="1955,537.375,1965,541.375,1955,545.375,1959,541.375" style="stroke: #A80036; stroke-width: 1.0;"/><line style="stroke: #A80036; stroke-width: 1.0;" x1="895.5" x2="1961" y1="541.375" y2="541.375"/><text fill="#000000" font-family="sans-serif" font-size="13" lengthAdjust="spacingAndGlyphs" textLength="51" x="902.5" y="536.3091">create()</text><polygon fill="#A80036" points="1955,566.5078,1965,570.5078,1955,574.5078,1959,570.5078" style="stroke: #A80036; stroke-width: 1.0;"/><line style="stroke: #A80036; stroke-width: 1.0;" x1="598.5" x2="1961" y1="570.5078" y2="570.5078"/><text fill="#000000" font-family="sans-serif" font-size="13" lengthAdjust="spacingAndGlyphs" textLength="49" x="605.5" y="565.4419">findAll()</text><polygon fill="#A80036" points="1955,595.6406,1965,599.6406,1955,603.6406,1959,599.6406" style="stroke: #A80036; stroke-width: 1.0;"/><line style="stroke: #A80036; stroke-width: 1.0;" x1="895.5" x2="1961" y1="599.6406" y2="599.6406"/><text fill="#000000" font-family="sans-serif" font-size="13" lengthAdjust="spacingAndGlyphs" textLength="51" x="902.5" y="594.5747">create()</text><polygon fill="#A80036" points="1955,624.7734,1965,628.7734,1955,632.7734,1959,628.7734" style="stroke: #A80036; stroke-width: 1.0;"/><line style="stroke: #A80036; stroke-width: 1.0;" x1="598.5" x2="1961" y1="628.7734" y2="628.7734"/><text fill="#000000" font-family="sans-serif" font-size="13" lengthAdjust="spacingAndGlyphs" textLength="49" x="605.5" y="623.7075">findAll()</text><polygon fill="#A80036" points="2151.5,653.9063,2161.5,657.9063,2151.5,661.9063,2155.5,657.9063" style="stroke: #A80036; stroke-width: 1.0;"/><line style="stroke: #A80036; stroke-width: 1.0;" x1="895.5" x2="2157.5" y1="657.9063" y2="657.9063"/><text fill="#000000" font-family="sans-serif" font-size="13" lengthAdjust="spacingAndGlyphs" textLength="51" x="902.5" y="652.8403">create()</text><polygon fill="#A80036" points="2151.5,683.0391,2161.5,687.0391,2151.5,691.0391,2155.5,687.0391" style="stroke: #A80036; stroke-width: 1.0;"/><line style="stroke: #A80036; stroke-width: 1.0;" x1="598.5" x2="2157.5" y1="687.0391" y2="687.0391"/><text fill="#000000" font-family="sans-serif" font-size="13" lengthAdjust="spacingAndGlyphs" textLength="49" x="605.5" y="681.9731">findAll()</text><polygon fill="#A80036" points="2368,712.1719,2378,716.1719,2368,720.1719,2372,716.1719" style="stroke: #A80036; stroke-width: 1.0;"/><line style="stroke: #A80036; stroke-width: 1.0;" x1="895.5" x2="2374" y1="716.1719" y2="716.1719"/><text fill="#000000" font-family="sans-serif" font-size="13" lengthAdjust="spacingAndGlyphs" textLength="51" x="902.5" y="711.106">create()</text><polygon fill="#A80036" points="2368,741.3047,2378,745.3047,2368,749.3047,2372,745.3047" style="stroke: #A80036; stroke-width: 1.0;"/><line style="stroke: #A80036; stroke-width: 1.0;" x1="598.5" x2="2374" y1="745.3047" y2="745.3047"/><text fill="#000000" font-family="sans-serif" font-size="13" lengthAdjust="spacingAndGlyphs" textLength="49" x="605.5" y="740.2388">findAll()</text><line style="stroke: #A80036; stroke-width: 1.0;" x1="280.5" x2="322.5" y1="774.4375" y2="774.4375"/><line style="stroke: #A80036; stroke-width: 1.0;" x1="322.5" x2="322.5" y1="774.4375" y2="787.4375"/><line style="stroke: #A80036; stroke-width: 1.0;" x1="281.5" x2="322.5" y1="787.4375" y2="787.4375"/><polygon fill="#A80036" points="291.5,783.4375,281.5,787.4375,291.5,791.4375,287.5,787.4375" style="stroke: #A80036; stroke-width: 1.0;"/><text fill="#000000" font-family="sans-serif" font-size="13" lengthAdjust="spacingAndGlyphs" textLength="98" x="287.5" y="769.3716">converterXML()</text><polygon fill="#A80036" points="2549.5,812.5703,2559.5,816.5703,2549.5,820.5703,2553.5,816.5703" style="stroke: #A80036; stroke-width: 1.0;"/><line style="stroke: #A80036; stroke-width: 1.0;" x1="280.5" x2="2555.5" y1="816.5703" y2="816.5703"/><text fill="#000000" font-family="sans-serif" font-size="13" lengthAdjust="spacingAndGlyphs" textLength="142" x="287.5" y="811.5044">create(ListsXML.class)</text><polygon fill="#A80036" points="2549.5,841.7031,2559.5,845.7031,2549.5,849.7031,2553.5,845.7031" style="stroke: #A80036; stroke-width: 1.0;"/><line style="stroke: #A80036; stroke-width: 1.0;" x1="280.5" x2="2555.5" y1="845.7031" y2="845.7031"/><text fill="#000000" font-family="sans-serif" font-size="13" lengthAdjust="spacingAndGlyphs" textLength="116" x="287.5" y="840.6372">createMarshaller()</text><polygon fill="#A80036" points="2660.5,870.8359,2670.5,874.8359,2660.5,878.8359,2664.5,874.8359" style="stroke: #A80036; stroke-width: 1.0;"/><line style="stroke: #A80036; stroke-width: 1.0;" x1="280.5" x2="2666.5" y1="874.8359" y2="874.8359"/><text fill="#000000" font-family="sans-serif" font-size="13" lengthAdjust="spacingAndGlyphs" textLength="111" x="287.5" y="869.77">setProperty(true)</text><polygon fill="#A80036" points="2789.5,899.9688,2799.5,903.9688,2789.5,907.9688,2793.5,903.9688" style="stroke: #A80036; stroke-width: 1.0;"/><line style="stroke: #A80036; stroke-width: 1.0;" x1="280.5" x2="2795.5" y1="903.9688" y2="903.9688"/><text fill="#000000" font-family="sans-serif" font-size="13" lengthAdjust="spacingAndGlyphs" textLength="260" x="287.5" y="898.9028">outputStream=create("./instancias.xml")</text><polygon fill="#A80036" points="2660.5,929.1016,2670.5,933.1016,2660.5,937.1016,2664.5,933.1016" style="stroke: #A80036; stroke-width: 1.0;"/><line style="stroke: #A80036; stroke-width: 1.0;" x1="280.5" x2="2666.5" y1="933.1016" y2="933.1016"/><text fill="#000000" font-family="sans-serif" font-size="13" lengthAdjust="spacingAndGlyphs" textLength="186" x="287.5" y="928.0356">marshal(lxml, outputStream)</text><!--MD5=[f7a94862d31ef16da8abb37beb238fc2]
@startuml
title 2007 - Exportação para XML

ExportarParaXMLUI->ExportarParaXMLController:create
ExportarParaXMLUI->ExportarParaXMLController:exportarClasseParaXML()
ExportarParaXMLController->ListsXML:lxml = criarInstanciaListXML(dadosEscolhidos)
ListsXML->PersistenceContext:repositories()
PersistenceContext->RepositoryFactory:create()
RepositoryFactory->ProdutoRepository:create()
ListsXML->ProdutoRepository:findAll()
RepositoryFactory->CategoriaRepository:create()
ListsXML->CategoriaRepository:findAll()
RepositoryFactory->DepositoRepository:create()
ListsXML->DepositoRepository:findAll()
RepositoryFactory->LinhaProducaoRepository:create()
ListsXML->LinhaProducaoRepository:findAll()
RepositoryFactory->MaquinaRepository:create()
ListsXML->MaquinaRepository:findAll()
RepositoryFactory->MateriaPrimaRepository:create()
ListsXML->MateriaPrimaRepository:findAll()
RepositoryFactory->MateriaPrimaRepository:create()
ListsXML->MateriaPrimaRepository:findAll()
RepositoryFactory->EncomendaRepository:create()
ListsXML->EncomendaRepository:findAll()
RepositoryFactory->OrdemDeProducaoRepository:create()
ListsXML->OrdemDeProducaoRepository:findAll()
ExportarParaXMLController->ExportarParaXMLController:converterXML()
ExportarParaXMLController->JAXBContext:create(ListsXML.class)
ExportarParaXMLController->JAXBContext:createMarshaller()
ExportarParaXMLController->Marshaller:setProperty(true)
ExportarParaXMLController->FileOutputStream:outputStream=create("./instancias.xml")
ExportarParaXMLController->Marshaller:marshal(lxml, outputStream)
@enduml

PlantUML version 1.2020.11(Sat May 30 10:13:43 UTC 2020)
(GPL source distribution)
Java Runtime: Java(TM) SE Runtime Environment
JVM: Java HotSpot(TM) 64-Bit Server VM
Default Encoding: UTF-8
Language: en
Country: US
--></g></svg>