<?xml version="1.0" encoding="UTF-8" standalone="no"?><svg xmlns="http://www.w3.org/2000/svg" xmlns:xlink="http://www.w3.org/1999/xlink" contentScriptType="application/ecmascript" contentStyleType="text/css" height="815px" preserveAspectRatio="none" style="width:509px;height:815px;" version="1.1" viewBox="0 0 509 815" width="509px" zoomAndPan="magnify"><defs><filter height="300%" id="fayadyzal1ahy" width="300%" x="-1" y="-1"><feGaussianBlur result="blurOut" stdDeviation="2.0"/><feColorMatrix in="blurOut" result="blurOut2" type="matrix" values="0 0 0 0 0 0 0 0 0 0 0 0 0 0 0 0 0 0 .4 0"/><feOffset dx="4.0" dy="4.0" in="blurOut2" result="blurOut3"/><feBlend in="SourceGraphic" in2="blurOut3" mode="normal"/></filter></defs><g><text fill="#000000" font-family="sans-serif" font-size="18" lengthAdjust="spacingAndGlyphs" textLength="495" x="2" y="16.708">1005 - Inicialização de Categorias de Matérias-Primas</text><!--MD5=[7e1ce8ab2bf669717f28e918f4971b9a]
class Categoria--><rect fill="#FEFECE" filter="url(#fayadyzal1ahy)" height="86.4141" id="Categoria" style="stroke: #A80036; stroke-width: 1.5;" width="169" x="136" y="28.9531"/><ellipse cx="187.25" cy="44.9531" fill="#ADD1B2" rx="11" ry="11" style="stroke: #A80036; stroke-width: 1.0;"/><path d="M189.5938,40.625 C188.6563,40.1875 188.0625,40.0469 187.1875,40.0469 C184.5625,40.0469 182.5625,42.125 182.5625,44.8438 L182.5625,45.9688 C182.5625,48.5469 184.6719,50.4375 187.5625,50.4375 C188.7813,50.4375 189.9375,50.1406 190.6875,49.5938 C191.2656,49.1875 191.5938,48.7344 191.5938,48.3438 C191.5938,47.8906 191.2031,47.5 190.7344,47.5 C190.5156,47.5 190.3125,47.5781 190.125,47.7656 C189.6719,48.25 189.6719,48.25 189.4844,48.3438 C189.0625,48.6094 188.375,48.7344 187.6094,48.7344 C185.5625,48.7344 184.2656,47.6406 184.2656,45.9375 L184.2656,44.8438 C184.2656,43.0625 185.5156,41.75 187.25,41.75 C187.8281,41.75 188.4375,41.9063 188.9063,42.1563 C189.3906,42.4375 189.5625,42.6563 189.6563,43.0625 C189.7188,43.4688 189.75,43.5938 189.8906,43.7188 C190.0313,43.8594 190.2656,43.9688 190.4844,43.9688 C190.75,43.9688 191.0156,43.8281 191.1875,43.6094 C191.2969,43.4531 191.3281,43.2656 191.3281,42.8438 L191.3281,41.4219 C191.3281,40.9844 191.3125,40.8594 191.2188,40.7031 C191.0625,40.4375 190.7813,40.2969 190.4844,40.2969 C190.1875,40.2969 189.9844,40.3906 189.7656,40.7031 L189.5938,40.625 Z "/><text fill="#000000" font-family="sans-serif" font-size="12" lengthAdjust="spacingAndGlyphs" textLength="58" x="207.75" y="49.1074">Categoria</text><line style="stroke: #A80036; stroke-width: 1.5;" x1="137" x2="304" y1="60.9531" y2="60.9531"/><ellipse cx="147" cy="71.9531" fill="none" rx="3" ry="3" style="stroke: #038048; stroke-width: 1.0;"/><text fill="#000000" font-family="sans-serif" font-size="11" lengthAdjust="spacingAndGlyphs" textLength="74" x="156" y="75.1636">String codigo</text><ellipse cx="147" cy="84.7578" fill="none" rx="3" ry="3" style="stroke: #038048; stroke-width: 1.0;"/><text fill="#000000" font-family="sans-serif" font-size="11" lengthAdjust="spacingAndGlyphs" textLength="91" x="156" y="87.9683">String descricao</text><line style="stroke: #A80036; stroke-width: 1.5;" x1="137" x2="304" y1="94.5625" y2="94.5625"/><ellipse cx="147" cy="105.5625" fill="#84BE84" rx="3" ry="3" style="stroke: #038048; stroke-width: 1.0;"/><text fill="#000000" font-family="sans-serif" font-size="11" lengthAdjust="spacingAndGlyphs" textLength="143" x="156" y="108.7729">create(codigo, descricao)</text><!--MD5=[e8c189551b7885b999ad7cefb30fc2a3]
class PersistenceContext--><rect fill="#FEFECE" filter="url(#fayadyzal1ahy)" height="60.8047" id="PersistenceContext" style="stroke: #A80036; stroke-width: 1.5;" width="148" x="227.5" y="480.9531"/><ellipse cx="242.5" cy="496.9531" fill="#ADD1B2" rx="11" ry="11" style="stroke: #A80036; stroke-width: 1.0;"/><path d="M244.8438,492.625 C243.9063,492.1875 243.3125,492.0469 242.4375,492.0469 C239.8125,492.0469 237.8125,494.125 237.8125,496.8438 L237.8125,497.9688 C237.8125,500.5469 239.9219,502.4375 242.8125,502.4375 C244.0313,502.4375 245.1875,502.1406 245.9375,501.5938 C246.5156,501.1875 246.8438,500.7344 246.8438,500.3438 C246.8438,499.8906 246.4531,499.5 245.9844,499.5 C245.7656,499.5 245.5625,499.5781 245.375,499.7656 C244.9219,500.25 244.9219,500.25 244.7344,500.3438 C244.3125,500.6094 243.625,500.7344 242.8594,500.7344 C240.8125,500.7344 239.5156,499.6406 239.5156,497.9375 L239.5156,496.8438 C239.5156,495.0625 240.7656,493.75 242.5,493.75 C243.0781,493.75 243.6875,493.9063 244.1563,494.1563 C244.6406,494.4375 244.8125,494.6563 244.9063,495.0625 C244.9688,495.4688 245,495.5938 245.1406,495.7188 C245.2813,495.8594 245.5156,495.9688 245.7344,495.9688 C246,495.9688 246.2656,495.8281 246.4375,495.6094 C246.5469,495.4531 246.5781,495.2656 246.5781,494.8438 L246.5781,493.4219 C246.5781,492.9844 246.5625,492.8594 246.4688,492.7031 C246.3125,492.4375 246.0313,492.2969 245.7344,492.2969 C245.4375,492.2969 245.2344,492.3906 245.0156,492.7031 L244.8438,492.625 Z "/><text fill="#000000" font-family="sans-serif" font-size="12" lengthAdjust="spacingAndGlyphs" textLength="116" x="256.5" y="501.1074">PersistenceContext</text><line style="stroke: #A80036; stroke-width: 1.5;" x1="228.5" x2="374.5" y1="512.9531" y2="512.9531"/><line style="stroke: #A80036; stroke-width: 1.5;" x1="228.5" x2="374.5" y1="520.9531" y2="520.9531"/><ellipse cx="238.5" cy="531.9531" fill="#84BE84" rx="3" ry="3" style="stroke: #038048; stroke-width: 1.0;"/><text fill="#000000" font-family="sans-serif" font-size="11" lengthAdjust="spacingAndGlyphs" textLength="75" x="247.5" y="535.1636">repositories()</text><!--MD5=[5396792658efbef6bbcbad2e1935556d]
class RegistarCategoriaController--><rect fill="#FEFECE" filter="url(#fayadyzal1ahy)" height="60.8047" id="RegistarCategoriaController" style="stroke: #A80036; stroke-width: 1.5;" width="230" x="104.5" y="618.9531"/><ellipse cx="133.9" cy="634.9531" fill="#ADD1B2" rx="11" ry="11" style="stroke: #A80036; stroke-width: 1.0;"/><path d="M136.2438,630.625 C135.3063,630.1875 134.7125,630.0469 133.8375,630.0469 C131.2125,630.0469 129.2125,632.125 129.2125,634.8438 L129.2125,635.9688 C129.2125,638.5469 131.3219,640.4375 134.2125,640.4375 C135.4313,640.4375 136.5875,640.1406 137.3375,639.5938 C137.9156,639.1875 138.2438,638.7344 138.2438,638.3438 C138.2438,637.8906 137.8531,637.5 137.3844,637.5 C137.1656,637.5 136.9625,637.5781 136.775,637.7656 C136.3219,638.25 136.3219,638.25 136.1344,638.3438 C135.7125,638.6094 135.025,638.7344 134.2594,638.7344 C132.2125,638.7344 130.9156,637.6406 130.9156,635.9375 L130.9156,634.8438 C130.9156,633.0625 132.1656,631.75 133.9,631.75 C134.4781,631.75 135.0875,631.9063 135.5563,632.1563 C136.0406,632.4375 136.2125,632.6563 136.3063,633.0625 C136.3688,633.4688 136.4,633.5938 136.5406,633.7188 C136.6813,633.8594 136.9156,633.9688 137.1344,633.9688 C137.4,633.9688 137.6656,633.8281 137.8375,633.6094 C137.9469,633.4531 137.9781,633.2656 137.9781,632.8438 L137.9781,631.4219 C137.9781,630.9844 137.9625,630.8594 137.8688,630.7031 C137.7125,630.4375 137.4313,630.2969 137.1344,630.2969 C136.8375,630.2969 136.6344,630.3906 136.4156,630.7031 L136.2438,630.625 Z "/><text fill="#000000" font-family="sans-serif" font-size="12" lengthAdjust="spacingAndGlyphs" textLength="166" x="151.1" y="639.1074">RegistarCategoriaController</text><line style="stroke: #A80036; stroke-width: 1.5;" x1="105.5" x2="333.5" y1="650.9531" y2="650.9531"/><line style="stroke: #A80036; stroke-width: 1.5;" x1="105.5" x2="333.5" y1="658.9531" y2="658.9531"/><ellipse cx="115.5" cy="669.9531" fill="#84BE84" rx="3" ry="3" style="stroke: #038048; stroke-width: 1.0;"/><text fill="#000000" font-family="sans-serif" font-size="11" lengthAdjust="spacingAndGlyphs" textLength="204" x="124.5" y="673.1636">registarCategoria(codigo, descricao)</text><!--MD5=[48590afff58a68e2fcba47824d6f8a11]
class RepositoryFactory--><rect fill="#FEFECE" filter="url(#fayadyzal1ahy)" height="60.8047" id="RepositoryFactory" style="stroke: #A80036; stroke-width: 1.5;" width="142" x="233.5" y="342.9531"/><ellipse cx="248.5" cy="358.9531" fill="#ADD1B2" rx="11" ry="11" style="stroke: #A80036; stroke-width: 1.0;"/><path d="M250.8438,354.625 C249.9063,354.1875 249.3125,354.0469 248.4375,354.0469 C245.8125,354.0469 243.8125,356.125 243.8125,358.8438 L243.8125,359.9688 C243.8125,362.5469 245.9219,364.4375 248.8125,364.4375 C250.0313,364.4375 251.1875,364.1406 251.9375,363.5938 C252.5156,363.1875 252.8438,362.7344 252.8438,362.3438 C252.8438,361.8906 252.4531,361.5 251.9844,361.5 C251.7656,361.5 251.5625,361.5781 251.375,361.7656 C250.9219,362.25 250.9219,362.25 250.7344,362.3438 C250.3125,362.6094 249.625,362.7344 248.8594,362.7344 C246.8125,362.7344 245.5156,361.6406 245.5156,359.9375 L245.5156,358.8438 C245.5156,357.0625 246.7656,355.75 248.5,355.75 C249.0781,355.75 249.6875,355.9063 250.1563,356.1563 C250.6406,356.4375 250.8125,356.6563 250.9063,357.0625 C250.9688,357.4688 251,357.5938 251.1406,357.7188 C251.2813,357.8594 251.5156,357.9688 251.7344,357.9688 C252,357.9688 252.2656,357.8281 252.4375,357.6094 C252.5469,357.4531 252.5781,357.2656 252.5781,356.8438 L252.5781,355.4219 C252.5781,354.9844 252.5625,354.8594 252.4688,354.7031 C252.3125,354.4375 252.0313,354.2969 251.7344,354.2969 C251.4375,354.2969 251.2344,354.3906 251.0156,354.7031 L250.8438,354.625 Z "/><text fill="#000000" font-family="sans-serif" font-size="12" lengthAdjust="spacingAndGlyphs" textLength="110" x="262.5" y="363.1074">RepositoryFactory</text><line style="stroke: #A80036; stroke-width: 1.5;" x1="234.5" x2="374.5" y1="374.9531" y2="374.9531"/><line style="stroke: #A80036; stroke-width: 1.5;" x1="234.5" x2="374.5" y1="382.9531" y2="382.9531"/><ellipse cx="244.5" cy="393.9531" fill="#84BE84" rx="3" ry="3" style="stroke: #038048; stroke-width: 1.0;"/><text fill="#000000" font-family="sans-serif" font-size="11" lengthAdjust="spacingAndGlyphs" textLength="45" x="253.5" y="397.1636">create()</text><!--MD5=[c72ac90980a5ccec78ba1286861db27b]
class CategoriaRepository--><rect fill="#FEFECE" filter="url(#fayadyzal1ahy)" height="73.6094" id="CategoriaRepository" style="stroke: #A80036; stroke-width: 1.5;" width="155" x="227" y="191.9531"/><ellipse cx="242" cy="207.9531" fill="#ADD1B2" rx="11" ry="11" style="stroke: #A80036; stroke-width: 1.0;"/><path d="M244.3438,203.625 C243.4063,203.1875 242.8125,203.0469 241.9375,203.0469 C239.3125,203.0469 237.3125,205.125 237.3125,207.8438 L237.3125,208.9688 C237.3125,211.5469 239.4219,213.4375 242.3125,213.4375 C243.5313,213.4375 244.6875,213.1406 245.4375,212.5938 C246.0156,212.1875 246.3438,211.7344 246.3438,211.3438 C246.3438,210.8906 245.9531,210.5 245.4844,210.5 C245.2656,210.5 245.0625,210.5781 244.875,210.7656 C244.4219,211.25 244.4219,211.25 244.2344,211.3438 C243.8125,211.6094 243.125,211.7344 242.3594,211.7344 C240.3125,211.7344 239.0156,210.6406 239.0156,208.9375 L239.0156,207.8438 C239.0156,206.0625 240.2656,204.75 242,204.75 C242.5781,204.75 243.1875,204.9063 243.6563,205.1563 C244.1406,205.4375 244.3125,205.6563 244.4063,206.0625 C244.4688,206.4688 244.5,206.5938 244.6406,206.7188 C244.7813,206.8594 245.0156,206.9688 245.2344,206.9688 C245.5,206.9688 245.7656,206.8281 245.9375,206.6094 C246.0469,206.4531 246.0781,206.2656 246.0781,205.8438 L246.0781,204.4219 C246.0781,203.9844 246.0625,203.8594 245.9688,203.7031 C245.8125,203.4375 245.5313,203.2969 245.2344,203.2969 C244.9375,203.2969 244.7344,203.3906 244.5156,203.7031 L244.3438,203.625 Z "/><text fill="#000000" font-family="sans-serif" font-size="12" lengthAdjust="spacingAndGlyphs" textLength="123" x="256" y="212.1074">CategoriaRepository</text><line style="stroke: #A80036; stroke-width: 1.5;" x1="228" x2="381" y1="223.9531" y2="223.9531"/><line style="stroke: #A80036; stroke-width: 1.5;" x1="228" x2="381" y1="231.9531" y2="231.9531"/><ellipse cx="238" cy="242.9531" fill="#84BE84" rx="3" ry="3" style="stroke: #038048; stroke-width: 1.0;"/><text fill="#000000" font-family="sans-serif" font-size="11" lengthAdjust="spacingAndGlyphs" textLength="45" x="247" y="246.1636">create()</text><ellipse cx="238" cy="255.7578" fill="#84BE84" rx="3" ry="3" style="stroke: #038048; stroke-width: 1.0;"/><text fill="#000000" font-family="sans-serif" font-size="11" lengthAdjust="spacingAndGlyphs" textLength="119" x="247" y="258.9683">save(novaCategoria)</text><!--MD5=[4f61dfae17ec3625b14a119aa9ad520c]
class Bootstrapper--><rect fill="#FEFECE" filter="url(#fayadyzal1ahy)" height="48" id="Bootstrapper" style="stroke: #A80036; stroke-width: 1.5;" width="112" x="163.5" y="756.9531"/><ellipse cx="178.5" cy="772.9531" fill="#ADD1B2" rx="11" ry="11" style="stroke: #A80036; stroke-width: 1.0;"/><path d="M180.8438,768.625 C179.9063,768.1875 179.3125,768.0469 178.4375,768.0469 C175.8125,768.0469 173.8125,770.125 173.8125,772.8438 L173.8125,773.9688 C173.8125,776.5469 175.9219,778.4375 178.8125,778.4375 C180.0313,778.4375 181.1875,778.1406 181.9375,777.5938 C182.5156,777.1875 182.8438,776.7344 182.8438,776.3438 C182.8438,775.8906 182.4531,775.5 181.9844,775.5 C181.7656,775.5 181.5625,775.5781 181.375,775.7656 C180.9219,776.25 180.9219,776.25 180.7344,776.3438 C180.3125,776.6094 179.625,776.7344 178.8594,776.7344 C176.8125,776.7344 175.5156,775.6406 175.5156,773.9375 L175.5156,772.8438 C175.5156,771.0625 176.7656,769.75 178.5,769.75 C179.0781,769.75 179.6875,769.9063 180.1563,770.1563 C180.6406,770.4375 180.8125,770.6563 180.9063,771.0625 C180.9688,771.4688 181,771.5938 181.1406,771.7188 C181.2813,771.8594 181.5156,771.9688 181.7344,771.9688 C182,771.9688 182.2656,771.8281 182.4375,771.6094 C182.5469,771.4531 182.5781,771.2656 182.5781,770.8438 L182.5781,769.4219 C182.5781,768.9844 182.5625,768.8594 182.4688,768.7031 C182.3125,768.4375 182.0313,768.2969 181.7344,768.2969 C181.4375,768.2969 181.2344,768.3906 181.0156,768.7031 L180.8438,768.625 Z "/><text fill="#000000" font-family="sans-serif" font-size="12" lengthAdjust="spacingAndGlyphs" textLength="80" x="192.5" y="777.1074">Bootstrapper</text><line style="stroke: #A80036; stroke-width: 1.5;" x1="164.5" x2="274.5" y1="788.9531" y2="788.9531"/><line style="stroke: #A80036; stroke-width: 1.5;" x1="164.5" x2="274.5" y1="796.9531" y2="796.9531"/><!--MD5=[696688574f66988a7bdff45f5d0c77c8]
reverse link RegistarCategoriaController to Bootstrapper--><path d="M219.5,685.1991 C219.5,707.9033 219.5,736.9261 219.5,756.8338 " fill="none" id="RegistarCategoriaController&lt;-Bootstrapper" style="stroke: #A80036; stroke-width: 1.0;"/><polygon fill="#A80036" points="219.5,680.1631,215.5,689.1631,219.5,685.1631,223.5,689.1631,219.5,680.1631" style="stroke: #A80036; stroke-width: 1.0;"/><text fill="#000000" font-family="sans-serif" font-size="13" lengthAdjust="spacingAndGlyphs" textLength="44" x="220.5" y="723.02">chama</text><text fill="#000000" font-family="sans-serif" font-size="13" lengthAdjust="spacingAndGlyphs" textLength="8" x="210.7125" y="699.7849">1</text><text fill="#000000" font-family="sans-serif" font-size="13" lengthAdjust="spacingAndGlyphs" textLength="8" x="210.475" y="745.8153">1</text><!--MD5=[31d48515adcb4f4b7168bb6ac311125a]
reverse link PersistenceContext to RegistarCategoriaController--><path d="M281.088,546.3061 C267.719,568.4801 250.405,597.1961 237.541,618.5311 " fill="none" id="PersistenceContext&lt;-RegistarCategoriaController" style="stroke: #A80036; stroke-width: 1.0;"/><polygon fill="#A80036" points="283.707,541.9631,275.633,547.6032,281.1242,546.2444,282.483,551.7356,283.707,541.9631" style="stroke: #A80036; stroke-width: 1.0;"/><text fill="#000000" font-family="sans-serif" font-size="13" lengthAdjust="spacingAndGlyphs" textLength="44" x="266.5" y="585.02">chama</text><text fill="#000000" font-family="sans-serif" font-size="13" lengthAdjust="spacingAndGlyphs" textLength="8" x="271.2122" y="561.9034">1</text><text fill="#000000" font-family="sans-serif" font-size="13" lengthAdjust="spacingAndGlyphs" textLength="8" x="232.437" y="607.7073">1</text><!--MD5=[9fa812b5d85aa0dd782206fb3fd23f92]
reverse link RepositoryFactory to PersistenceContext--><path d="M303.735,409.1411 C303.248,431.1971 302.625,459.4621 302.16,480.5311 " fill="none" id="RepositoryFactory&lt;-PersistenceContext" style="stroke: #A80036; stroke-width: 1.0;"/><polygon fill="#A80036" points="303.849,403.9631,299.652,412.8729,303.739,408.9619,307.65,413.049,303.849,403.9631" style="stroke: #A80036; stroke-width: 1.0;"/><text fill="#000000" font-family="sans-serif" font-size="13" lengthAdjust="spacingAndGlyphs" textLength="44" x="303.5" y="447.02">chama</text><text fill="#000000" font-family="sans-serif" font-size="13" lengthAdjust="spacingAndGlyphs" textLength="8" x="294.8897" y="423.9034">1</text><text fill="#000000" font-family="sans-serif" font-size="13" lengthAdjust="spacingAndGlyphs" textLength="8" x="293.4711" y="469.7073">1</text><!--MD5=[412933c4ef7c4064ae0737ec276dccba]
reverse link CategoriaRepository to RepositoryFactory--><path d="M304.5,271.3871 C304.5,294.2941 304.5,322.2181 304.5,342.9051 " fill="none" id="CategoriaRepository&lt;-RepositoryFactory" style="stroke: #A80036; stroke-width: 1.0;"/><polygon fill="#A80036" points="304.5,266.2801,300.5,275.2801,304.5,271.2801,308.5,275.2801,304.5,266.2801" style="stroke: #A80036; stroke-width: 1.0;"/><text fill="#000000" font-family="sans-serif" font-size="13" lengthAdjust="spacingAndGlyphs" textLength="23" x="305.5" y="309.02">cria</text><text fill="#000000" font-family="sans-serif" font-size="13" lengthAdjust="spacingAndGlyphs" textLength="8" x="295.8625" y="285.533">1</text><text fill="#000000" font-family="sans-serif" font-size="13" lengthAdjust="spacingAndGlyphs" textLength="8" x="295.625" y="331.6849">1</text><!--MD5=[a0e50435b05df413bd984855a3b7f25c]
reverse link Categoria to CategoriaRepository--><path d="M245.92,119.8581 C258.414,142.9141 273.241,170.2731 284.852,191.6981 " fill="none" id="Categoria&lt;-CategoriaRepository" style="stroke: #A80036; stroke-width: 1.0;"/><polygon fill="#A80036" points="243.453,115.3071,244.2231,125.1258,245.8347,119.7034,251.2572,121.315,243.453,115.3071" style="stroke: #A80036; stroke-width: 1.0;"/><text fill="#000000" font-family="sans-serif" font-size="13" lengthAdjust="spacingAndGlyphs" textLength="51" x="268.5" y="158.02">persiste</text><text fill="#000000" font-family="sans-serif" font-size="13" lengthAdjust="spacingAndGlyphs" textLength="37" x="207.1627" y="135.4565">many</text><text fill="#000000" font-family="sans-serif" font-size="13" lengthAdjust="spacingAndGlyphs" textLength="8" x="272.6397" y="180.8397">1</text><!--MD5=[5883d7be54a38bd14a71a697825a2109]
reverse link Categoria to RegistarCategoriaController--><path d="M198.4767,119.7651 C186.2557,149.9571 173.5,190.4511 173.5,227.9531 C173.5,227.9531 173.5,227.9531 173.5,512.4531 C173.5,550.7131 190.0384,591.9871 203.2821,618.9051 " fill="none" id="Categoria&lt;-RegistarCategoriaController" style="stroke: #A80036; stroke-width: 1.0;"/><polygon fill="#A80036" points="200.4314,115.0101,193.3094,121.8128,198.53,119.6345,200.7084,124.8551,200.4314,115.0101" style="stroke: #A80036; stroke-width: 1.0;"/><text fill="#000000" font-family="sans-serif" font-size="13" lengthAdjust="spacingAndGlyphs" textLength="23" x="174.5" y="378.02">cria</text><text fill="#000000" font-family="sans-serif" font-size="13" lengthAdjust="spacingAndGlyphs" textLength="37" x="157.0435" y="135.4272">many</text><text fill="#000000" font-family="sans-serif" font-size="13" lengthAdjust="spacingAndGlyphs" textLength="8" x="190.8594" y="607.6849">1</text><!--MD5=[88b0b5ec033cd4aab399af4cd7aa8ceb]
@startuml
title 1005 - Inicialização de Categorias de Matérias-Primas

class Categoria {
+String codigo
+String descricao
}

class PersistenceContext {
+ repositories()
}

class RegistarCategoriaController {
+ registarCategoria(codigo, descricao)
}


class RepositoryFactory {
+ create()
}

class CategoriaRepository {
+ create()
+ save(novaCategoria)
}


class Categoria {
+ create(codigo, descricao)
}

class RegistarCategoriaController
class RepositoryFactory
class CategoriaRepository
class Bootstrapper
class PersistenceContext
class Categoria


RegistarCategoriaController "1" <-up- "1" Bootstrapper: chama
PersistenceContext "1" <-up- "1" RegistarCategoriaController: chama
RepositoryFactory "1" <-up- "1" PersistenceContext: chama
CategoriaRepository "1" <-up- "1" RepositoryFactory: cria
Categoria "many" <-up- "1" CategoriaRepository: persiste
Categoria "many" <-up- "1" RegistarCategoriaController: cria
@enduml

PlantUML version 1.2020.09beta17(Unknown compile time)
(GPL source distribution)
Java Runtime: Java(TM) SE Runtime Environment
JVM: Java HotSpot(TM) 64-Bit Server VM
Java Version: 14.0.1+7
Operating System: Linux
Default Encoding: UTF-8
Language: en
Country: US
--></g></svg>