<?xml version="1.0" encoding="UTF-8" standalone="no"?><svg xmlns="http://www.w3.org/2000/svg" xmlns:xlink="http://www.w3.org/1999/xlink" contentScriptType="application/ecmascript" contentStyleType="text/css" height="1156px" preserveAspectRatio="none" style="width:633px;height:1156px;" version="1.1" viewBox="0 0 633 1156" width="633px" zoomAndPan="magnify"><defs><filter height="300%" id="f5oaq5umiyamr" width="300%" x="-1" y="-1"><feGaussianBlur result="blurOut" stdDeviation="2.0"/><feColorMatrix in="blurOut" result="blurOut2" type="matrix" values="0 0 0 0 0 0 0 0 0 0 0 0 0 0 0 0 0 0 .4 0"/><feOffset dx="4.0" dy="4.0" in="blurOut2" result="blurOut3"/><feBlend in="SourceGraphic" in2="blurOut3" mode="normal"/></filter></defs><g><text fill="#000000" font-family="sans-serif" font-size="18" lengthAdjust="spacingAndGlyphs" textLength="377" x="131.5" y="16.708">2006 - Adicionar um produto ao catálogo</text><!--MD5=[d4dacc50d49878ba7c621dfc80a2e1ce]
class Produto--><rect fill="#FEFECE" filter="url(#f5oaq5umiyamr)" height="112.0234" id="Produto" style="stroke: #A80036; stroke-width: 1.5;" width="553" x="13" y="317.9531"/><ellipse cx="262.25" cy="333.9531" fill="#ADD1B2" rx="11" ry="11" style="stroke: #A80036; stroke-width: 1.0;"/><path d="M264.5938,329.625 C263.6563,329.1875 263.0625,329.0469 262.1875,329.0469 C259.5625,329.0469 257.5625,331.125 257.5625,333.8438 L257.5625,334.9688 C257.5625,337.5469 259.6719,339.4375 262.5625,339.4375 C263.7813,339.4375 264.9375,339.1406 265.6875,338.5938 C266.2656,338.1875 266.5938,337.7344 266.5938,337.3438 C266.5938,336.8906 266.2031,336.5 265.7344,336.5 C265.5156,336.5 265.3125,336.5781 265.125,336.7656 C264.6719,337.25 264.6719,337.25 264.4844,337.3438 C264.0625,337.6094 263.375,337.7344 262.6094,337.7344 C260.5625,337.7344 259.2656,336.6406 259.2656,334.9375 L259.2656,333.8438 C259.2656,332.0625 260.5156,330.75 262.25,330.75 C262.8281,330.75 263.4375,330.9063 263.9063,331.1563 C264.3906,331.4375 264.5625,331.6563 264.6563,332.0625 C264.7188,332.4688 264.75,332.5938 264.8906,332.7188 C265.0313,332.8594 265.2656,332.9688 265.4844,332.9688 C265.75,332.9688 266.0156,332.8281 266.1875,332.6094 C266.2969,332.4531 266.3281,332.2656 266.3281,331.8438 L266.3281,330.4219 C266.3281,329.9844 266.3125,329.8594 266.2188,329.7031 C266.0625,329.4375 265.7813,329.2969 265.4844,329.2969 C265.1875,329.2969 264.9844,329.3906 264.7656,329.7031 L264.5938,329.625 Z "/><text fill="#000000" font-family="sans-serif" font-size="12" lengthAdjust="spacingAndGlyphs" textLength="46" x="282.75" y="338.1074">Produto</text><line style="stroke: #A80036; stroke-width: 1.5;" x1="14" x2="565" y1="349.9531" y2="349.9531"/><ellipse cx="24" cy="360.9531" fill="none" rx="3" ry="3" style="stroke: #038048; stroke-width: 1.0;"/><text fill="#000000" font-family="sans-serif" font-size="11" lengthAdjust="spacingAndGlyphs" textLength="95" x="33" y="364.1636">Int codigoFabrico</text><ellipse cx="24" cy="373.7578" fill="none" rx="3" ry="3" style="stroke: #038048; stroke-width: 1.0;"/><text fill="#000000" font-family="sans-serif" font-size="11" lengthAdjust="spacingAndGlyphs" textLength="131" x="33" y="376.9683">String codigoComercial</text><ellipse cx="24" cy="386.5625" fill="none" rx="3" ry="3" style="stroke: #038048; stroke-width: 1.0;"/><text fill="#000000" font-family="sans-serif" font-size="11" lengthAdjust="spacingAndGlyphs" textLength="99" x="33" y="389.7729">String descBreve</text><ellipse cx="24" cy="399.3672" fill="none" rx="3" ry="3" style="stroke: #038048; stroke-width: 1.0;"/><text fill="#000000" font-family="sans-serif" font-size="11" lengthAdjust="spacingAndGlyphs" textLength="119" x="33" y="402.5776">String descCompleta</text><line style="stroke: #A80036; stroke-width: 1.5;" x1="14" x2="565" y1="409.1719" y2="409.1719"/><ellipse cx="24" cy="420.1719" fill="#84BE84" rx="3" ry="3" style="stroke: #038048; stroke-width: 1.0;"/><text fill="#000000" font-family="sans-serif" font-size="11" lengthAdjust="spacingAndGlyphs" textLength="527" x="33" y="423.3823">create(codigoFabrico,codigoComercial,descBreve,descCompleta,unidade,categoriaEscolhida)</text><!--MD5=[7e1ce8ab2bf669717f28e918f4971b9a]
class Categoria--><rect fill="#FEFECE" filter="url(#f5oaq5umiyamr)" height="73.6094" id="Categoria" style="stroke: #A80036; stroke-width: 1.5;" width="117" x="153" y="28.9531"/><ellipse cx="180.15" cy="44.9531" fill="#ADD1B2" rx="11" ry="11" style="stroke: #A80036; stroke-width: 1.0;"/><path d="M182.4938,40.625 C181.5563,40.1875 180.9625,40.0469 180.0875,40.0469 C177.4625,40.0469 175.4625,42.125 175.4625,44.8438 L175.4625,45.9688 C175.4625,48.5469 177.5719,50.4375 180.4625,50.4375 C181.6813,50.4375 182.8375,50.1406 183.5875,49.5938 C184.1656,49.1875 184.4938,48.7344 184.4938,48.3438 C184.4938,47.8906 184.1031,47.5 183.6344,47.5 C183.4156,47.5 183.2125,47.5781 183.025,47.7656 C182.5719,48.25 182.5719,48.25 182.3844,48.3438 C181.9625,48.6094 181.275,48.7344 180.5094,48.7344 C178.4625,48.7344 177.1656,47.6406 177.1656,45.9375 L177.1656,44.8438 C177.1656,43.0625 178.4156,41.75 180.15,41.75 C180.7281,41.75 181.3375,41.9063 181.8063,42.1563 C182.2906,42.4375 182.4625,42.6563 182.5563,43.0625 C182.6188,43.4688 182.65,43.5938 182.7906,43.7188 C182.9313,43.8594 183.1656,43.9688 183.3844,43.9688 C183.65,43.9688 183.9156,43.8281 184.0875,43.6094 C184.1969,43.4531 184.2281,43.2656 184.2281,42.8438 L184.2281,41.4219 C184.2281,40.9844 184.2125,40.8594 184.1188,40.7031 C183.9625,40.4375 183.6813,40.2969 183.3844,40.2969 C183.0875,40.2969 182.8844,40.3906 182.6656,40.7031 L182.4938,40.625 Z "/><text fill="#000000" font-family="sans-serif" font-size="12" lengthAdjust="spacingAndGlyphs" textLength="58" x="196.85" y="49.1074">Categoria</text><line style="stroke: #A80036; stroke-width: 1.5;" x1="154" x2="269" y1="60.9531" y2="60.9531"/><ellipse cx="164" cy="71.9531" fill="none" rx="3" ry="3" style="stroke: #038048; stroke-width: 1.0;"/><text fill="#000000" font-family="sans-serif" font-size="11" lengthAdjust="spacingAndGlyphs" textLength="74" x="173" y="75.1636">String codigo</text><ellipse cx="164" cy="84.7578" fill="none" rx="3" ry="3" style="stroke: #038048; stroke-width: 1.0;"/><text fill="#000000" font-family="sans-serif" font-size="11" lengthAdjust="spacingAndGlyphs" textLength="91" x="173" y="87.9683">String descricao</text><line style="stroke: #A80036; stroke-width: 1.5;" x1="154" x2="269" y1="94.5625" y2="94.5625"/><!--MD5=[9e0aa1fcfc09989282578197be83015a]
class UnidadeMedida--><rect fill="#FEFECE" filter="url(#f5oaq5umiyamr)" height="60.8047" id="UnidadeMedida" style="stroke: #A80036; stroke-width: 1.5;" width="126" x="305.5" y="35.4531"/><ellipse cx="320.5" cy="51.4531" fill="#ADD1B2" rx="11" ry="11" style="stroke: #A80036; stroke-width: 1.0;"/><path d="M322.8438,47.125 C321.9063,46.6875 321.3125,46.5469 320.4375,46.5469 C317.8125,46.5469 315.8125,48.625 315.8125,51.3438 L315.8125,52.4688 C315.8125,55.0469 317.9219,56.9375 320.8125,56.9375 C322.0313,56.9375 323.1875,56.6406 323.9375,56.0938 C324.5156,55.6875 324.8438,55.2344 324.8438,54.8438 C324.8438,54.3906 324.4531,54 323.9844,54 C323.7656,54 323.5625,54.0781 323.375,54.2656 C322.9219,54.75 322.9219,54.75 322.7344,54.8438 C322.3125,55.1094 321.625,55.2344 320.8594,55.2344 C318.8125,55.2344 317.5156,54.1406 317.5156,52.4375 L317.5156,51.3438 C317.5156,49.5625 318.7656,48.25 320.5,48.25 C321.0781,48.25 321.6875,48.4063 322.1563,48.6563 C322.6406,48.9375 322.8125,49.1563 322.9063,49.5625 C322.9688,49.9688 323,50.0938 323.1406,50.2188 C323.2813,50.3594 323.5156,50.4688 323.7344,50.4688 C324,50.4688 324.2656,50.3281 324.4375,50.1094 C324.5469,49.9531 324.5781,49.7656 324.5781,49.3438 L324.5781,47.9219 C324.5781,47.4844 324.5625,47.3594 324.4688,47.2031 C324.3125,46.9375 324.0313,46.7969 323.7344,46.7969 C323.4375,46.7969 323.2344,46.8906 323.0156,47.2031 L322.8438,47.125 Z "/><text fill="#000000" font-family="sans-serif" font-size="12" lengthAdjust="spacingAndGlyphs" textLength="94" x="334.5" y="55.6074">UnidadeMedida</text><line style="stroke: #A80036; stroke-width: 1.5;" x1="306.5" x2="430.5" y1="67.4531" y2="67.4531"/><ellipse cx="316.5" cy="78.4531" fill="none" rx="3" ry="3" style="stroke: #038048; stroke-width: 1.0;"/><text fill="#000000" font-family="sans-serif" font-size="11" lengthAdjust="spacingAndGlyphs" textLength="83" x="325.5" y="81.6636">String unidade</text><line style="stroke: #A80036; stroke-width: 1.5;" x1="306.5" x2="430.5" y1="88.2578" y2="88.2578"/><!--MD5=[44a1b4afaef76c16e6c9ec4990ad0c8d]
class Item--><rect fill="#FEFECE" filter="url(#f5oaq5umiyamr)" height="60.8047" id="Item" style="stroke: #A80036; stroke-width: 1.5;" width="99" x="240" y="179.9531"/><ellipse cx="273.45" cy="195.9531" fill="#ADD1B2" rx="11" ry="11" style="stroke: #A80036; stroke-width: 1.0;"/><path d="M275.7938,191.625 C274.8563,191.1875 274.2625,191.0469 273.3875,191.0469 C270.7625,191.0469 268.7625,193.125 268.7625,195.8438 L268.7625,196.9688 C268.7625,199.5469 270.8719,201.4375 273.7625,201.4375 C274.9813,201.4375 276.1375,201.1406 276.8875,200.5938 C277.4656,200.1875 277.7938,199.7344 277.7938,199.3438 C277.7938,198.8906 277.4031,198.5 276.9344,198.5 C276.7156,198.5 276.5125,198.5781 276.325,198.7656 C275.8719,199.25 275.8719,199.25 275.6844,199.3438 C275.2625,199.6094 274.575,199.7344 273.8094,199.7344 C271.7625,199.7344 270.4656,198.6406 270.4656,196.9375 L270.4656,195.8438 C270.4656,194.0625 271.7156,192.75 273.45,192.75 C274.0281,192.75 274.6375,192.9063 275.1063,193.1563 C275.5906,193.4375 275.7625,193.6563 275.8563,194.0625 C275.9188,194.4688 275.95,194.5938 276.0906,194.7188 C276.2313,194.8594 276.4656,194.9688 276.6844,194.9688 C276.95,194.9688 277.2156,194.8281 277.3875,194.6094 C277.4969,194.4531 277.5281,194.2656 277.5281,193.8438 L277.5281,192.4219 C277.5281,191.9844 277.5125,191.8594 277.4188,191.7031 C277.2625,191.4375 276.9813,191.2969 276.6844,191.2969 C276.3875,191.2969 276.1844,191.3906 275.9656,191.7031 L275.7938,191.625 Z "/><text fill="#000000" font-family="sans-serif" font-size="12" lengthAdjust="spacingAndGlyphs" textLength="26" x="291.55" y="200.1074">Item</text><line style="stroke: #A80036; stroke-width: 1.5;" x1="241" x2="338" y1="211.9531" y2="211.9531"/><ellipse cx="251" cy="222.9531" fill="none" rx="3" ry="3" style="stroke: #038048; stroke-width: 1.0;"/><text fill="#000000" font-family="sans-serif" font-size="11" lengthAdjust="spacingAndGlyphs" textLength="73" x="260" y="226.1636">String idItem</text><line style="stroke: #A80036; stroke-width: 1.5;" x1="241" x2="338" y1="232.7578" y2="232.7578"/><!--MD5=[e8c189551b7885b999ad7cefb30fc2a3]
class PersistenceContext--><rect fill="#FEFECE" filter="url(#f5oaq5umiyamr)" height="60.8047" id="PersistenceContext" style="stroke: #A80036; stroke-width: 1.5;" width="148" x="314.5" y="795.9531"/><ellipse cx="329.5" cy="811.9531" fill="#ADD1B2" rx="11" ry="11" style="stroke: #A80036; stroke-width: 1.0;"/><path d="M331.8438,807.625 C330.9063,807.1875 330.3125,807.0469 329.4375,807.0469 C326.8125,807.0469 324.8125,809.125 324.8125,811.8438 L324.8125,812.9688 C324.8125,815.5469 326.9219,817.4375 329.8125,817.4375 C331.0313,817.4375 332.1875,817.1406 332.9375,816.5938 C333.5156,816.1875 333.8438,815.7344 333.8438,815.3438 C333.8438,814.8906 333.4531,814.5 332.9844,814.5 C332.7656,814.5 332.5625,814.5781 332.375,814.7656 C331.9219,815.25 331.9219,815.25 331.7344,815.3438 C331.3125,815.6094 330.625,815.7344 329.8594,815.7344 C327.8125,815.7344 326.5156,814.6406 326.5156,812.9375 L326.5156,811.8438 C326.5156,810.0625 327.7656,808.75 329.5,808.75 C330.0781,808.75 330.6875,808.9063 331.1563,809.1563 C331.6406,809.4375 331.8125,809.6563 331.9063,810.0625 C331.9688,810.4688 332,810.5938 332.1406,810.7188 C332.2813,810.8594 332.5156,810.9688 332.7344,810.9688 C333,810.9688 333.2656,810.8281 333.4375,810.6094 C333.5469,810.4531 333.5781,810.2656 333.5781,809.8438 L333.5781,808.4219 C333.5781,807.9844 333.5625,807.8594 333.4688,807.7031 C333.3125,807.4375 333.0313,807.2969 332.7344,807.2969 C332.4375,807.2969 332.2344,807.3906 332.0156,807.7031 L331.8438,807.625 Z "/><text fill="#000000" font-family="sans-serif" font-size="12" lengthAdjust="spacingAndGlyphs" textLength="116" x="343.5" y="816.1074">PersistenceContext</text><line style="stroke: #A80036; stroke-width: 1.5;" x1="315.5" x2="461.5" y1="827.9531" y2="827.9531"/><line style="stroke: #A80036; stroke-width: 1.5;" x1="315.5" x2="461.5" y1="835.9531" y2="835.9531"/><ellipse cx="325.5" cy="846.9531" fill="#84BE84" rx="3" ry="3" style="stroke: #038048; stroke-width: 1.0;"/><text fill="#000000" font-family="sans-serif" font-size="11" lengthAdjust="spacingAndGlyphs" textLength="75" x="334.5" y="850.1636">repositories()</text><!--MD5=[9328a8105e110e25c93e51f8667f5bd8]
class RegistarProdutoController--><rect fill="#FEFECE" filter="url(#f5oaq5umiyamr)" height="73.6094" id="RegistarProdutoController" style="stroke: #A80036; stroke-width: 1.5;" width="601" x="6" y="933.9531"/><ellipse cx="225.25" cy="949.9531" fill="#ADD1B2" rx="11" ry="11" style="stroke: #A80036; stroke-width: 1.0;"/><path d="M227.5938,945.625 C226.6563,945.1875 226.0625,945.0469 225.1875,945.0469 C222.5625,945.0469 220.5625,947.125 220.5625,949.8438 L220.5625,950.9688 C220.5625,953.5469 222.6719,955.4375 225.5625,955.4375 C226.7813,955.4375 227.9375,955.1406 228.6875,954.5938 C229.2656,954.1875 229.5938,953.7344 229.5938,953.3438 C229.5938,952.8906 229.2031,952.5 228.7344,952.5 C228.5156,952.5 228.3125,952.5781 228.125,952.7656 C227.6719,953.25 227.6719,953.25 227.4844,953.3438 C227.0625,953.6094 226.375,953.7344 225.6094,953.7344 C223.5625,953.7344 222.2656,952.6406 222.2656,950.9375 L222.2656,949.8438 C222.2656,948.0625 223.5156,946.75 225.25,946.75 C225.8281,946.75 226.4375,946.9063 226.9063,947.1563 C227.3906,947.4375 227.5625,947.6563 227.6563,948.0625 C227.7188,948.4688 227.75,948.5938 227.8906,948.7188 C228.0313,948.8594 228.2656,948.9688 228.4844,948.9688 C228.75,948.9688 229.0156,948.8281 229.1875,948.6094 C229.2969,948.4531 229.3281,948.2656 229.3281,947.8438 L229.3281,946.4219 C229.3281,945.9844 229.3125,945.8594 229.2188,945.7031 C229.0625,945.4375 228.7813,945.2969 228.4844,945.2969 C228.1875,945.2969 227.9844,945.3906 227.7656,945.7031 L227.5938,945.625 Z "/><text fill="#000000" font-family="sans-serif" font-size="12" lengthAdjust="spacingAndGlyphs" textLength="154" x="245.75" y="954.1074">RegistarProdutoController</text><line style="stroke: #A80036; stroke-width: 1.5;" x1="7" x2="606" y1="965.9531" y2="965.9531"/><line style="stroke: #A80036; stroke-width: 1.5;" x1="7" x2="606" y1="973.9531" y2="973.9531"/><ellipse cx="17" cy="984.9531" fill="#84BE84" rx="3" ry="3" style="stroke: #038048; stroke-width: 1.0;"/><text fill="#000000" font-family="sans-serif" font-size="11" lengthAdjust="spacingAndGlyphs" textLength="575" x="26" y="988.1636">registarProduto(codigoFabrico,codigoComercial,descBreve,descCompleta,unidade,categoriaEscolhida)</text><ellipse cx="17" cy="997.7578" fill="#84BE84" rx="3" ry="3" style="stroke: #038048; stroke-width: 1.0;"/><text fill="#000000" font-family="sans-serif" font-size="11" lengthAdjust="spacingAndGlyphs" textLength="130" x="26" y="1000.9683">getCategoriasProduto()</text><!--MD5=[54bb84b05782d9261f3667cea79d5a1d]
class RegistarProdutoUI--><rect fill="#FEFECE" filter="url(#f5oaq5umiyamr)" height="60.8047" id="RegistarProdutoUI" style="stroke: #A80036; stroke-width: 1.5;" width="139" x="237" y="1084.9531"/><ellipse cx="252" cy="1100.9531" fill="#ADD1B2" rx="11" ry="11" style="stroke: #A80036; stroke-width: 1.0;"/><path d="M254.3438,1096.625 C253.4063,1096.1875 252.8125,1096.0469 251.9375,1096.0469 C249.3125,1096.0469 247.3125,1098.125 247.3125,1100.8438 L247.3125,1101.9688 C247.3125,1104.5469 249.4219,1106.4375 252.3125,1106.4375 C253.5313,1106.4375 254.6875,1106.1406 255.4375,1105.5938 C256.0156,1105.1875 256.3438,1104.7344 256.3438,1104.3438 C256.3438,1103.8906 255.9531,1103.5 255.4844,1103.5 C255.2656,1103.5 255.0625,1103.5781 254.875,1103.7656 C254.4219,1104.25 254.4219,1104.25 254.2344,1104.3438 C253.8125,1104.6094 253.125,1104.7344 252.3594,1104.7344 C250.3125,1104.7344 249.0156,1103.6406 249.0156,1101.9375 L249.0156,1100.8438 C249.0156,1099.0625 250.2656,1097.75 252,1097.75 C252.5781,1097.75 253.1875,1097.9063 253.6563,1098.1563 C254.1406,1098.4375 254.3125,1098.6563 254.4063,1099.0625 C254.4688,1099.4688 254.5,1099.5938 254.6406,1099.7188 C254.7813,1099.8594 255.0156,1099.9688 255.2344,1099.9688 C255.5,1099.9688 255.7656,1099.8281 255.9375,1099.6094 C256.0469,1099.4531 256.0781,1099.2656 256.0781,1098.8438 L256.0781,1097.4219 C256.0781,1096.9844 256.0625,1096.8594 255.9688,1096.7031 C255.8125,1096.4375 255.5313,1096.2969 255.2344,1096.2969 C254.9375,1096.2969 254.7344,1096.3906 254.5156,1096.7031 L254.3438,1096.625 Z "/><text fill="#000000" font-family="sans-serif" font-size="12" lengthAdjust="spacingAndGlyphs" textLength="107" x="266" y="1105.1074">RegistarProdutoUI</text><line style="stroke: #A80036; stroke-width: 1.5;" x1="238" x2="375" y1="1116.9531" y2="1116.9531"/><line style="stroke: #A80036; stroke-width: 1.5;" x1="238" x2="375" y1="1124.9531" y2="1124.9531"/><ellipse cx="248" cy="1135.9531" fill="#84BE84" rx="3" ry="3" style="stroke: #038048; stroke-width: 1.0;"/><text fill="#000000" font-family="sans-serif" font-size="11" lengthAdjust="spacingAndGlyphs" textLength="53" x="257" y="1139.1636">doShow()</text><!--MD5=[48590afff58a68e2fcba47824d6f8a11]
class RepositoryFactory--><rect fill="#FEFECE" filter="url(#f5oaq5umiyamr)" height="60.8047" id="RepositoryFactory" style="stroke: #A80036; stroke-width: 1.5;" width="142" x="320.5" y="657.9531"/><ellipse cx="335.5" cy="673.9531" fill="#ADD1B2" rx="11" ry="11" style="stroke: #A80036; stroke-width: 1.0;"/><path d="M337.8438,669.625 C336.9063,669.1875 336.3125,669.0469 335.4375,669.0469 C332.8125,669.0469 330.8125,671.125 330.8125,673.8438 L330.8125,674.9688 C330.8125,677.5469 332.9219,679.4375 335.8125,679.4375 C337.0313,679.4375 338.1875,679.1406 338.9375,678.5938 C339.5156,678.1875 339.8438,677.7344 339.8438,677.3438 C339.8438,676.8906 339.4531,676.5 338.9844,676.5 C338.7656,676.5 338.5625,676.5781 338.375,676.7656 C337.9219,677.25 337.9219,677.25 337.7344,677.3438 C337.3125,677.6094 336.625,677.7344 335.8594,677.7344 C333.8125,677.7344 332.5156,676.6406 332.5156,674.9375 L332.5156,673.8438 C332.5156,672.0625 333.7656,670.75 335.5,670.75 C336.0781,670.75 336.6875,670.9063 337.1563,671.1563 C337.6406,671.4375 337.8125,671.6563 337.9063,672.0625 C337.9688,672.4688 338,672.5938 338.1406,672.7188 C338.2813,672.8594 338.5156,672.9688 338.7344,672.9688 C339,672.9688 339.2656,672.8281 339.4375,672.6094 C339.5469,672.4531 339.5781,672.2656 339.5781,671.8438 L339.5781,670.4219 C339.5781,669.9844 339.5625,669.8594 339.4688,669.7031 C339.3125,669.4375 339.0313,669.2969 338.7344,669.2969 C338.4375,669.2969 338.2344,669.3906 338.0156,669.7031 L337.8438,669.625 Z "/><text fill="#000000" font-family="sans-serif" font-size="12" lengthAdjust="spacingAndGlyphs" textLength="110" x="349.5" y="678.1074">RepositoryFactory</text><line style="stroke: #A80036; stroke-width: 1.5;" x1="321.5" x2="461.5" y1="689.9531" y2="689.9531"/><line style="stroke: #A80036; stroke-width: 1.5;" x1="321.5" x2="461.5" y1="697.9531" y2="697.9531"/><ellipse cx="331.5" cy="708.9531" fill="#84BE84" rx="3" ry="3" style="stroke: #038048; stroke-width: 1.0;"/><text fill="#000000" font-family="sans-serif" font-size="11" lengthAdjust="spacingAndGlyphs" textLength="45" x="340.5" y="712.1636">create()</text><!--MD5=[c72ac90980a5ccec78ba1286861db27b]
class CategoriaRepository--><rect fill="#FEFECE" filter="url(#f5oaq5umiyamr)" height="73.6094" id="CategoriaRepository" style="stroke: #A80036; stroke-width: 1.5;" width="155" x="467" y="28.9531"/><ellipse cx="482" cy="44.9531" fill="#ADD1B2" rx="11" ry="11" style="stroke: #A80036; stroke-width: 1.0;"/><path d="M484.3438,40.625 C483.4063,40.1875 482.8125,40.0469 481.9375,40.0469 C479.3125,40.0469 477.3125,42.125 477.3125,44.8438 L477.3125,45.9688 C477.3125,48.5469 479.4219,50.4375 482.3125,50.4375 C483.5313,50.4375 484.6875,50.1406 485.4375,49.5938 C486.0156,49.1875 486.3438,48.7344 486.3438,48.3438 C486.3438,47.8906 485.9531,47.5 485.4844,47.5 C485.2656,47.5 485.0625,47.5781 484.875,47.7656 C484.4219,48.25 484.4219,48.25 484.2344,48.3438 C483.8125,48.6094 483.125,48.7344 482.3594,48.7344 C480.3125,48.7344 479.0156,47.6406 479.0156,45.9375 L479.0156,44.8438 C479.0156,43.0625 480.2656,41.75 482,41.75 C482.5781,41.75 483.1875,41.9063 483.6563,42.1563 C484.1406,42.4375 484.3125,42.6563 484.4063,43.0625 C484.4688,43.4688 484.5,43.5938 484.6406,43.7188 C484.7813,43.8594 485.0156,43.9688 485.2344,43.9688 C485.5,43.9688 485.7656,43.8281 485.9375,43.6094 C486.0469,43.4531 486.0781,43.2656 486.0781,42.8438 L486.0781,41.4219 C486.0781,40.9844 486.0625,40.8594 485.9688,40.7031 C485.8125,40.4375 485.5313,40.2969 485.2344,40.2969 C484.9375,40.2969 484.7344,40.3906 484.5156,40.7031 L484.3438,40.625 Z "/><text fill="#000000" font-family="sans-serif" font-size="12" lengthAdjust="spacingAndGlyphs" textLength="123" x="496" y="49.1074">CategoriaRepository</text><line style="stroke: #A80036; stroke-width: 1.5;" x1="468" x2="621" y1="60.9531" y2="60.9531"/><line style="stroke: #A80036; stroke-width: 1.5;" x1="468" x2="621" y1="68.9531" y2="68.9531"/><ellipse cx="478" cy="79.9531" fill="#84BE84" rx="3" ry="3" style="stroke: #038048; stroke-width: 1.0;"/><text fill="#000000" font-family="sans-serif" font-size="11" lengthAdjust="spacingAndGlyphs" textLength="45" x="487" y="83.1636">create()</text><ellipse cx="478" cy="92.7578" fill="#84BE84" rx="3" ry="3" style="stroke: #038048; stroke-width: 1.0;"/><text fill="#000000" font-family="sans-serif" font-size="11" lengthAdjust="spacingAndGlyphs" textLength="96" x="487" y="95.9683">encontrarTodas()</text><!--MD5=[9dc4f8bfc61e7da6ce1d1ba00073686b]
class ProdutoRepository--><rect fill="#FEFECE" filter="url(#f5oaq5umiyamr)" height="73.6094" id="ProdutoRepository" style="stroke: #A80036; stroke-width: 1.5;" width="143" x="317" y="506.9531"/><ellipse cx="332" cy="522.9531" fill="#ADD1B2" rx="11" ry="11" style="stroke: #A80036; stroke-width: 1.0;"/><path d="M334.3438,518.625 C333.4063,518.1875 332.8125,518.0469 331.9375,518.0469 C329.3125,518.0469 327.3125,520.125 327.3125,522.8438 L327.3125,523.9688 C327.3125,526.5469 329.4219,528.4375 332.3125,528.4375 C333.5313,528.4375 334.6875,528.1406 335.4375,527.5938 C336.0156,527.1875 336.3438,526.7344 336.3438,526.3438 C336.3438,525.8906 335.9531,525.5 335.4844,525.5 C335.2656,525.5 335.0625,525.5781 334.875,525.7656 C334.4219,526.25 334.4219,526.25 334.2344,526.3438 C333.8125,526.6094 333.125,526.7344 332.3594,526.7344 C330.3125,526.7344 329.0156,525.6406 329.0156,523.9375 L329.0156,522.8438 C329.0156,521.0625 330.2656,519.75 332,519.75 C332.5781,519.75 333.1875,519.9063 333.6563,520.1563 C334.1406,520.4375 334.3125,520.6563 334.4063,521.0625 C334.4688,521.4688 334.5,521.5938 334.6406,521.7188 C334.7813,521.8594 335.0156,521.9688 335.2344,521.9688 C335.5,521.9688 335.7656,521.8281 335.9375,521.6094 C336.0469,521.4531 336.0781,521.2656 336.0781,520.8438 L336.0781,519.4219 C336.0781,518.9844 336.0625,518.8594 335.9688,518.7031 C335.8125,518.4375 335.5313,518.2969 335.2344,518.2969 C334.9375,518.2969 334.7344,518.3906 334.5156,518.7031 L334.3438,518.625 Z "/><text fill="#000000" font-family="sans-serif" font-size="12" lengthAdjust="spacingAndGlyphs" textLength="111" x="346" y="527.1074">ProdutoRepository</text><line style="stroke: #A80036; stroke-width: 1.5;" x1="318" x2="459" y1="538.9531" y2="538.9531"/><line style="stroke: #A80036; stroke-width: 1.5;" x1="318" x2="459" y1="546.9531" y2="546.9531"/><ellipse cx="328" cy="557.9531" fill="#84BE84" rx="3" ry="3" style="stroke: #038048; stroke-width: 1.0;"/><text fill="#000000" font-family="sans-serif" font-size="11" lengthAdjust="spacingAndGlyphs" textLength="45" x="337" y="561.1636">create()</text><ellipse cx="328" cy="570.7578" fill="#84BE84" rx="3" ry="3" style="stroke: #038048; stroke-width: 1.0;"/><text fill="#000000" font-family="sans-serif" font-size="11" lengthAdjust="spacingAndGlyphs" textLength="36" x="337" y="573.9683">save()</text><!--MD5=[2909c7876012d7353c9a9c7e5e8e8bc8]
reverse link RegistarProdutoController to RegistarProdutoUI--><path d="M306.5,1013.3871 C306.5,1036.2941 306.5,1064.2185 306.5,1084.9054 " fill="none" id="RegistarProdutoController&lt;-RegistarProdutoUI" style="stroke: #A80036; stroke-width: 1.0;"/><polygon fill="#A80036" points="306.5,1008.2801,302.5,1017.2801,306.5,1013.2801,310.5,1017.2801,306.5,1008.2801" style="stroke: #A80036; stroke-width: 1.0;"/><text fill="#000000" font-family="sans-serif" font-size="13" lengthAdjust="spacingAndGlyphs" textLength="44" x="307.5" y="1051.02">chama</text><text fill="#000000" font-family="sans-serif" font-size="13" lengthAdjust="spacingAndGlyphs" textLength="8" x="297.8625" y="1027.533">1</text><text fill="#000000" font-family="sans-serif" font-size="13" lengthAdjust="spacingAndGlyphs" textLength="8" x="297.625" y="1073.6853">1</text><!--MD5=[f9f685c76dfb0d2b4c7e0ff5d5bddd63]
reverse link PersistenceContext to RegistarProdutoController--><path d="M368.887,861.5361 C356.321,883.3741 340.032,911.6801 327.25,933.8941 " fill="none" id="PersistenceContext&lt;-RegistarProdutoController" style="stroke: #A80036; stroke-width: 1.0;"/><polygon fill="#A80036" points="371.51,856.9791,363.554,862.7845,369.0161,861.3128,370.4879,866.7748,371.51,856.9791" style="stroke: #A80036; stroke-width: 1.0;"/><text fill="#000000" font-family="sans-serif" font-size="13" lengthAdjust="spacingAndGlyphs" textLength="44" x="353.5" y="900.02">chama</text><text fill="#000000" font-family="sans-serif" font-size="13" lengthAdjust="spacingAndGlyphs" textLength="8" x="359.1808" y="876.9227">1</text><text fill="#000000" font-family="sans-serif" font-size="13" lengthAdjust="spacingAndGlyphs" textLength="8" x="322.3383" y="922.7937">1</text><!--MD5=[9fa812b5d85aa0dd782206fb3fd23f92]
reverse link RepositoryFactory to PersistenceContext--><path d="M390.735,724.1411 C390.248,746.1971 389.625,774.4621 389.16,795.5311 " fill="none" id="RepositoryFactory&lt;-PersistenceContext" style="stroke: #A80036; stroke-width: 1.0;"/><polygon fill="#A80036" points="390.849,718.9631,386.652,727.8729,390.739,723.9619,394.65,728.049,390.849,718.9631" style="stroke: #A80036; stroke-width: 1.0;"/><text fill="#000000" font-family="sans-serif" font-size="13" lengthAdjust="spacingAndGlyphs" textLength="44" x="390.5" y="762.02">chama</text><text fill="#000000" font-family="sans-serif" font-size="13" lengthAdjust="spacingAndGlyphs" textLength="8" x="381.8897" y="738.9034">1</text><text fill="#000000" font-family="sans-serif" font-size="13" lengthAdjust="spacingAndGlyphs" textLength="8" x="380.4711" y="784.7073">1</text><!--MD5=[dcaef6be9d16728063175dddda991776]
reverse link ProdutoRepository to RepositoryFactory--><path d="M389.372,586.3871 C389.855,609.2941 390.442,637.2181 390.878,657.9051 " fill="none" id="ProdutoRepository&lt;-RepositoryFactory" style="stroke: #A80036; stroke-width: 1.0;"/><polygon fill="#A80036" points="389.265,581.2801,385.4562,590.3627,389.3707,586.279,393.4544,590.1935,389.265,581.2801" style="stroke: #A80036; stroke-width: 1.0;"/><text fill="#000000" font-family="sans-serif" font-size="13" lengthAdjust="spacingAndGlyphs" textLength="23" x="390.5" y="624.02">cria</text><text fill="#000000" font-family="sans-serif" font-size="13" lengthAdjust="spacingAndGlyphs" textLength="8" x="380.7494" y="600.533">1</text><text fill="#000000" font-family="sans-serif" font-size="13" lengthAdjust="spacingAndGlyphs" textLength="8" x="381.8669" y="646.6849">1</text><!--MD5=[de743b73ebc1d47455ccb897474d50d4]
reverse link Produto to ProdutoRepository--><path d="M324.556,434.4421 C338.81,458.6301 354.815,485.7901 367.247,506.8871 " fill="none" id="Produto&lt;-ProdutoRepository" style="stroke: #A80036; stroke-width: 1.0;"/><polygon fill="#A80036" points="321.916,429.9621,323.0384,439.7468,324.4542,434.27,329.931,435.6858,321.916,429.9621" style="stroke: #A80036; stroke-width: 1.0;"/><text fill="#000000" font-family="sans-serif" font-size="13" lengthAdjust="spacingAndGlyphs" textLength="51" x="349.5" y="473.02">persiste</text><text fill="#000000" font-family="sans-serif" font-size="13" lengthAdjust="spacingAndGlyphs" textLength="37" x="286.699" y="450.1731">many</text><text fill="#000000" font-family="sans-serif" font-size="13" lengthAdjust="spacingAndGlyphs" textLength="8" x="354.591" y="495.7854">1</text><!--MD5=[bf8f12e67c2a2626971341752a474277]
reverse link Produto to RegistarProdutoController--><path d="M273.977,435.1941 C267.084,467.0131 260.5,506.8511 260.5,542.9531 C260.5,542.9531 260.5,542.9531 260.5,827.4531 C260.5,865.0181 275.156,905.5771 287.923,933.7821 " fill="none" id="Produto&lt;-RegistarProdutoController" style="stroke: #A80036; stroke-width: 1.0;"/><polygon fill="#A80036" points="275.085,430.1581,269.2451,438.0888,274.0109,435.0414,277.0583,439.8073,275.085,430.1581" style="stroke: #A80036; stroke-width: 1.0;"/><text fill="#000000" font-family="sans-serif" font-size="13" lengthAdjust="spacingAndGlyphs" textLength="23" x="261.5" y="693.02">cria</text><text fill="#000000" font-family="sans-serif" font-size="13" lengthAdjust="spacingAndGlyphs" textLength="37" x="234.0735" y="449.9957">many</text><text fill="#000000" font-family="sans-serif" font-size="13" lengthAdjust="spacingAndGlyphs" textLength="8" x="275.9015" y="922.9386">1</text><!--MD5=[e9b3716cfc6459bd7b5fca46bb1ffbfb]
reverse link Item to Produto--><path d="M289.5,246.2331 C289.5,267.0661 289.5,294.0201 289.5,317.7091 " fill="none" id="Item&lt;-Produto" style="stroke: #A80036; stroke-width: 1.0;"/><polygon fill="#A80036" points="289.5,241.0751,285.5,250.0751,289.5,246.0751,293.5,250.0751,289.5,241.0751" style="stroke: #A80036; stroke-width: 1.0;"/><text fill="#000000" font-family="sans-serif" font-size="13" lengthAdjust="spacingAndGlyphs" textLength="8" x="290.5" y="284.02">é</text><text fill="#000000" font-family="sans-serif" font-size="13" lengthAdjust="spacingAndGlyphs" textLength="8" x="280.675" y="261.0385">1</text><text fill="#000000" font-family="sans-serif" font-size="13" lengthAdjust="spacingAndGlyphs" textLength="8" x="281.0125" y="307.0139">1</text><!--MD5=[a56ac8662aa166b1a6cc477ef7465573]
reverse link UnidadeMedida to Item--><path d="M349.544,101.1431 C336.309,125.0231 318.81,156.5841 306.12,179.4741 " fill="none" id="UnidadeMedida&lt;-Item" style="stroke: #A80036; stroke-width: 1.0;"/><polygon fill="#A80036" points="352.131,96.4831,344.2644,102.4091,349.7034,100.8542,351.2582,106.2932,352.131,96.4831" style="stroke: #A80036; stroke-width: 1.0;"/><text fill="#000000" font-family="sans-serif" font-size="13" lengthAdjust="spacingAndGlyphs" textLength="26" x="332.5" y="146.02">tem</text><text fill="#000000" font-family="sans-serif" font-size="13" lengthAdjust="spacingAndGlyphs" textLength="8" x="339.9299" y="116.4275">1</text><text fill="#000000" font-family="sans-serif" font-size="13" lengthAdjust="spacingAndGlyphs" textLength="8" x="300.6046" y="168.9978">1</text><!--MD5=[41f9049ebcac8b3e1fba85b9a5e130f2]
reverse link Categoria to Item--><path d="M233.864,107.8131 C246.461,130.8231 261.908,159.0451 273.327,179.9051 " fill="none" id="Categoria&lt;-Item" style="stroke: #A80036; stroke-width: 1.0;"/><polygon fill="#A80036" points="231.385,103.2831,232.1965,113.0985,233.7853,107.6693,239.2144,109.2581,231.385,103.2831" style="stroke: #A80036; stroke-width: 1.0;"/><text fill="#000000" font-family="sans-serif" font-size="13" lengthAdjust="spacingAndGlyphs" textLength="26" x="256.5" y="146.02">tem</text><text fill="#000000" font-family="sans-serif" font-size="13" lengthAdjust="spacingAndGlyphs" textLength="8" x="225.9167" y="122.5365">1</text><text fill="#000000" font-family="sans-serif" font-size="13" lengthAdjust="spacingAndGlyphs" textLength="8" x="260.9142" y="168.6849">1</text><!--MD5=[e116dbfda971ecc3476b8f5add8ade4a]
@startuml
title 2006 - Adicionar um produto ao catálogo


class Produto {
+Int codigoFabrico
+String codigoComercial
+String descBreve
+String descCompleta
+ create(codigoFabrico,codigoComercial,descBreve,descCompleta,unidade,categoriaEscolhida)
}

class Categoria {
+String codigo
+String descricao
}

class UnidadeMedida {
+String unidade
}

class Item {
+String idItem
}

class PersistenceContext {
+ repositories()
}

class RegistarProdutoController {
+ registarProduto(codigoFabrico,codigoComercial,descBreve,descCompleta,unidade,categoriaEscolhida)
+ getCategoriasProduto()
}

class RegistarProdutoUI {
+ doShow()
}

class RepositoryFactory {
+ create()
}

class CategoriaRepository {
+ create()
+ encontrarTodas()
}

class ProdutoRepository {
+ create()
+ save()
}

class RegistarProdutoController
class RepositoryFactory
class ProdutoRepository
class RegistarProdutoUI
class PersistenceContext
class Produto

RegistarProdutoController "1" <-up- "1" RegistarProdutoUI: chama
PersistenceContext "1" <-up- "1" RegistarProdutoController: chama
RepositoryFactory "1" <-up- "1" PersistenceContext: chama
ProdutoRepository "1" <-up- "1" RepositoryFactory: cria
Produto "many" <-up- "1" ProdutoRepository: persiste
Produto "many" <-up- "1" RegistarProdutoController: cria
Item "1" <-up- "1" Produto: é
UnidadeMedida "1" <-up- "1" Item: tem
Categoria "1" <-up- "1" Item: tem
@enduml

PlantUML version 1.2020.09beta17(Unknown compile time)
(GPL source distribution)
Java Runtime: Java(TM) SE Runtime Environment
JVM: Java HotSpot(TM) 64-Bit Server VM
Java Version: 14.0.1+7
Operating System: Linux
Default Encoding: UTF-8
Language: en
Country: US
--></g></svg>